<svg xmlns="http://www.w3.org/2000/svg" class="vicon" viewBox="0 0 512 512"><path d="M221.467 189.573a54.712 54.712 0 00-22.027-3.733 259.549 259.549 0 00-20.347.373v62.72l7.28.374h9.894c7.28 0 14.56-1.12 21.466-3.36 5.974-1.68 11.2-5.227 15.307-9.894 3.92-4.666 5.787-11.013 5.787-19.226a27.073 27.073 0 00-17.36-27.254zM400.667 38H111.333A79.333 79.333 0 0032 117.333v278.134c0 43.866 35.467 79.333 79.333 79.333h289.334c43.866 0 79.333-35.467 79.333-79.333V117.333C480 73.467 444.533 38 400.667 38zM268.32 255.467c-7.467 10.453-17.92 18.293-30.053 22.773-12.694 4.667-26.694 6.347-42 6.347l-9.334-.187-8.026-.187v59.92a2.24 2.24 0 01-1.16 2.359 2.255 2.255 0 01-.894.255H140.64c-1.493 0-2.24-.747-2.24-2.427V152.24c0-1.307.56-2.053 1.867-2.053L150.72 150l14.187-.373 16.24-.374 16.986-.186c15.307 0 28 1.866 38.454 5.786 9.333 3.174 17.92 8.4 25.013 15.307 5.973 5.973 10.64 13.253 13.627 21.28 2.8 7.84 4.293 15.867 4.293 24.267 0 16.053-3.733 29.306-11.2 39.76zm127.307-58.8v36.4c0 1.493-.934 2.053-2.987 2.053a81.196 81.196 0 00-35.84 6.907c-3.547 1.68-6.907 3.92-9.52 6.906v95.2c0 1.867-.747 2.614-2.427 2.614H308.08a2.62 2.62 0 01-1.964-.493 2.614 2.614 0 01-1.023-1.747v-104.16l-.186-14-.374-14.56c0-4.294-.373-8.4-.746-12.694a1.87 1.87 0 01.272-1.269 1.87 1.87 0 011.034-.784h33.227a3.814 3.814 0 013.733 2.987 56.55 56.55 0 012.427 17.173c5.6-6.533 12.507-11.947 20.16-16.053a57.865 57.865 0 0128.373-7.28c1.307-.187 2.427.746 2.614 2.053v.747z"/></svg>