<svg xmlns="http://www.w3.org/2000/svg" class="vicon" viewBox="0 0 512 512"><path d="M383.587 38H128.413A96.413 96.413 0 0032 134.413v243.974a96.413 96.413 0 0096.413 96.413h255.174A96.413 96.413 0 00480 378.387V134.413A96.413 96.413 0 00383.587 38zM269.608 345.832h-42.691c-2.986 0-5.114-.112-6.309-2.109a6557.388 6557.388 0 00-12.021-23.296 843.053 843.053 0 00-12.768-23.595 1248.256 1248.256 0 01-13.384-24.36h-.299a986.857 986.857 0 01-12.469 24.043c-4.294 8.008-8.568 15.978-12.768 23.893A1022.1 1022.1 0 01144 344.003c-.821 1.81-2.221 1.997-4.237 1.997h-41.16c-.803 0-1.251.317-1.344-.485a3.1 3.1 0 01.448-2.11l57.997-95.293L99.2 152.576c-.616-.803-.71-1.456-.299-1.997a2.14 2.14 0 011.811-.747h42.373a6.725 6.725 0 012.707.448 5.457 5.457 0 011.792 1.661c3.603 8.027 7.616 16.035 12.021 24.043a1432.394 1432.394 0 0013.366 23.744 343.69 343.69 0 0112.469 23.744h.299a741.45 741.45 0 0112.17-24.043 3330.34 3330.34 0 0112.619-23.594 1221.962 1221.962 0 0012.469-23.595 4.596 4.596 0 011.195-1.979 4.463 4.463 0 012.408-.448h39.368a1.74 1.74 0 012.091 1.251 1.736 1.736 0 01-.579 1.755l.019.074-55.907 92.27 59.808 97.981c.392.691.485 1.493.299 2.259-.187.672-.878.224-2.091.429zm143.379-7.84a149.722 149.722 0 01-30.352 9.016 161.062 161.062 0 01-28.878 2.707 93.442 93.442 0 01-40.114-8.4 63.859 63.859 0 01-28.112-25.406 81.16 81.16 0 01-10.23-42.522 78.432 78.432 0 0110.23-39.368 74.99 74.99 0 0129.773-28.84 95.932 95.932 0 0151.091-10.678c1.605.094 3.509.243 5.712.448v-59.21c0-1.4.597-2.11 1.81-2.11h37.856a1.605 1.605 0 011.811 1.811v177.651c0 3.416.149 7.112.448 11.125.299 3.995.56 7.597.747 10.808a3.044 3.044 0 01-1.792 2.968zm-45.864-108.491c1.68.168 3.341.467 4.965.896v82.04a30.466 30.466 0 01-6.608 1.195c-2.602.21-5.211.309-7.821.299a49.598 49.598 0 01-15.494-2.408 32.001 32.001 0 01-12.618-7.504 36.837 36.837 0 01-8.419-13.216 52.825 52.825 0 01-3.155-19.246 41.395 41.395 0 016.16-23.744 41.165 41.165 0 0115.774-13.832 46.423 46.423 0 0121.037-4.816c2.072.038 4.125.131 6.179.336z"/></svg>