<svg xmlns="http://www.w3.org/2000/svg" class="vicon" viewBox="0 0 512 512"><path d="M228.56 232.693c-1.867-5.786-3.547-11.386-5.413-17.173-1.867-5.787-3.547-11.2-5.04-16.613-1.494-5.227-2.8-10.08-4.107-14.56h-.373c-1.68 8.026-3.734 16.053-6.347 24.08-2.8 8.96-5.6 18.293-8.587 27.626-2.613 9.52-5.413 18.294-8.213 26.134h47.413c-1.12-3.939-2.613-8.587-4.293-13.459-1.68-5.021-3.36-10.435-5.04-16.035zM400.667 38H111.333C67.467 38 32 73.467 32 117.333v278.134c0 43.866 35.467 79.333 79.333 79.333h289.334c43.866 0 79.333-35.467 79.333-79.333V117.333C480 73.467 444.533 38 400.667 38zM306.4 346.56h-39.032c-1.288.187-2.595-.747-2.968-2.053l-15.307-44.427h-69.44l-14.186 43.867c-.374 1.68-1.867 2.8-3.547 2.632h-35.093c-2.054 0-2.614-1.139-2.054-3.36L184.88 170.16c.56-1.867 1.12-3.92 1.867-6.16.746-3.92 1.12-8.027 1.12-12.133-.187-.934.56-1.867 1.493-2.054h48.347c1.493 0 2.24.56 2.426 1.494l68.134 192.266c.56 2.035 0 2.987-1.867 2.987zm63.467-2.8c0 2.053-.728 2.987-2.408 2.987h-36.606c-1.866 0-2.8-1.139-2.8-2.987V200.027c0-1.867.766-2.614 2.446-2.614h36.96c1.68 0 2.408.934 2.408 2.614V343.76zm-3.902-168.56c-4.312 4.48-10.658 6.907-17.005 6.533-6.16.187-12.133-2.24-16.632-6.533-4.293-4.667-6.533-10.827-6.347-17.173-.186-6.347 2.24-12.32 6.702-16.614 4.517-4.293 10.49-6.533 16.65-6.533 7.299 0 12.862 2.24 16.987 6.533a23.565 23.565 0 016.16 16.614c.187 6.346-2.053 12.506-6.515 17.173z"/></svg>