<svg xmlns="http://www.w3.org/2000/svg" class="vicon" viewBox="0 0 512 512"><path d="M400.667 38H111.333C67.467 38 32 73.467 32 117.333v278.134c0 43.866 35.467 79.333 79.333 79.333h289.334c43.866 0 79.333-35.467 79.333-79.333V117.333C480 73.467 444.533 38 400.667 38zm-130.48 305.928c0 .952-.542 1.68-1.12 2.259-.56.373-1.12.541-1.886.541H148.853c-2.053 0-2.986-1.139-2.986-3.36V152.613c-.187-1.306.746-2.426 2.053-2.613h37.333c.934-.187 2.054.56 2.054 1.493v157.36h86.24c1.885 0 2.445.915 2.053 2.614l-5.413 32.461zm116.666-146.701v36.4c0 1.493-.933 2.053-2.986 2.053-12.115-.747-24.267 1.493-35.28 6.347-3.734 1.68-7.28 3.92-10.08 6.906v95.2c0 1.867-.747 2.614-2.427 2.614h-36.4c-1.493.186-2.8-.747-2.987-2.222V240.347c0-4.48 0-9.147-.186-14-.187-4.854-.187-9.707-.374-14.56-.186-4.107-.56-8.214-1.138-12.32-.187-.934.373-1.867 1.306-2.054.187-.186.374-.186.747 0h32.667c1.866 0 3.36 1.307 3.92 2.987.746 1.307 1.306 2.8 1.493 4.293.373 1.867.728 3.92.933 5.787.187 2.053.392 4.293.392 6.72 5.582-6.533 12.32-11.947 19.955-16.053 8.587-4.667 18.107-6.907 27.813-6.72 1.288-.187 2.427.746 2.614 2.053.018.187.018.373.018.747z"/></svg>