<svg xmlns="http://www.w3.org/2000/svg" class="vicon" viewBox="0 0 512 512"><path d="M191.413 232.693c-1.866-5.786-3.546-11.386-5.413-17.173-1.867-5.787-3.547-11.2-5.04-16.613-1.493-5.227-2.8-10.08-4.107-14.56h-.373c-1.68 8.026-3.733 16.053-6.347 24.08-2.8 8.96-5.6 18.293-8.586 27.626-2.427 9.52-5.414 18.294-8.214 26.134h47.414c-1.12-3.92-2.614-8.587-4.294-13.44-1.68-5.04-3.36-10.454-5.04-16.054zm160.16-5.413c-10.266-.56-19.973 4.853-24.826 14.187-2.24 4.293-3.547 8.773-4.107 13.44h39.368c4.853 0 8.4 0 10.64-.187 1.493-.187 2.987-.56 4.293-1.493v-1.867c0-2.427-.392-4.667-1.138-6.907-3.323-10.453-13.216-17.546-24.23-17.173zM400.667 38H111.333C67.467 38 32 73.467 32 117.333v278.134c0 43.866 35.467 79.333 79.333 79.333h289.334c43.866 0 79.333-35.467 79.333-79.333V117.333C480 73.467 444.533 38 400.667 38zM269.253 346.205H230.24c-1.307.187-2.613-.765-2.987-2.053l-15.306-44.8h-69.44l-14.187 44.053c-.373 1.68-1.867 2.8-3.547 2.614H89.68c-2.053 0-2.613-1.12-2.053-3.36l60.106-172.312c.56-1.867 1.12-3.547 1.867-5.787.747-3.92 1.12-8.027 1.12-12.133-.187-.934.56-1.867 1.493-2.054h48.347c1.307 0 2.24.56 2.427 1.494L271.12 343.2c.56 2.053.019 3.005-1.867 3.005zm146.552-74.498c-.392 3.528-.578 6.16-.765 7.84-.187 1.306-1.288 2.426-2.613 2.426-1.12 0-3.174.187-6.16.392-2.968.374-6.534.542-10.808.542-4.294 0-8.792-.747-13.627-.747h-59.173c.728 5.787 2.613 11.573 5.786 16.613 3.379 5.059 8.046 8.96 13.608 11.219 7.467 3.173 15.699 4.853 23.912 4.667 6.534-.206 13.048-.747 19.395-2.054 5.805-.728 11.387-2.221 16.632-4.293.933-.728 1.493-.373 1.493 1.493v28.579c0 .728-.186 1.493-.392 2.221-.392.56-.746.952-1.288 1.307a79.868 79.868 0 01-18.666 5.6 126.186 126.186 0 01-26.507 2.24c-14.205 0-26.133-2.24-35.84-6.533-9.147-3.939-17.192-10.099-23.539-17.734a68.815 68.815 0 01-12.88-24.453c-2.613-8.792-3.901-17.939-3.901-27.272 0-10.061 1.493-19.973 4.667-29.68a76.159 76.159 0 0114-25.573c6.16-7.467 13.794-13.44 22.568-17.734 8.792-4.293 19.226-5.786 31.173-5.786 9.912-.187 19.787 1.68 28.933 5.786 7.654 3.36 14.374 8.4 19.6 14.934 4.854 6.346 8.774 13.44 11.219 21.28 2.408 7.466 3.528 15.12 3.528 22.773 0 4.48-.187 8.4-.355 11.947z"/></svg>