<svg xmlns="http://www.w3.org/2000/svg" class="vicon" viewBox="0 0 512 512"><path d="M400.667 38H111.333C67.467 38 32 73.467 32 117.333v278.134c0 43.866 35.467 79.333 79.333 79.333h289.334c43.866 0 79.333-35.467 79.333-79.333V117.333C480 73.467 444.533 38 400.667 38zM265.333 346H226.32c-1.307.205-2.613-.747-2.987-2.053l-15.306-44.614h-69.44L124.4 343.387c-.373 1.68-1.867 2.8-3.547 2.613H85.76c-2.053 0-2.613-1.12-2.053-3.36l60.106-172.48c.56-1.867 1.12-3.92 1.867-6.16.933-3.92 1.493-7.84 1.493-11.947-.186-.933.56-1.866 1.494-2.053h48.346c1.307 0 2.24.56 2.427 1.493l67.76 191.539c.56 2.035 0 2.968-1.867 2.968zm144.667.205h-32.125c-1.475.187-2.968-.765-3.528-2.053-.374-1.493-.747-3.192-1.139-4.667-.373-1.306-.373-2.613-.373-3.92-5.974 5.395-13.254 9.334-21.094 11.555-6.72 1.885-13.794 2.8-20.72 2.8-6.888 0-13.813-.933-20.346-3.173-5.974-2.035-11.555-5.6-15.867-10.267a46.819 46.819 0 01-10.472-18.107c-2.613-8.605-3.901-17.546-3.715-26.506V199.28c-.186-1.12.542-2.24 1.867-2.427h36.195c1.138-.186 2.258.56 2.445 1.867v88.312c0 8.195 1.867 14.728 5.395 19.395 3.565 4.666 10.826 7.112 19.245 7.112 4.275 0 8.568-.766 12.693-2.259 4.294-1.493 8.195-3.528 11.76-6.16V198.907c0-1.307.934-2.054 2.614-2.054h35.653c.952-.186 2.035.56 2.035 1.494v114.986c0 5.059 0 9.539.205 13.44.187 3.939.392 7.299.56 10.286.373 2.986.541 4.666.728 6.701.224 1.68-.523 2.445-2.016 2.445zM187.493 232.693c-1.866-5.786-3.546-11.386-5.413-17.173-1.867-5.787-3.547-11.2-5.04-16.613-1.493-5.227-2.8-10.08-4.107-14.56h-.373c-1.68 8.026-3.733 16.053-6.347 24.08-2.8 8.96-5.6 18.293-8.586 27.626-2.427 9.52-5.414 18.294-8.214 26.134h47.414c-1.12-3.92-2.614-8.587-4.294-13.44-1.68-5.04-3.36-10.454-5.04-16.054z"/></svg>