<svg xmlns="http://www.w3.org/2000/svg" class="vicon" viewBox="0 0 512 512"><path d="M111.333 38C67.467 38 32 73.467 32 117.333v278.134c0 43.866 35.467 79.333 79.333 79.333h289.334c43.866 0 79.333-35.467 79.333-79.333V117.333C480 73.467 444.533 38 400.667 38H111.333zm211.12 95.76h37.894c.933-.187 1.68.56 1.866 1.307v178.08c0 3.36.187 7.093.374 11.2.373 3.92.56 7.653.746 10.826 0 1.307-.56 2.427-1.866 2.987-9.707 4.107-19.974 7.093-30.427 8.96-9.333 1.68-19.04 2.613-28.747 2.613-13.813.187-27.626-2.613-40.133-8.4-11.76-5.413-21.467-14.373-28.187-25.386-6.906-11.387-10.266-25.574-10.266-42.56A76.668 76.668 0 01233.973 234c7.094-12.133 17.36-22.213 29.68-28.933 13.067-7.28 28.747-10.827 47.227-10.827.933 0 2.24 0 3.92.187 1.68.186 3.547.186 5.787.373v-58.987c0-1.306.56-2.053 1.866-2.053zM155.76 149.813h36.4c1.12-.186 2.24.56 2.427 1.867.186.187.186.373.186.56v191.52c0 2.053-.933 2.987-2.613 2.987h-36.587c-1.68 0-2.426-.934-2.426-2.987V152.24c0-1.68.933-2.427 2.613-2.427zm153.627 79.147c-7.28 0-14.56 1.493-21.094 4.853a41.847 41.847 0 00-15.866 13.814c-4.107 5.973-6.16 14-6.16 23.706-.187 6.534.933 13.067 3.173 19.227 1.867 5.04 4.667 9.52 8.4 13.253 3.547 3.36 7.84 5.974 12.693 7.467 5.04 1.68 10.267 2.427 15.494 2.427 2.8 0 5.413-.187 7.84-.374a15.888 15.888 0 006.72-.933v-82.133c-1.68-.374-3.36-.747-5.04-.934-2.054-.186-4.107-.373-6.16-.373z"/></svg>