<svg xmlns="http://www.w3.org/2000/svg" class="vicon" viewBox="0 0 512 512"><path d="M480 81.778v348.444C480 457.724 457.7 480 430.222 480H81.778C54.3 480 32 457.724 32 430.222V81.778C32 54.276 54.3 32 81.778 32h348.444C457.7 32 480 54.276 480 81.778zM223.246 340.05c2.589 9.159 11.175 15.506 20.932 15.506h.074c14.834 0 25.312-14.137 20.633-27.851l-52.341-152.793c-3.783-11.026-14.386-18.468-26.332-18.468h-.025c-11.972 0-22.575 7.467-26.333 18.518l-52.067 152.967c-4.63 13.614 5.774 27.627 20.483 27.627 9.707 0 18.219-6.297 20.807-15.407l7.218-25.361h59.733l7.218 25.262zm-37.134-129.721l20.26 70.983h-40.52l20.26-70.983zm113.095-3.908c-10.279.523-18.318 8.512-18.318 18.169v110.557c0 11.274 9.731 20.409 21.753 20.409 12.021 0 21.753-9.135 21.753-20.409v-86.24c4.405-7.143 10.528-10.727 18.393-10.727 7.043 0 11.971 1.866 14.784 5.624 2.812 3.759 4.206 9.782 4.206 18.12v73.223c0 11.274 9.731 20.409 21.753 20.409 12.071 0 21.802-9.135 21.802-20.409v-76.061c-.821-35.367-15.481-51.694-43.978-51.694-15.83 0-28.647 4.38-38.479 15.879-.672-9.955-9.781-17.547-20.408-16.999l-3.261.149z"/></svg>