<svg xmlns="http://www.w3.org/2000/svg" class="vicon" viewBox="0 0 512 512"><path d="M400.928 39H111.072A79.072 79.072 0 0032 118.072v275.875a79.072 79.072 0 0079.072 79.072h289.856A79.074 79.074 0 00480 393.928V118.053A79.073 79.073 0 00400.928 39zm-60.667 122.005c-4.517 0-6.794-3.378-8.213-8.194-4.797-18.107-11.013-23.464-14.691-23.464-3.677 0-9.333 6.794-15.549 20.906a360.157 360.157 0 00-18.797 55.888l32.33-.037c2.054 5.227.187 11.2-4.442 14.411H278.96c-10.453 35.056-19.245 68.842-29.717 101.92a180.62 180.62 0 01-20.627 47.786 58.694 58.694 0 01-46.368 24.864c-14.429 0-28.56-6.776-28.56-21.765.672-9.389 7.915-16.987 17.248-18.107a8.6 8.6 0 014.61 1.13 8.6 8.6 0 013.305 3.406c7.074 12.731 13.85 20.067 16.968 20.067 3.098 0 5.656-4.237 10.733-22.605l37.109-136.678-26.693-.037a12.784 12.784 0 014.237-14.448h26.563a245.773 245.773 0 0119.563-48.16 70.667 70.667 0 0161.077-40.973c21.205 0 29.96 10.173 29.96 23.184a21.352 21.352 0 01-18.107 20.906z"/></svg>