<svg xmlns="http://www.w3.org/2000/svg" class="vicon" viewBox="0 0 512 512"><path d="M430.222 32H81.778C54.4 32 32 54.4 32 81.778v348.444C32 457.6 54.4 480 81.778 480h348.444C457.6 480 480 457.6 480 430.222V81.778C480 54.4 457.6 32 430.222 32zM200.996 188.85H173.22v62.521h27.776c18.517 0 23.146-13.888 23.146-30.091.025-16.228-6.919-32.43-23.146-32.43zm0 94.926H173.22v51.122c0 11.399-9.259 20.658-20.658 20.658h-.349c-11.399 0-20.657-9.259-20.657-20.658V177.102c0-11.399 9.258-20.658 20.657-20.658h46.493c57.891 0 64.835 53.263 64.835 64.836-.025 46.293-32.43 62.496-62.545 62.496zm175.342-37.732c-1.842-.199-11.773-1.169-13.714-1.169-15.854 0-20.956 10.005-22.898 14.883v75.14c0 11.399-9.258 20.658-20.658 20.658h-.099c-11.399 0-20.658-9.259-20.658-20.658V224.516c0-10.105 8.189-18.294 18.293-18.294h3.56c9.607 0 17.596 7.442 18.243 17.049v.025c3.111-6.322 11.424-19.986 26.98-19.986 6.819 0 10.005 1.319 11.374 1.892l-.423 40.842z"/></svg>