<svg xmlns="http://www.w3.org/2000/svg" class="vicon" viewBox="0 0 512 512"><path d="M215.867 189.573c-6.907-2.8-14.374-3.92-22.027-3.733-4.853 0-9.147 0-12.693.187-3.734-.187-6.347 0-7.654.186v62.72c2.614.187 5.04.374 7.28.374h9.894c7.28 0 14.56-1.12 21.466-3.36 5.974-1.68 11.2-5.227 15.307-9.894 3.92-4.666 5.787-11.013 5.787-19.226.186-5.787-1.307-11.574-4.294-16.614-3.173-4.853-7.653-8.586-13.066-10.64zM400.667 38H111.333C67.467 38 32 73.467 32 117.333v278.115c0 43.867 35.467 79.333 79.333 79.333h289.334c43.866 0 79.333-35.466 79.333-79.333V117.333C480 73.467 444.533 38 400.667 38zM262.701 255.467c-7.448 10.453-17.901 18.293-30.034 22.773-12.694 4.667-26.694 6.347-42 6.347-4.48 0-7.467 0-9.334-.187-1.866-.187-4.48-.187-8.026-.187v59.902c.186 1.306-.747 2.445-2.054 2.632H135.04c-1.493 0-2.24-.766-2.24-2.446V152.24c0-1.307.56-2.053 1.867-2.053 3.173 0 6.16 0 10.453-.187 4.48-.187 9.147-.187 14.187-.373 5.04-.187 10.453-.187 16.24-.374 5.786-.186 11.386-.186 16.986-.186 15.307 0 28 1.866 38.454 5.786 9.333 3.174 17.92 8.4 25.013 15.307 5.973 5.973 10.64 13.253 13.627 21.28 2.781 7.84 4.274 15.867 4.274 24.267.019 16.053-3.714 29.306-11.2 39.76zm132.366 72.613a47.173 47.173 0 01-20.907 16.632c-9.147 3.901-20.347 5.936-33.805 5.936-8.568 0-16.987-.728-25.368-2.408-6.534-1.139-13.067-3.173-19.04-5.973-1.307-.728-2.259-2.035-2.072-3.528v-32.48c0-.542.205-1.307.765-1.68.541-.374 1.12-.187 1.68.186 7.28 4.294 14.933 7.299 23.147 9.147 7.074 1.867 14.541 2.8 22.026 2.8 7.094 0 12.134-.952 15.494-2.632 2.986-1.307 5.04-4.48 5.04-7.84 0-2.632-1.494-5.04-4.48-7.467-2.987-2.408-9.128-5.208-18.275-8.792-9.52-3.36-18.275-7.84-26.507-13.421-5.786-4.125-10.621-9.52-14.205-15.867-2.968-5.973-4.461-12.506-4.275-19.058 0-8.027 2.24-15.68 6.366-22.587 4.666-7.467 11.554-13.44 19.581-17.173 8.755-4.462 19.768-6.515 33.021-6.515 7.654 0 15.494.56 23.147 1.68 5.6.747 11.013 2.24 16.053 4.293.728.187 1.494.934 1.867 1.68.187.747.373 1.494.373 2.24v30.427c0 .747-.373 1.493-.933 1.867-1.68.373-2.613.373-3.36 0-5.6-2.987-11.573-5.04-17.92-6.347-6.907-1.493-13.813-2.427-20.907-2.427-3.733-.186-7.653.374-11.218 1.307-2.408.56-4.48 1.867-5.787 3.733-.933 1.494-1.493 3.36-1.493 5.04 0 1.68.746 3.36 1.885 4.854 1.68 2.053 3.901 3.733 6.347 5.04 4.274 2.24 8.773 4.293 13.234 6.16 10.099 3.36 19.806 8.026 28.766 13.626 6.16 3.902 11.2 9.147 14.728 15.494a40.176 40.176 0 014.293 19.208c.205 8.792-2.408 17.546-7.261 24.845z"/></svg>