<svg xmlns="http://www.w3.org/2000/svg" class="vicon" viewBox="0 0 512 512"><path d="M156.88 189.2c-8.027-2.427-16.24-3.733-24.64-3.547-3.733 0-6.907 0-9.52.187-2.613 0-5.6.187-8.773.373V310.72c2.053 0 3.92 0 5.786.187 1.68.186 3.547.186 5.227.373 1.867.205 3.92.205 6.16.205 8.587.187 17.173-1.306 25.387-4.274 7.466-2.632 14-6.926 19.6-12.712 5.6-5.955 9.893-13.067 12.506-20.72 2.987-8.942 4.48-18.48 4.48-28 .187-8.96-1.306-17.92-4.293-26.32-5.227-14.579-16.987-25.779-31.92-30.259zM400.667 38H111.333C67.467 38 32 73.467 32 117.333v278.134c0 43.866 35.467 79.333 79.333 79.333h289.334c43.866 0 79.333-35.467 79.333-79.333V117.333C480 73.467 444.533 38 400.667 38zm-172.48 245.093c-3.547 10.472-8.96 20.16-16.054 28.766-6.533 7.84-14.373 14.541-22.96 19.954-8.4 5.227-17.733 9.128-27.44 11.76-9.333 2.427-19.04 3.734-28.746 3.734h-21.094c-7.466 0-14.56 0-20.906-.206-6.534-.186-11.387-.186-14.56-.373-1.307 0-1.867-1.139-1.867-2.987V152.613c-.187-1.12.747-2.24 1.867-2.426h.186c2.8-.187 7.094-.374 12.507-.374 5.6-.186 11.947-.186 19.413-.373 7.467-.187 15.307-.187 23.707-.187 22.773 0 41.813 4.107 56.747 12.32a81.865 81.865 0 0133.786 33.787c7.467 14.373 11.2 30.8 11.2 49.467.187 13.066-1.68 25.946-5.786 38.266zm175.84 60.48c-.187.747-.542 1.494-1.12 2.035 0 .952-.747 1.307-1.699 1.139H366.32c-.747.186-1.68-.187-2.24-.747-.56-.747-.933-1.475-1.12-2.24-3.547-14.933-6.552-28.373-8.96-39.76-2.427-11.573-4.48-21.28-5.973-29.288-1.494-8.045-2.8-14.765-3.902-20.347-.952-5.6-1.885-10.266-2.445-14.186h-.187c-1.866 8.213-3.528 16.24-5.226 23.893-1.475 7.653-3.36 15.493-5.227 23.333-1.867 7.84-3.901 16.427-6.347 25.76-2.221 9.334-4.853 19.6-7.653 30.614-.373 2.053-1.288 2.986-2.987 2.986h-34.906c-.952.187-1.867-.186-2.632-.541-.542-.579-.934-1.307-1.307-2.053L238.827 199.84c-.56-1.68.186-2.427 2.24-2.427h35.28c1.68 0 2.632.56 2.8 1.867 3.714 16.427 6.888 30.613 9.333 42.56 2.427 11.947 4.48 22.027 5.787 30.408 1.306 8.4 2.613 15.307 3.546 20.552.934 5.227 1.68 9.725 2.222 13.067h.578c.374-2.987.728-5.806 1.288-8.792.747-3.528 1.68-8.195 2.782-14 1.138-5.787 2.445-12.507 4.125-20.347 1.68-7.84 3.528-16.8 5.805-27.253 2.035-10.267 5.04-22.027 8.568-35.28 0-.747.392-1.68.766-2.427.186-.373.914-.56 2.034-.56h36.587c1.12 0 1.68.747 1.885 2.053 3.174 13.627 5.787 25.574 8.027 35.84a2597.492 2597.492 0 005.6 27.44c1.493 7.84 2.781 14.747 3.547 20.347.728 5.805 1.68 10.472 2.408 14.373.578 3.174 1.138 6.347 1.306 9.539h.56c.934-3.733 1.68-8.213 2.427-13.253.747-5.059 1.68-10.64 2.987-16.987a1380.06 1380.06 0 013.92-20.907c1.288-7.653 3.173-16.053 5.226-25.573 2.035-9.333 4.294-19.6 6.888-30.613.392-1.68 1.139-2.427 2.446-2.427h32.666c1.68 0 2.222.933 1.867 2.613l-40.301 143.92z"/></svg>