<svg xmlns="http://www.w3.org/2000/svg" class="vicon" viewBox="0 0 512 512"><path d="M323.562 242.574v26.838a8.962 8.962 0 01-8.974 8.96H198.066a8.965 8.965 0 01-8.291-5.528 8.962 8.962 0 01-.683-3.432v-26.838a8.962 8.962 0 018.974-8.96h116.522a8.965 8.965 0 018.291 5.528 8.962 8.962 0 01.683 3.432zm-67.242 80.668c-29.904 0-29.904 44.758 0 44.758s29.904-44.758 0-44.758zm58.254-156.856H198.052a8.959 8.959 0 00-8.974 8.974v26.894a8.959 8.959 0 008.974 8.974h116.522a8.959 8.959 0 008.974-8.974V175.36a8.959 8.959 0 00-8.974-8.974zm150.066-59.794l-32.018 275.03L255.886 480 79.36 381.622 48 106.592 255.886 32l208.754 74.592zm-118.706 41.846a26.879 26.879 0 00-26.922-26.824H193.614a26.878 26.878 0 00-26.922 26.824v215.11a26.879 26.879 0 0026.922 26.824h125.398a26.878 26.878 0 0026.922-26.824v-215.11z"/></svg>