<svg xmlns="http://www.w3.org/2000/svg" class="vicon" viewBox="0 0 512 512"><path d="M358.009 156.632c9.51-9.461 9.51-24.878 0-34.338L323.02 87.305l.05.05c-9.26-9.26-25.178-25.178-47.702-47.652-10.612-10.362-27.781-10.262-38.293.25L39.958 236.92a26.95 26.95 0 000 38.242l197.067 196.917a27.101 27.101 0 0038.293 0l82.641-82.591c9.51-9.46 9.51-24.877 0-34.338a24.378 24.378 0 00-34.388 0l-62.569 62.669c-2.603 2.603-6.658 2.603-9.26 0L94.318 260.546c-2.603-2.603-2.603-6.657 0-9.26L251.692 94.013c.2-.2.45-.35.65-.551 2.603-2.052 6.207-1.852 8.61.55l62.669 62.62c9.51 9.51 24.927 9.51 34.388 0zm-154.02 100.41a53.135 53.135 0 0015.584 37.589 53.237 53.237 0 0037.625 15.57 53.237 53.237 0 0037.624-15.57 53.135 53.135 0 0015.584-37.589 53.138 53.138 0 00-15.584-37.589 53.236 53.236 0 00-37.624-15.569 53.236 53.236 0 00-37.625 15.569 53.138 53.138 0 00-15.584 37.589zm268.396-19.321l-61.518-61.218c-9.511-9.46-24.928-9.46-34.388.051a24.222 24.222 0 00-5.279 26.464 24.216 24.216 0 005.279 7.873l41.546 41.496c2.603 2.603 2.603 6.657 0 9.26l-40.945 40.895a24.229 24.229 0 00-5.28 26.465 24.218 24.218 0 005.28 7.873 24.378 24.378 0 0034.388 0l60.967-60.917a26.995 26.995 0 00-.05-38.242z"/></svg>