<svg xmlns="http://www.w3.org/2000/svg" class="vicon" viewBox="0 0 512 512"><path d="M316.5 91.694a473.5 473.5 0 00-12.32 19.787l-.747 1.157a829.352 829.352 0 00-23.614 42.747 945.202 945.202 0 00-10.77 21.392l42.317-4.667c12.32-5.637 17.827-10.789 23.184-18.218a288.04 288.04 0 004.294-6.384 275.928 275.928 0 0012.376-21.654c3.677-7.205 6.906-14.317 9.426-20.72 1.55-4.107 2.8-7.877 3.696-11.2a106.74 106.74 0 001.867-8.4c-16.501 2.8-36.68 5.507-49.803 6.16h.094zm-47.675 85.55l-1.438 2.986c-1.456 2.987-2.93 5.974-4.405 9.11-1.605 3.36-3.211 6.795-4.853 10.304l-2.464 5.357a1405.095 1405.095 0 00-26.638 61.601 1582.716 1582.716 0 00-9.203 22.96c-2.8 7.093-5.544 14.28-8.4 21.728l-.373 1.12c-2.8 7.392-5.6 14.971-8.456 22.773l-.187.504 13.44-1.493a3.995 3.995 0 01-.784-.112c16.11-1.979 37.521-14 51.334-28.878 6.384-6.85 12.171-14.933 17.547-24.378 3.976-7.038 7.709-14.84 11.274-23.483 3.136-7.56 6.123-15.736 8.961-24.603-3.659 1.96-7.897 3.36-12.563 4.387-1.679.393-3.381.68-5.096.858 15.045-5.786 24.528-16.893 31.416-30.613a52.57 52.57 0 01-18.07 7.989c-1.12.224-2.165.411-3.248.56l-.802.112h.037c5.189-2.202 9.595-4.629 13.403-7.522a48.017 48.017 0 0011.891-13.03l1.176-1.941 1.437-2.875a151.353 151.353 0 006.851-15.867l.56-1.642a56.825 56.825 0 002.296-8.643c-.553.45-1.139.855-1.755 1.213-4.536 2.707-12.32 5.171-18.592 6.347l12.376-1.381-12.395 1.362h-.317l-1.867.318c.112-.056.187-.112.318-.15l-42.281 4.667-.242.411.112-.056zm-67.649 161.841a2166.668 2166.668 0 00-6.626 18.517l-.094.28c-.298.859-.597 1.755-.933 2.651-1.493 4.237-2.8 8.064-5.787 16.8 4.928 2.24 8.867 8.12 12.6 14.803a26.882 26.882 0 00-8.698-18.481c24.136 1.12 44.986-5.04 55.813-22.717a54.581 54.581 0 002.614-5.003c-4.854 6.216-11.014 8.848-22.401 8.214 0 0-.074 0-.093.037l.075-.037c16.8-7.542 25.275-14.747 32.741-26.75 1.755-2.856 3.472-5.973 5.227-9.389-14.709 15.12-31.771 19.413-49.728 16.147l-13.44 1.456a121.208 121.208 0 00-1.251 3.416l-.019.056zM334.644 34.107c-7.019 4.144-18.667 15.867-32.63 32.91L314.82 91.17c8.96-12.824 18.106-24.397 27.29-34.272l1.083-1.157c-.373.373-.747.747-1.064 1.157-2.987 3.285-12.021 13.814-25.667 34.776 13.123-.653 33.302-3.36 49.766-6.16 4.891-27.44-4.816-39.984-4.816-39.984s-12.32-19.973-26.806-11.387l.038-.037zm-57.569 119.505a751.501 751.501 0 0124.379-42.187l.747-1.195a570.985 570.985 0 0112.637-19.04l-12.787-24.136-2.93 3.584a554.491 554.491 0 00-11.443 14.747 743.978 743.978 0 00-37.632 55.44l-.411.709 16.67 32.91c3.546-7.056 7.093-14.038 10.733-20.87l.037.038zm-69.627 155.307c2.95-7.579 5.955-15.12 9.016-22.867 2.912-7.354 5.974-14.746 9.035-22.213a1700.181 1700.181 0 0129.867-67.275l3.827-7.915c2.24-4.536 4.424-9.053 6.72-13.515.078-.269.205-.522.373-.746l-16.707-32.91-.821 1.307a824.263 824.263 0 00-11.518 19.451 711.152 711.152 0 00-20.384 38.08l-1.754 3.603a458.596 458.596 0 00-23.483 57.624 345.136 345.136 0 00-9.707 37.277l16.726 33.041c2.184-5.918 4.48-11.91 6.794-17.977l2.016-4.965zm-25.685-8.885a249.832 249.832 0 00-4.368 31.584c0 .373-.075.747-.093 1.12-5.227-8.4-19.227-16.576-19.153-16.502 10.024 14.523 17.622 28.934 18.761 43.121-5.414 1.082-12.769-.504-21.281-3.64 8.867 8.138 15.494 10.378 18.107 10.976-8.101.56-16.613 6.122-25.125 12.506 12.469-5.04 22.586-7.093 29.792-5.413C167.016 406.266 155.443 442.013 144 480a10.039 10.039 0 006.795-6.608c2.053-6.869 15.68-52.006 36.923-111.347l1.81-5.04.523-1.456c2.24-6.198 4.592-12.544 6.981-19.04l1.68-4.424v-.075l-16.762-33.059c-.056.373-.187.747-.224 1.12l.037-.037z"/></svg>