<svg xmlns="http://www.w3.org/2000/svg" class="vicon" viewBox="0 0 512 512"><path d="M312.397 344.408h48.353l-77.188-200.322h-53.46l-77.187 200.322h48.355l12.614-33.932h72.932l-13.202-37.548h-48.02l31.237-86.195 55.566 157.675zm159.446-148.314a11.616 11.616 0 00-9.795-8.439 11.61 11.61 0 00-4.528.342 11.634 11.634 0 00-8.099 14.32A200.643 200.643 0 01456.732 256c0 110.684-90.048 200.728-200.732 200.728S55.27 366.684 55.27 256c0-110.686 90.046-200.732 200.73-200.732 46.888 0 92.257 16.656 128.063 46.298a27.885 27.885 0 00-2.166 10.803c0 15.461 12.533 27.995 27.995 27.995 15.461 0 27.994-12.534 27.994-27.995 0-15.462-12.533-27.995-27.994-27.995a27.96 27.96 0 00-8.534 1.335C361.038 51.348 309.398 32 256 32 132.487 32 32 132.485 32 256c0 123.513 100.487 223.998 224 223.998S480 379.513 480 256a223.892 223.892 0 00-8.157-59.906z"/></svg>