<svg xmlns="http://www.w3.org/2000/svg" class="vicon" viewBox="0 0 512 512"><path d="M255.958 32c-19.945 48.888-31.972 80.868-54.178 128.301 13.615 14.429 30.325 31.231 57.465 50.208-29.178-12.004-49.079-24.056-63.953-36.561C166.872 233.236 122.353 317.688 32 480c71.013-40.988 126.061-66.26 177.363-75.903a129.906 129.906 0 01-3.371-30.411l.086-2.275c1.127-45.486 24.794-80.465 52.829-78.092 28.035 2.374 49.827 41.198 48.702 86.686-.213 8.557-1.179 16.793-2.866 24.43C355.489 414.358 409.948 439.564 480 480c-13.813-25.426-26.142-48.346-37.915-70.175-18.547-14.371-37.891-33.075-77.351-53.322 27.122 7.043 46.542 15.172 61.677 24.26C306.703 157.926 297.009 128.316 255.958 32z"/></svg>