<svg xmlns="http://www.w3.org/2000/svg" class="vicon" viewBox="0 0 512 512"><path d="M414.464 200.615c-40.75-17.361-95.501-28.561-154.003-31.641-9.334-.56-18.425-.747-27.067-.747 43.27-52.827 89.639-88.295 120.159-89.415 6.011-.242 11.107 1.027 15.176 3.659 13.179 8.55 16.894 33.003 10.174 67.015-.747 4.666 2.24 9.202 6.72 10.08a8.531 8.531 0 0010.08-6.72c8.4-42.561 2.24-71.794-17.547-84.711-7.093-4.63-15.68-6.814-25.2-6.459-38.268 1.437-92.215 42.934-141.683 106.775-21.542.654-41.814 2.427-60.332 5.358-12.058-54.079-7.28-92.906 11.089-102.24 2.576-1.362 5.32-2.053 8.53-2.314 13.011-1.008 30.988 7.373 50.588 23.707 3.621 2.987 9.072 2.613 12.059-1.12a8.556 8.556 0 001.934-6.252 8.55 8.55 0 00-3.054-5.788c-23.521-19.47-45.212-28.99-62.945-27.684a41.893 41.893 0 00-14.99 4.107c-22.214 11.331-31.174 43.438-25.574 90.311 1.307 9.707 2.987 19.825 5.414 30.241-61.247 12.245-100.26 36.774-101.94 67.649-1.12 21.84 16.146 42.635 50.027 60.145a8.577 8.577 0 006.786.923 8.583 8.583 0 006.237-7.705 8.59 8.59 0 00-5.183-8.45c-27.067-13.944-41.627-29.643-40.75-44.017.933-20.16 33.078-40.881 88.855-51.894 5.04 18.555 11.573 37.931 19.6 57.681-19.003 35.243-32.779 69.945-39.891 100.802-10.454 46.014-4.854 78.774 16.053 92.364 6.721 4.368 14.561 6.534 23.278 6.534 17.454 0 38.585-8.587 62.479-25.612a8.541 8.541 0 003.757-5.568 8.553 8.553 0 00-3.932-8.905 8.537 8.537 0 00-6.647-.974 8.535 8.535 0 00-3.072 1.522c-28.822 20.59-53.089 27.478-66.492 18.723-14.187-9.24-17.285-36.27-8.587-74.22 5.974-25.873 16.931-54.695 31.884-84.375a714.137 714.137 0 0011.76 24.51c26.6 52.193 59.174 97.572 91.655 127.775 25.872 24.081 49.916 36.644 69.721 36.644 6.534 0 12.694-1.4 18.219-4.163 21.374-10.92 30.614-41.254 26.097-85.402-4.182-41.31-19.787-91.655-43.942-141.869a8.591 8.591 0 00-11.34-3.833 8.586 8.586 0 00-4.154 11.225c50.214 104.573 53.761 190.217 25.574 204.591-29.681 15.176-101.25-43.961-156.616-152.696-6.347-12.227-11.891-24.268-16.801-36.028 6.347-11.349 13.067-22.774 20.441-34.16a616.425 616.425 0 0122.848-32.574h7.355c10.08 0 21.019.186 32.368.896 121.896 6.402 204.871 47.787 203.172 80.902-.746 14.281-17.248 28.71-45.267 39.575a8.659 8.659 0 00-4.854 11.125 8.496 8.496 0 007.778 5.485 8.501 8.501 0 003.292-.594c35.56-13.814 55.068-32.779 56.188-54.695 1.306-24.827-21.841-48.72-65.335-67.201v-.186l-.149-.112zm-231.77 7.933c-5.04 7.747-9.707 15.438-14.262 23.222a441.731 441.731 0 01-13.496-41.348c13.31-2.053 27.721-3.546 43.121-4.48a507.577 507.577 0 00-15.307 22.587v-.186l-.056.205zm73.268 21.934a25.664 25.664 0 00-25.667 25.667 25.664 25.664 0 0025.667 25.667 25.664 25.664 0 0025.667-25.667 25.664 25.664 0 00-25.667-25.667z"/></svg>