<svg xmlns="http://www.w3.org/2000/svg" class="vicon" viewBox="0 0 512 512"><path d="M115.375 122.201c-20.31 0-40.93 7.919-44.364 12.25-.896 1.792-2.974 16.276 1.954 16.276 1.642 0 2.396.286 7.175-1.954 17.92-7.019 29.275-6.855 30.918-6.855 20.161-1.941 31.806 11.805 30.013 29.576v10.442c-17.024-4.032-26.751-4.171-31.53-4.171-24.79-1.493-47.69 11.577-47.69 40.31 0 31.511 28.126 38.249 39.027 37.801 16.278.15 31.814-7.169 42.119-19.863 8.213 18.369 13.442 17.151 13.592 17.151 1.493 0 2.684-.595 3.879-1.342l8.517-5.979c1.493-.896 2.68-2.379 2.829-4.171-.149-4.331-7.918-11.051-7.321-26.135v-46.58c.896-12.844-3.268-25.411-11.929-35.118-10.305-8.662-23.898-12.833-37.189-11.638zm289.315 0c-29.868 0-47.029 18.66-46.581 37.626 0 25.985 26.268 34.222 29.255 35.118 25.238 7.915 28.682 8.202 35.701 14.176 5.974 6.122 5.224 18.078-3.587 23.305-2.539 1.493-13.453 8.052-38.094 2.975-8.213-1.643-12.53-3.58-19.25-6.417-1.792-.598-5.98-1.646-5.98 3.879v7.321c0 3.435 2.085 6.557 5.221 8.051 15.681 7.914 34.499 8.225 38.531 8.225.597 0 34.936.018 46.435-23.159 2.375-4.779 8.524-22.226-2.975-37.16-9.558-11.2-17.773-12.396-42.264-19.863-2.091-.598-20.159-5.245-20.009-17.938-.896-16.278 21.213-17.158 25.842-16.859 18.668-.299 27.912 6.698 32.989 7.146 2.24 0 3.296-1.33 3.296-4.317v-6.884c.149-1.642-.446-3.264-1.342-4.608-5.973-7.766-28.826-10.617-37.188-10.617zm-226.692 3.733c-1.643.299-2.836 1.945-2.538 3.588.299 1.941.595 3.892 1.342 5.833l33.455 110.342c.747 3.584 3.115 7.481 8.342 6.884h12.251c7.467.746 8.513-6.429 8.663-7.176l21.963-91.995 22.255 92.141c.149.747 1.199 7.922 8.517 7.175h12.396c5.376.598 7.916-3.299 8.663-6.883 37.633-121.114 35.082-112.881 35.38-114.075.598-6.272-2.99-5.837-3.587-5.688h-13.301c-6.72-.747-8.043 5.39-8.342 6.884l-24.792 95.728-22.401-95.728c-1.045-7.318-7.024-7.033-8.517-6.884h-11.492c-6.571-.597-8.215 4.644-8.663 6.884l-22.255 94.386-23.888-94.386c-.598-2.987-2.547-7.627-8.371-7.03h-15.08zm-63.528 69.157c10.753.149 20.034 1.773 26.456 3.267 0 7.467.271 11.655-1.371 18.375-2.091 7.169-11.331 20.177-33.135 20.476-12.544.597-20.756-9.275-20.009-20.476-.747-17.92 17.755-22.389 28.059-21.642zm336.275 91.266c-13.939.194-30.391 3.316-42.876 12.075-3.853 2.673-3.178 6.385 1.108 5.892 14.038-1.687 45.283-5.476 50.869 1.663 5.6 7.138-6.193 36.588-11.405 49.76-1.613 3.927 1.797 5.553 5.396 2.567 23.357-19.564 29.426-60.575 24.647-66.474-2.397-2.949-13.8-5.677-27.739-5.483zM35.222 301.291c-3.257.448-4.66 4.575-1.255 7.846 58.496 54.867 135.792 81.728 221.617 81.728 61.214 0 132.278-19.973 181.336-57.607 8.109-6.257 1.201-15.633-7.117-11.929-55.002 24.267-114.74 35.964-169.115 35.964-80.583 0-158.593-16.824-221.704-55.04-1.381-.836-2.677-1.112-3.762-.962z"/></svg>