<svg xmlns="http://www.w3.org/2000/svg" class="vicon" viewBox="0 0 512 512"><path d="M208.688 53.07c-13.297 9.777-28.55 19.359-45.563 28.745l.196 2.933c1.173 0 2.542-.782 4.498-1.76 1.955-.195 3.129.587 3.129 2.542l3.128-1.76 1.564-.195.196 1.37c.195 1.368-10.559 9.776-31.874 24.833l1.759 2.738-1.564.195-3.324-1.172c0 .977-1.369 1.564-4.498 1.759l.195 1.565 3.521 3.911c-1.173 0-2.738-.196-4.693-.978-6.844.586-13.689 5.671-20.338 15.057l1.761 2.738c5.866-5.28 9.19-8.018 10.167-8.018l.392 4.303c-.978 0-2.543.782-4.497 1.759l3.715 5.476c7.039-7.627 14.666-14.08 23.27-19.359 4.302 1.172 6.453 2.346 6.453 3.911l3.129-.196c22.879-17.013 45.563-29.137 68.05-36.763l.196 2.933c-4.106 6.258-7.04 9.387-8.604 9.582.196 2.151.978 3.911 2.151 5.671.391 3.911-9.777 29.527-30.506 77.241C143.375 292.81 103.875 374.55 72 427.739c0 .978.782 2.542 1.76 4.303 7.822-1.956 12.906-3.716 15.057-5.671l1.76-.196.195 2.933 2.934-.195 3.128-1.76c0 .977 1.174 1.369 3.13 1.173l.195 2.934c.195 2.933-1.37 7.43-5.084 13.492-3.325 3.715-6.649 11.342-10.365 22.88l.196 1.368 2.933-.195c12.711-14.276 22.488-28.355 29.138-42.044 37.348-10.95 65.704-21.705 85.453-32.265 19.751-1.759 35.004-6.844 45.172-15.448l-.195-1.564-7.431 2.151-1.76.196-.196-1.565c14.471-2.151 24.64-5.476 30.115-9.777 28.354-21.901 49.668-37.35 64.139-46.541 44.781-32.851 65.9-64.531 63.358-94.645-.196-3.129-10.169-15.448-29.528-36.958-.391-4.107 6.453-9.973 20.142-17.795l38.914-34.221c8.603-11.147 13.883-29.137 15.643-53.971l-.586-5.867c-1.565-17.404-14.079-31.483-37.937-42.238C388.201 26.67 362.975 21.586 326.603 21c-29.919 2.737-69.419 13.297-117.915 32.07zm209.627 2.541l-1.173 2.934-43.411-18.186c28.94 1.173 43.802 6.258 44.584 15.252zM242.713 176.07c2.933-16.035 6.257-25.226 9.973-27.377l32.46-72.939c-.391-4.497 6.454-8.017 20.728-10.364l4.694-.391.391 4.107c14.079-2.152 22.684-3.325 26.008-3.716 25.812-2.151 39.109 2.934 40.282 15.645l2.934-.196-.586-7.432 3.128-.195c7.626 4.107 11.733 9.191 12.124 15.252.391 4.108-1.76 9.191-6.649 15.253-1.955.196-3.129-1.172-3.325-4.106l-3.128.195-.782 8.8c-13.102 19.555-22.488 29.528-28.354 30.115-5.281 7.235-8.605 10.95-9.974 11.146-4.106 4.888-15.253 13.297-33.635 25.03-6.061.586-28.549 9.191-67.463 26.204-1.955-.979-3.911-1.174-6.257-.979l-.196-2.737c-.391-5.671 1.956-12.711 7.627-21.315zm179.709-89.951l.196 2.737c-1.565.195-4.498-4.498-8.8-13.884l-.196-2.738c2.739-.391 5.671 4.302 8.8 13.885zm-285.501 34.807l.196 1.368c-.977 0-2.541.783-4.497 1.76l-1.565.196-.196-2.738 6.062-.586zm94.451-2.347l.391 4.303c-1.37.195-3.325 2.15-5.671 6.257l-.196-2.933c2.739-3.325 4.106-5.867 4.106-7.627h1.37zM216.9 149.083l.586 5.866-1.563.195-.587-5.865 1.564-.196zm-3.715 10.559c-.391 4.889-1.565 7.431-4.107 7.627l-1.564.196c1.76-3.325 2.738-5.671 2.542-7.432l3.129-.391zm-6.453 15.253l.195 1.369-2.737 4.693-2.934.196-.195-1.369c2.933-.196 4.302-1.76 4.106-4.693l1.565-.196zm-6.649 13.689l-.782 7.235-1.564.195-.587-7.235 2.933-.195zm158.589 5.279l6.453 3.911c.196 1.955-.781 3.129-2.737 3.325-2.738-1.76-4.889-2.542-6.453-2.542l-.391-4.303 3.128-.391zM234.5 210.485l.195 2.738-6.062.586-.195-2.738 6.062-.586zm100.12 10.168c4.302 1.956 6.453 3.911 6.648 5.476l.196 1.368c-4.106.391-7.822-1.759-11.342-6.453l4.498-.391zm-129.06 31.68c17.6-1.564 45.367-9.778 83.107-24.639l9.191-.782c19.165-1.564 33.439 1.955 42.826 10.951l.586 5.866c-7.04 20.336-14.861 32.069-23.27 35.785l-39.11 31.092c-29.136 19.164-44.78 28.746-47.127 28.941-46.345 25.617-75.285 38.719-86.432 39.696l-1.76.196c1.565-5.475 22.097-47.713 61.989-127.106zm42.238-16.622l.196 1.369-6.258.587-.195-1.369 6.257-.586v-.001zm140.403-6.257l.979 11.537c-1.369 3.129-2.738 4.693-4.303 4.693l-1.759-20.337c3.325 1.369 4.888 2.738 5.083 4.107zM150.219 330.356c-1.956 9.973-4.107 15.058-6.257 15.253l-.196-1.368c-.391-5.084 1.76-9.582 6.453-13.885zm39.11 55.145c11.341-2.151 42.434-18.577 93.472-48.887l.195 2.738c.196 1.173-4.302 4.889-13.102 11.341-26.007 12.711-41.26 21.511-45.758 26.008-28.159 9.778-42.043 15.84-41.847 18.186-25.03 9.973-41.456 17.208-49.278 21.706-1.76.196-4.497-.586-8.018-2.151-.391-5.084 1.76-9.191 6.845-12.515 4.302-.391 8.604.196 12.515 1.955 4.693-2.346 12.71-5.083 24.248-7.822l-.196-2.933-9.19.782c1.172-1.564 9.972-5.67 26.79-12.515l4.692-.391.196 1.369c-7.822.587-12.32 3.129-13.297 7.236.195 1.759 1.172 2.737 3.129 2.542 5.67-3.912 8.604-6.062 8.604-6.649zm-48.105-35.393l.196 1.368c.195 1.955-.782 3.128-2.739 3.324l-.195-1.369c-.195-1.76.782-2.933 2.739-3.324l-.001.001zm73.135 19.944c-3.715.391-10.559 3.325-20.924 9.191l-1.564.196-.195-2.934c7.43-.586 13.883-3.519 19.163-8.799 2.151-.391 3.325.587 3.52 2.346zm-75.873 21.12l4.693-.391.196 1.564c-1.173 0-2.542.782-4.498 1.76l-2.933.195c-.195-1.368.586-2.542 2.542-3.128zm-31.092 17.404l3.325 1.368c-1.174 8.8-3.716 13.298-8.214 13.689-3.52-1.564-6.648-2.151-9.581-1.956l-.391-4.302c-.196-1.759.782-2.737 2.933-3.324 1.955-.195 3.129 1.173 3.325 4.106 5.279-6.453 8.213-9.581 8.603-9.581z"/></svg>