<svg xmlns="http://www.w3.org/2000/svg" class="vicon" viewBox="0 0 512 512"><path fill-rule="evenodd" clip-rule="evenodd" d="M125.05 78c-25.562 0-44.477 22.374-43.63 46.637.813 23.311-.243 53.501-7.843 78.122-7.627 24.69-20.518 40.335-41.577 42.343v22.673c21.06 2.013 33.95 17.65 41.576 42.344 7.601 24.62 8.656 54.811 7.844 78.121-.847 24.26 18.067 46.638 43.634 46.638h261.93c25.562 0 44.473-22.374 43.626-46.638-.813-23.31.243-53.501 7.844-78.121 7.627-24.694 20.486-40.337 41.546-42.344v-22.673c-21.059-2.012-33.918-17.65-41.546-42.343-7.601-24.617-8.657-54.811-7.844-78.122.843-24.26-18.068-46.637-43.626-46.637H125.047h.003zm210.676 219.681c0 33.41-24.92 53.672-66.277 53.672h-70.4a7.592 7.592 0 01-7.593-7.593V169.118a7.592 7.592 0 017.593-7.593h69.999c34.485 0 57.116 18.679 57.116 47.358 0 20.129-15.225 38.15-34.621 41.307v1.05c26.404 2.896 44.183 21.183 44.183 46.441zm-73.953-112.086h-40.141v56.7h33.808c26.136 0 40.548-10.525 40.548-29.336 0-17.63-12.393-27.364-34.213-27.364h-.002zm-40.141 79.196v62.484h41.618c27.212 0 41.626-10.919 41.626-31.439s-14.818-31.048-43.376-31.048h-39.868v.003z"/></svg>