<svg xmlns="http://www.w3.org/2000/svg" class="vicon" viewBox="0 0 512 512"><path d="M324.467 32l39.125 44.427s34.347-9.558 50.568 6.682c16.203 16.24 29.568 30.576 29.568 30.576l-10.491 25.779 13.347 38.211s-39.275 148.96-43.867 167.16c-9.072 35.821-15.269 49.653-41.029 67.816a3482.25 3482.25 0 01-80.136 54.432c-7.635 4.778-17.173 12.917-25.76 12.917-8.587 0-18.107-8.139-25.76-12.917a3468.331 3468.331 0 01-80.136-54.432c-25.76-18.163-31.957-31.995-41.011-67.816-4.61-18.2-43.885-167.16-43.885-167.16l13.347-38.211-10.491-25.779s13.365-14.336 29.587-30.576c16.202-16.24 50.549-6.682 50.549-6.682L187.099 32h137.386-.018zm-68.675 278.805c-2.613 0-19.376 5.918-32.816 12.88-13.44 6.963-23.184 11.891-26.301 13.851-3.118 1.941-1.214 5.619 1.624 7.635 2.837 1.997 40.954 31.546 44.669 34.832 3.696 3.266 9.128 8.661 12.824 8.661 3.696 0 9.147-5.413 12.843-8.661 3.696-3.267 41.813-32.835 44.65-34.832 2.838-2.016 4.742-5.694 1.624-7.654-3.117-1.941-12.861-6.869-26.32-13.832-13.44-6.962-30.184-12.88-32.797-12.88zm0-210.522s-7.635.018-19.077 3.845c-11.443 3.827-23.856 8.587-29.568 8.587-5.731 0-48.179-8.102-48.179-8.102s-50.307 60.891-50.307 73.902c0 13.01 6.328 16.445 12.694 23.202l37.706 40.115c3.584 3.789 11.014 9.539 6.646 19.899-4.387 10.36-10.827 23.52-3.659 36.904 7.168 13.365 19.451 22.288 27.328 20.813 7.859-1.493 26.357-11.163 33.152-15.568 6.795-4.424 28.336-22.213 28.336-29.008 0-6.813-22.269-19.04-26.376-21.803-4.107-2.8-22.885-13.533-23.277-17.733-.374-4.237-.224-5.469 5.301-15.885 5.544-10.435 15.512-24.342 13.851-33.6-1.662-9.24-17.734-14.056-29.214-18.406-11.48-4.33-33.581-12.525-36.344-13.813-2.762-1.269-2.053-2.483 6.328-3.267 8.363-.802 32.088-3.957 42.784-.97 10.696 2.986 28.971 7.522 30.464 9.93 1.475 2.427 2.782 2.502 1.251 10.808-1.512 8.307-9.333 48.179-10.099 55.254-.746 7.093-2.24 11.76 5.376 13.514 7.635 1.755 20.478 4.779 24.883 4.779 4.405 0 17.248-3.024 24.883-4.779 7.616-1.736 6.141-6.421 5.376-13.496-.747-7.093-8.587-46.965-10.099-55.272-1.531-8.306-.224-8.4 1.251-10.808 1.493-2.408 19.768-6.944 30.464-9.93 10.696-2.987 34.44.168 42.784.97 8.381.784 9.09 1.998 6.328 3.267-2.763 1.288-24.864 9.483-36.344 13.813-11.48 4.35-27.552 9.147-29.214 18.406-1.68 9.258 8.307 23.165 13.851 33.6 5.544 10.416 5.675 11.648 5.301 15.866-.373 4.219-19.152 14.971-23.277 17.734-4.107 2.8-26.376 15.008-26.376 21.821 0 6.795 21.541 24.584 28.336 29.008 6.795 4.405 25.293 14.093 33.152 15.568 7.877 1.475 20.16-7.467 27.328-20.813 7.168-13.366.728-26.544-3.64-36.904-4.387-10.36 3.043-16.11 6.627-19.899l37.706-40.115c6.366-6.757 12.694-10.192 12.694-23.202 0-13.011-50.307-73.92-50.307-73.92s-42.448 8.138-48.16 8.138c-5.731 0-18.144-4.778-29.587-8.605-11.442-3.827-19.077-3.845-19.077-3.845z"/></svg>