<svg xmlns="http://www.w3.org/2000/svg" class="vicon" viewBox="0 0 512 512"><path d="M246.744 260.018c-2.254 4.886-4.662 10.29-7.224 16.03-9.03 20.342-18.942 45.136-22.61 61.04a92.468 92.468 0 00-2.114 20.482c0 3.066.224 6.272.434 9.562a118.384 118.384 0 0078.176 1.246 69.722 69.722 0 01-7.798-8.246c-15.974-20.342-24.794-50.078-38.864-100.114zm-58.786-100.856a118.59 118.59 0 00-36.999 42.276A118.596 118.596 0 00137.572 256a118.682 118.682 0 0013.017 53.781 118.682 118.682 0 0035.983 42.035c7.294-30.254 25.522-57.974 52.864-113.526-1.68-4.466-3.486-9.338-5.544-14.518-7.574-18.942-18.522-40.978-28.28-50.96a79.303 79.303 0 00-17.654-13.65zm171.206 232.68c-15.666-1.96-28.658-4.298-39.942-8.302a142.605 142.605 0 01-138.264-6.622 142.295 142.295 0 01-67.298-120.904c0-40.978 17.64-79.982 48.566-106.96a104.572 104.572 0 00-24.738-3.01c-41.776.378-85.806 23.478-104.202 85.904-1.68 9.03-1.232 15.89-1.232 24.066 0 123.746 100.254 224 224 224 75.754 0 142.632-37.632 183.162-95.242-21.854 5.474-43.008 8.106-61.026 8.176-6.776 0-13.118-.378-19.04-1.106h.014zm-42.07-43.386c1.4.658 4.536 1.834 8.834 2.982A118.353 118.353 0 00374.494 256a118.633 118.633 0 00-118.496-118.426c-12.614 0-25.158 2.058-37.184 6.048 24.066 27.342 35.658 66.584 46.816 109.382v.07c.07.07 3.64 11.872 9.688 27.622 6.048 15.68 14.728 35.224 24.136 49.378 6.202 9.534 12.978 16.338 17.64 18.368v.014zM255.998 32a223.444 223.444 0 00-182 93.562c21.154-13.202 42.728-18.018 61.614-17.864 26.026.07 46.438 8.162 56.28 13.706 2.408 1.302 4.662 2.842 6.874 4.312a142.374 142.374 0 01135.018 11.178 142.382 142.382 0 0164.538 119.12 142.183 142.183 0 01-42.378 101.29c6.426.728 13.272 1.162 20.272 1.078 24.808 0 51.632-5.474 71.68-22.302 13.118-11.088 24.136-27.272 30.184-51.478a216.714 216.714 0 001.904-28.574c0-123.746-100.254-224-224-224l.014-.028z"/></svg>