<svg xmlns="http://www.w3.org/2000/svg" class="vicon" viewBox="0 0 512 512"><path d="M340.164 346.735c2.754-9.461 1.695-18.12-2.899-24.554-4.192-5.907-11.284-9.315-19.814-9.716l-161.639-2.097a2.912 2.912 0 01-2.488-1.331c-.528-.784-.655-1.84-.392-2.899.519-1.568 2.096-2.77 3.801-2.915l163.07-2.097c19.322-.912 40.322-16.553 47.669-35.72l9.314-24.291c.402-1.047.547-2.106.275-3.136-10.5-47.531-52.92-82.979-103.598-82.979-46.74 0-86.397 30.197-100.569 72.079-9.197-6.828-20.882-10.5-33.488-9.314-22.448 2.221-40.441 20.216-42.674 42.664-.528 5.787-.129 11.439 1.186 16.688C61.275 278.159 32 308.108 32 345.004c0 3.263.265 6.562.657 9.843.263 1.55 1.576 2.754 3.153 2.754h298.319c1.697 0 3.282-1.204 3.793-2.899l2.24-7.967h.002zm51.461-103.85c-1.44 0-3.008 0-4.449.209-1.056 0-1.967.774-2.37 1.821l-6.306 21.923c-2.753 9.46-1.714 18.119 2.88 24.572 4.211 5.907 11.303 9.296 19.834 9.698l34.415 2.115c1.04 0 1.97.491 2.481 1.312.528.803.655 2.005.4 2.916-.529 1.568-2.113 2.772-3.808 2.899l-35.859 2.096c-19.432.911-40.286 16.552-47.65 35.728l-2.625 6.692c-.528 1.331.401 2.643 1.841 2.643h123.157c1.439 0 2.751-.913 3.154-2.352 2.095-7.62 3.28-15.624 3.28-23.899 0-48.58-39.667-88.237-88.375-88.237"/></svg>