<svg xmlns="http://www.w3.org/2000/svg" class="vicon" viewBox="0 0 512 512"><path d="M118.698 171.614c39.148 9.91 89.227 14.948 149.439 14.948 61.598 0 110.515-5.024 149.509-14.948 41.625-9.699 61.598-22.744 61.598-35.061 0-8.747-8.971-17.355-25.221-23.905 3.723 2.477 6.564 6.564 6.564 11.001 0 12.541-18.881 22.814-56.713 31.352-35.131 7.656-79.891 13.128-134.421 13.128-52.627 0-99.43-5.472-133.26-12.68-36.376-8.972-55.397-18.658-55.397-31.352 0-5.249 2.407-9.77 9.7-14.948-22.745 8.747-35.062 16.179-35.062 27.404 1.316 12.681 21.653 25.362 63.278 35.061h-.014zm87.477-40.309c42.423-3.723 54.74-30.988 104.385-35.425 24.424-1.89 39.876 2.995 41.555 11.589 1.526 8.02-10.637 13.409-25.375 14.5-20.337 2.114-28.721-5.178-30.4-12.107-15.088 1.68-17.566 8.02-16.768 12.471 1.68 8.608 19.903 17.202 51.325 14.22 35.425-2.771 47.377-16.767 44.396-30.764-3.723-18.293-30.988-33.605-79.891-28.944-62.69 5.612-62.326 34.697-105.043 38.266-17.565 1.68-27.265-2.477-28.944-9.336-1.092-6.928 7.432-10.273 17.565-11 9.336-.953 20.701.727 26.103 3.722 3.933-2.043 5.249-4.157 4.885-6.564-1.889-6.494-14.794-9.336-30.988-8.16-31.716 2.771-31.716 16.992-30.624 23.332 3.135 16.18 27.629 27.041 57.805 24.2h.014zm213.151 71.661c-39.218 9.182-89.227 15.158-149.509 15.158-61.528 0-111.747-6.34-150.755-14.948-35.061-8.972-53.732-18.881-60.283-29.084 3.36 22.884 9.182 45.124 16.628 66.189a91.918 91.918 0 00-24.27 21.876 84.215 84.215 0 00-19.02 57.875 67.067 67.067 0 0026.536 48.847c16.18 12.681 33.746 16.474 53.732 12.681 7.656-1.316 16.25-5.179 24.06-7.796-16.404 0-30.246-5.249-44.032-16.25A66.432 66.432 0 0164.56 312.39c-3.723-17.566 0-33.829 9.91-48.19 2.253-2.771 4.66-5.248 7.291-7.432a427.442 427.442 0 0018.294 39.512c15.088 22.968 30.246 42.941 45.348 64.593 6.564 12.681 10.791 25.222 13.772 37.692a72.57 72.57 0 0041.626 27.993 171.74 171.74 0 0066.846 9.546h2.408a190.33 190.33 0 0068.89-9.7 78.609 78.609 0 0040.309-27.853h1.316a158.828 158.828 0 0112.471-37.692c14.948-21.792 30.246-41.625 45.194-64.593A391.182 391.182 0 00480 174.232c-8.02 11.225-26.901 21.064-60.646 28.72l-.028.014z"/></svg>