<svg xmlns="http://www.w3.org/2000/svg" class="vicon" viewBox="0 0 512 512"><path d="M255.522 32c-6.962 0-13.924 1.75-20.125 5.25L71.353 129.429C58.8 136.467 51 149.668 51 163.821v184.358c0 14.153 7.799 27.354 20.353 34.392l164.044 92.179c6.201 3.5 13.163 5.25 20.125 5.25s13.924-1.75 20.125-5.25l164.043-92.141c12.555-7.076 20.353-20.277 20.353-34.43V163.821c0-14.153-7.798-27.354-20.353-34.392L275.647 37.25c-6.201-3.5-13.163-5.25-20.125-5.25zm0 107.13c36.826 0 70.875 17.082 92.94 46.147l-42.685 24.728c-12.82-14.038-31.043-22.179-50.255-22.179-37.587 0-68.174 30.587-68.174 68.174s30.587 68.174 68.174 68.174c19.212 0 37.435-8.141 50.255-22.179l42.685 24.728c-22.065 29.065-56.114 46.147-92.94 46.147-64.446 0-116.87-52.424-116.87-116.87s52.424-116.87 116.87-116.87zm97.391 68.174h19.478v19.479h19.479v-19.479h19.478v19.479h19.478v19.478h-19.478v19.478h19.478v19.478h-19.478v19.479H391.87v-19.479h-19.479v19.479h-19.478v-19.479h-19.478v-19.478h19.478v-19.478h-19.478v-19.478h19.478v-19.479zm19.478 38.957v19.478h19.479v-19.478h-19.479z"/></svg>