<svg xmlns="http://www.w3.org/2000/svg" class="vicon" viewBox="0 0 512 512"><path d="M108.622 108.647s94.318-47.13 141.467-70.724a57.473 57.473 0 0127.644-5.88c14.298.878 31.302 14.709 31.302 14.709l170.94 170.958v182.718h-79.571V480H214.718L46.728 312.009C37.655 302.676 32 289.517 32 276.638c0-5.954 3.36-15.269 5.898-20.626l70.724-147.365zm12.674 12.674v220.012c.038 10.135.392 19.114 9.296 28.148l91.872 91.853h159.274v-79.571L121.296 121.321zm225.015-12.655c-16.781-16.725-33.766-33.225-51.144-49.333-5.637-4.984-10.584-8.736-19.972-8.624-6.907.261-16.24 3.64-16.24 3.64l-108.596 54.298 195.952.019z"/></svg>