<svg xmlns="http://www.w3.org/2000/svg" class="vicon" viewBox="0 0 512 512"><path d="M256.018 480v-86.879c91.965 0 163.314-91.159 128.043-187.966a130.202 130.202 0 00-30.231-47.141 130.218 130.218 0 00-47.238-30.08c-96.78-35.025-187.983 36.079-187.983 128.045H32c0-146.58 141.734-260.88 295.435-212.862 67.024 21.064 120.625 74.42 141.465 141.467C516.877 338.264 402.57 480 256.018 480z"/><path d="M256.287 393.658h-86.609v-86.632h86.609v86.632zm-86.609 66.308h-66.307v-66.308h66.307v66.308zm-66.307-66.308H47.753v-55.641h55.618v55.641z"/></svg>