<svg xmlns="http://www.w3.org/2000/svg" class="vicon" viewBox="0 0 512 512"><path d="M411.258 113.307a369.34 369.34 0 00-91.19-28.285 1.403 1.403 0 00-1.466.692c-3.94 7.005-8.298 16.138-11.353 23.327-34.435-5.152-68.697-5.152-102.42 0-3.055-7.341-7.576-16.322-11.536-23.327a1.435 1.435 0 00-1.467-.692 367.994 367.994 0 00-91.189 28.285 1.288 1.288 0 00-.601.519C41.958 200.597 26.043 285.24 33.853 368.824c.03.407.265.804.58 1.049 38.315 28.143 75.439 45.228 111.87 56.55.58.174 1.201-.03 1.568-.519 8.614-11.77 16.301-24.172 22.889-37.225.387-.764.02-1.67-.774-1.975-12.188-4.623-23.785-10.254-34.945-16.658-.885-.52-.957-1.782-.142-2.383a203.456 203.456 0 006.944-5.437 1.383 1.383 0 011.446-.193c73.32 33.478 152.699 33.478 225.154 0a1.375 1.375 0 011.466.173 175.678 175.678 0 006.955 5.457c.814.601.763 1.863-.123 2.383-11.159 6.526-22.767 12.035-34.965 16.637a1.436 1.436 0 00-.763 1.996c6.73 13.033 14.407 25.434 22.869 37.205.356.499.987.713 1.568.529 36.604-11.322 73.727-28.407 112.042-56.55.336-.245.55-.622.581-1.029 9.336-96.637-15.65-180.577-66.234-254.997a1.129 1.129 0 00-.581-.53zM181.705 317.924c-22.074 0-40.259-20.262-40.259-45.157 0-24.895 17.839-45.157 40.259-45.157 22.604 0 40.616 20.445 40.26 45.157.01 24.885-17.829 45.157-40.26 45.157zm148.871 0c-22.074 0-40.259-20.262-40.259-45.157 0-24.895 17.839-45.157 40.259-45.157 22.604 0 40.616 20.445 40.26 45.157 0 24.885-17.656 45.157-40.26 45.157z"/></svg>