<svg xmlns="http://www.w3.org/2000/svg" class="vicon" viewBox="0 0 512 512"><path d="M450.267 79.152a46.666 46.666 0 00-46.555-46.219L108.331 32A46.34 46.34 0 0062 78.219v304.714c0 25.48 20.795 44.8 46.331 44.8h252.336l-12.134-41.066L450.267 480V79.152zm-130.06 245.737s-8.139-9.697-14.934-18.032c29.624-8.344 40.927-26.59 40.927-26.59a129.744 129.744 0 01-25.993 13.3 161.77 161.77 0 01-32.77 9.697 158.695 158.695 0 01-58.538-.224 172.194 172.194 0 01-33.218-9.707 132.028 132.028 0 01-16.501-7.662c-.681-.448-1.353-.672-2.035-1.13-.457-.224-.681-.448-.933-.448-4.069-2.258-6.328-3.836-6.328-3.836s10.845 17.818 39.555 26.376c-6.786 8.568-15.148 18.49-15.148 18.49-49.943-1.578-68.927-34.039-68.927-34.039 0-71.923 32.545-130.312 32.545-130.312 32.546-24.127 63.28-23.445 63.28-23.445l2.259 2.706c-40.684 11.499-59.211 29.307-59.211 29.307s4.966-2.707 13.328-6.319c24.183-10.593 43.4-13.3 51.334-14.196a22.39 22.39 0 013.845-.457 191.937 191.937 0 0145.649-.448 188.19 188.19 0 0168.031 21.42s-17.855-16.94-56.28-28.42l3.164-3.603s30.959-.681 63.289 23.483c0 0 32.546 58.389 32.546 130.312 0-.261-18.994 32.2-68.936 33.777z"/><path d="M215.113 220.533c-12.88 0-23.053 11.051-23.053 24.799s10.397 24.799 23.053 24.799c12.88 0 23.053-11.042 23.053-24.799.234-13.776-10.173-24.799-23.053-24.799zm82.488 0c-12.88 0-23.053 11.051-23.053 24.799s10.397 24.799 23.053 24.799c12.889 0 23.053-11.042 23.053-24.799s-10.388-24.799-23.053-24.799z"/></svg>