<svg xmlns="http://www.w3.org/2000/svg" class="vicon" viewBox="0 0 512 512"><path d="M240.428 46h69.378v317.911a458.708 458.708 0 01-89.99 9.361C135.094 373.185 91 335.338 91 262.653c0-69.989 46.771-115.483 119.263-115.483a112.81 112.81 0 0130.165 3.5V46zm0 159.962a69.849 69.849 0 00-23.394-3.5c-34.995 0-55.344 21.4-55.344 58.897 0 36.517 19.369 56.674 54.907 56.674a163.704 163.704 0 0023.831-1.75V205.962z"/><path d="M420.123 152.078v159.227c0 54.819-4.112 81.171-16.15 103.9A110.513 110.513 0 01347.281 466l-64.356-30.323a99.878 99.878 0 0054.96-46.001c9.903-19.615 13.035-42.344 13.035-102.133V152.078h69.203zM350.728 46.274h69.36v70.479h-69.36v-70.48z"/></svg>