<svg xmlns="http://www.w3.org/2000/svg" class="vicon" viewBox="0 0 512 512"><path d="M239.391 32c-5.111.07-11.299.224-13.777.434-68.027 5.838-128.845 46.159-164.14 108.502a233.418 233.418 0 00-29.092 98.073c-.728 9.632-.364 32.522.658 41.203 5.684 50.093 25.229 94.432 57.317 130.006 36.611 40.545 85.612 64.752 138.841 68.392 7.799.588 19.475.728 19.027.224a36.574 36.574 0 00-6.342-1.386c-31.207-6.202-63.226-21.07-89.112-41.707a231.201 231.201 0 01-45.795-49.141 231.364 231.364 0 01-39.817-121.705 232.858 232.858 0 0110.43-79.774c14.658-47.111 44.255-88.23 83.568-116.3a207.693 207.693 0 0179.116-35.001l8.246-1.82h-9.128zm27.482 9.562c-36.163 2.114-70.505 14.294-98.59 34.777-35.001 25.593-61.755 60.593-76.204 99.822-2.702 7.434-5.25 15.317-5.25 16.409 0 .224 71.458.434 192.434.434 158.008 0 192.575-.14 192.575-.658 0-.882-2.842-9.773-5.25-16.409-2.842-7.798-10.795-24.43-15.317-32.158a226.437 226.437 0 00-27.496-37.185c-30.843-33.98-67.09-54.756-108.643-62.204a222.837 222.837 0 00-48.273-2.842l.014.014zm209.935 176.096c-.364 0-89.392 0-197.979.07l-197.39.14-.224 1.092a276.261 276.261 0 00-2.478 23.255c0 .504 33.251.588 200.596.588H480v-1.386c0-1.89-1.316-14.799-1.974-19.685-.364-2.996-.728-4.088-1.162-4.088l-.056.014zm-197.321 49.211c-174.933-.07-200.302 0-200.526.658-.434.728.434 10.431 1.386 18.159.364 2.912.658 5.544.658 5.908 0 .434 39.887.658 198.342.658h198.259l.504-3.57c.798-6.048 1.89-18.089 1.75-19.909l-.14-1.75-200.233-.154zm.07 50.751c-165.819 0-192.728.07-192.728.658 0 .364 1.022 3.865 2.254 7.799a207.507 207.507 0 0038.641 69.861c5.25 6.412 17.64 19.321 22.975 24.067 29.246 26.11 60.593 41.343 96.686 47.181 11.298 1.75 16.548 2.114 32.662 2.044 16.997 0 24.207-.588 37.773-3.276 39.383-7.728 73.068-27.049 103.253-59.138 23.632-25.158 39.299-51.549 49.001-82.391l2.184-6.777-192.701-.028z"/></svg>