<svg xmlns="http://www.w3.org/2000/svg" class="vicon" viewBox="0 0 512 512"><path d="M440.053 365.267c1.743 0 3.298.746 4.667 2.24 1.244 1.617 1.867 3.173 1.867 4.666 0 1.494-.685 3.547-2.054 6.16l-5.973 8.587-8.027 9.893-8.213 9.334c-2.613 3.111-4.978 5.724-7.093 7.84l-4.107 4.293c-7.218 6.596-15.556 13.067-25.013 19.413a234.291 234.291 0 01-29.867 16.987c-10.702 4.978-21.529 8.96-32.48 11.947-10.951 2.986-21.342 4.48-31.173 4.48-11.2 0-21.716-1.743-31.547-5.227a104.834 104.834 0 01-27.627-14.56c-8.462-6.222-16.053-13.502-22.773-21.84-6.596-8.213-12.32-17.173-17.173-26.88a142.964 142.964 0 01-10.827-29.867c-2.489-10.329-3.733-20.72-3.733-31.173 0-12.444 1.991-24.64 5.973-36.587 4.107-12.071 9.52-23.271 16.24-33.6 1.742 11.823 5.164 22.836 10.267 33.04a126.354 126.354 0 0019.04 28c7.466 8.463 16.053 15.991 25.76 22.587 9.706 6.72 19.911 12.32 30.613 16.8a192.301 192.301 0 0033.04 10.453c11.449 2.489 22.649 3.734 33.6 3.734 13.938 0 27.502-1.494 40.693-4.48 13.191-2.863 26.009-7.343 38.454-13.44l3.733-1.867 3.733-.933zM150.72 341.56c0 13.689 1.68 27.067 5.04 40.133a172.8 172.8 0 0014.56 37.894 164.356 164.356 0 0023.147 33.04c9.209 10.204 19.537 18.915 30.986 26.133-18.293-2.489-35.715-7.093-52.266-13.813-16.551-6.845-31.983-15.369-46.294-25.574a228.298 228.298 0 01-38.826-35.466c-11.45-13.316-21.28-27.814-29.494-43.494-8.213-15.68-14.497-32.231-18.853-49.653C34.24 293.338 32 275.418 32 257c0-10.08 1.991-19.351 5.973-27.813 3.858-8.463 9.023-16.116 15.494-22.96 6.595-6.845 14.062-12.818 22.4-17.92 8.213-4.978 16.613-9.085 25.2-12.32 9.209-3.36 18.542-5.787 28-7.28 9.706-1.494 19.351-2.24 28.933-2.24 8.711 0 17.547.622 26.507 1.866a167.205 167.205 0 0126.133 6.534 165.383 165.383 0 0124.64 10.64A116.195 116.195 0 01256.933 201c-4.355 0-8.711.436-13.066 1.307-4.107.871-8.151 2.302-12.134 4.293v-.373c-7.84 3.484-15.306 8.089-22.4 13.813-7.093 5.724-13.626 12.196-19.6 19.413-5.973 7.218-11.386 15.058-16.24 23.52a182.17 182.17 0 00-12.133 25.947 174.185 174.185 0 00-7.84 26.88c-1.867 8.96-2.8 17.547-2.8 25.76zM255.253 33c21.156 0 41.876 2.427 62.16 7.28 20.285 4.729 39.387 11.884 57.307 21.467 17.796 9.582 34.098 21.59 48.907 36.026 14.684 14.436 27.004 31.236 36.96 50.4a176.835 176.835 0 0114.186 36.587c3.485 12.444 5.227 25.387 5.227 38.827 0 11.075-1.431 21.653-4.293 31.733-2.987 9.956-7.28 19.164-12.88 27.627-5.6 8.462-12.445 16.053-20.534 22.773-7.964 6.596-16.986 12.071-27.066 16.427a103.369 103.369 0 01-20.72 6.72c-7.218 1.617-14.436 2.426-21.654 2.426-5.226 0-11.262-.186-18.106-.56a198.852 198.852 0 01-20.534-2.24c-6.844-1.244-13.377-2.986-19.6-5.226-6.222-2.365-11.449-5.476-15.68-9.334-1.493-1.12-2.924-2.613-4.293-4.48-1.244-1.991-1.867-4.044-1.867-6.16 0-1.866.996-4.044 2.987-6.533 1.991-2.489 4.169-5.6 6.533-9.333 2.489-3.485 4.729-7.716 6.72-12.694C311.004 269.756 312 263.844 312 257c0-13.191-2.489-25.387-7.467-36.587-4.977-11.324-11.573-21.529-19.786-30.613-8.214-9.209-17.671-17.173-28.374-23.893-10.702-6.845-21.84-12.383-33.413-16.614a178.771 178.771 0 00-32.107-8.213A206.467 206.467 0 00158 138.467c-19.289 0-38.329 2.8-57.12 8.4-18.791 5.6-35.902 14.249-51.333 25.946 8.835-21.653 20.097-41.129 33.786-58.426 13.69-17.174 29.369-31.796 47.04-43.867 17.547-12.071 36.836-21.342 57.867-27.813C209.396 36.236 231.671 33 255.067 33h.186z"/></svg>