<svg xmlns="http://www.w3.org/2000/svg" class="vicon" viewBox="0 0 512 512"><path d="M73.773 255.121a11.31 11.31 0 005.243-1.289 10.386 10.386 0 003.125-2.517 9.55 9.55 0 001.845-3.436 9.13 9.13 0 00.283-3.83 9.343 9.343 0 00-1.322-3.638c-17.724-28.539-19.178-52.083-8.022-69.95 15.355-24.552 57.726-33.626 113.352-24.273 2.762.464 5.61-.106 7.92-1.585 2.311-1.479 3.896-3.748 4.409-6.309a9.141 9.141 0 00-.07-3.837 9.493 9.493 0 00-1.647-3.521 10.303 10.303 0 00-2.974-2.667 11.092 11.092 0 00-3.848-1.407c-31.431-5.276-60.299-5.176-83.332.3-24.012 5.706-41.994 17.268-52.17 33.456-15.074 24.173-13.674 54.691 7.99 89.556.93 1.506 2.273 2.756 3.892 3.625a11.262 11.262 0 005.326 1.322zM369.724 143.93c34.715.42 56.649 9.303 67.611 26.841 15.301 24.462 2.713 62.765-33.671 102.447-1.309 1.429-2.149 3.176-2.421 5.035a9.185 9.185 0 00.886 5.452c.851 1.701 2.21 3.14 3.915 4.147a11.184 11.184 0 005.706 1.534c1.539.002 3.06-.307 4.458-.904a10.608 10.608 0 003.64-2.553c20.588-22.454 34.833-45.508 41.186-66.663 6.612-21.984 4.771-42.18-5.383-58.338-14.86-23.763-43.211-36.124-85.701-36.644h-.151c-2.807-.016-5.506 1.004-7.503 2.835-1.997 1.831-3.129 4.323-3.146 6.928-.017 2.605 1.082 5.11 3.054 6.964 1.973 1.853 4.659 2.903 7.466 2.919h.054zm-37.838 270.967c-2.409-1.334-5.288-1.73-8.01-1.103-2.723.627-5.068 2.226-6.526 4.45-17.67 27.131-39.378 42.07-61.129 42.07-30.677 0-60.299-29.289-79.39-78.364-.961-2.447-2.925-4.443-5.465-5.551a11.381 11.381 0 00-8.092-.365 10.788 10.788 0 00-3.565 1.96 9.925 9.925 0 00-2.481 3.079 9.175 9.175 0 00-.415 7.532c10.768 27.75 25.272 50.714 41.995 66.413C216.154 471.346 236.01 480 256.221 480c29.482 0 57.651-18.317 79.305-51.573a9.384 9.384 0 001.403-3.612 9.117 9.117 0 00-.199-3.836 9.526 9.526 0 00-1.772-3.47 10.342 10.342 0 00-3.072-2.573v-.039zm113.309-76.296c-5.695-.027-11.309 1.252-16.345 3.721-5.035 2.47-9.336 6.055-12.52 10.436-3.185 4.382-5.155 9.426-5.736 14.684-.581 5.257.245 10.567 2.405 15.457-45.009 19.486-128.997 4.787-206.6-36.594-35.437-18.886-66.932-41.83-91.095-66.342-1.902-1.917-4.541-3.06-7.345-3.182-2.805-.121-5.547.788-7.633 2.532a9.896 9.896 0 00-2.468 3.083 9.153 9.153 0 00-.38 7.524 9.69 9.69 0 002.148 3.283c25.616 25.982 58.878 50.245 96.188 70.13 43.373 23.114 88.586 38.603 130.753 44.778a261.14 261.14 0 0037.687 2.908c24.895 0 46.301-4.297 63.002-12.781 4.573 2.592 9.731 4.165 15.069 4.596a37.137 37.137 0 0015.697-2.113c4.986-1.821 9.45-4.689 13.041-8.38 3.59-3.691 6.211-8.104 7.654-12.892a29.939 29.939 0 00.668-14.707c-1.006-4.885-3.217-9.486-6.461-13.444s-7.432-7.164-12.235-9.367c-4.804-2.203-10.093-3.343-15.451-3.33h-.043zm0 44.628c-3.057 0-6.024-.958-8.42-2.718a10.403 10.403 0 00-2.369-2.208c-1.867-2.257-2.857-5.033-2.807-7.877.049-2.845 1.134-5.59 3.078-7.79 1.944-2.199 4.633-3.723 7.629-4.324a14.53 14.53 0 018.873 1.014c2.75 1.258 4.959 3.342 6.27 5.914a11.771 11.771 0 01.949 8.25c-.696 2.77-2.381 5.24-4.783 7.009-2.401 1.768-5.376 2.73-8.442 2.73h.022z"/><path d="M68.744 338.651c.614-21.245 13.363-46.966 36.266-73.108 24.97-28.429 61.042-55.96 101.583-77.594 35.802-19.087 70.205-31.878 105.599-38.883a11.04 11.04 0 003.862-1.478 10.247 10.247 0 002.945-2.751 9.428 9.428 0 001.568-3.594 9.117 9.117 0 00-.052-3.877 9.482 9.482 0 00-1.665-3.556 10.274 10.274 0 00-3.018-2.681 11.086 11.086 0 00-3.9-1.389 11.387 11.387 0 00-4.176.12c-37.526 7.425-74.061 20.985-111.759 41.061-90.643 48.315-151.147 119.055-148.39 173.036-6.897 4.233-11.946 10.606-14.24 17.978-2.295 7.372-1.686 15.262 1.718 22.256 3.403 6.993 9.378 12.634 16.855 15.911 7.477 3.277 15.967 3.976 23.949 1.972 7.982-2.004 14.934-6.58 19.611-12.908 4.677-6.328 6.774-13.995 5.914-21.627-.86-7.632-4.62-14.73-10.606-20.024-5.986-5.293-13.808-8.436-22.064-8.864zm-1.927 44.578c-2.658-.018-5.251-.765-7.452-2.149-2.2-1.383-3.91-3.34-4.914-5.624a11.656 11.656 0 01-.727-7.21c.53-2.417 1.82-4.634 3.706-6.372 1.886-1.738 4.285-2.918 6.893-3.393a14.428 14.428 0 017.763.726c2.454.948 4.55 2.549 6.025 4.601 1.475 2.052 2.262 4.463 2.262 6.93-.017 3.324-1.454 6.505-3.995 8.847-2.542 2.341-5.98 3.652-9.561 3.644z"/><path d="M256.221 96.554c5.609.013 11.137-1.235 16.113-3.639 4.975-2.403 9.248-5.89 12.454-10.161 19.263 11.681 36.61 34.975 49.327 66.073 13.998 34.365 21.363 75.326 21.363 118.455 0 37.153-5.589 72.298-16.152 103.526a9.058 9.058 0 00-.456 3.809 9.206 9.206 0 001.167 3.676 9.986 9.986 0 002.601 2.997 10.827 10.827 0 003.644 1.839c2.682.769 5.582.524 8.07-.681 2.489-1.205 4.364-3.273 5.218-5.754 11.22-33.117 17.153-70.29 17.153-109.412 0-47.136-8.367-91.705-24.195-128.908-15.517-36.454-36.751-62.355-61.527-75.106-.214-6.337-2.434-12.476-6.383-17.65-3.949-5.173-9.453-9.152-15.824-11.441a37.321 37.321 0 00-20.001-1.429c-6.673 1.357-12.768 4.508-17.524 9.06-4.756 4.551-7.962 10.302-9.218 16.534-1.256 6.232-.507 12.67 2.155 18.509 2.661 5.839 7.116 10.822 12.81 14.326 5.694 3.503 12.373 5.374 19.205 5.377zm0-44.628c2.658.017 5.25.765 7.451 2.148 2.201 1.384 3.911 3.34 4.915 5.625a11.657 11.657 0 01.726 7.21c-.53 2.416-1.82 4.634-3.706 6.372-1.886 1.738-4.284 2.918-6.893 3.393a14.43 14.43 0 01-7.763-.726c-2.454-.948-4.55-2.549-6.025-4.6-1.475-2.053-2.262-4.465-2.262-6.931.017-3.324 1.454-6.505 3.996-8.847 2.541-2.342 5.98-3.652 9.561-3.644zm-5.599 191.563c-6.338 1.26-11.949 4.653-15.749 9.526-3.8 4.872-5.521 10.878-4.831 16.859.691 5.981 3.744 11.513 8.57 15.527 4.827 4.015 11.084 6.229 17.566 6.214a28.592 28.592 0 005.556-.55 27.36 27.36 0 009.513-3.713c2.875-1.81 5.334-4.132 7.234-6.832a23.375 23.375 0 003.834-8.892c.63-3.171.576-6.426-.16-9.577a23.484 23.484 0 00-4.128-8.778c-1.988-2.644-4.523-4.894-7.457-6.621a27.483 27.483 0 00-9.632-3.439 28.22 28.22 0 00-10.316.276z"/></svg>