<svg xmlns="http://www.w3.org/2000/svg" class="vicon" viewBox="0 0 512 512"><path d="M256 32c123.711 0 224 100.289 224 224S379.711 480 256 480 32 379.711 32 256 132.289 32 256 32zm2.159 287.228c-39.228.987-35.097-24.78-35.097-24.78s143.223-49.018 104.17-145.838c-17.549-24.91-37.94-32.736-66.805-32.165-28.875.56-64.42 18.165-87.632 70.259-11.074 24.86-14.834 48.411-17.095 66.258 0 0-25.364 5.096-38.955-6.202-13.58-11.315-20.72 0-20.72 0s-23.394 27.37-.171 36.439c23.215 9.065 59.367 10.899 59.367 10.899h-.021c3.325 24.104 11.515 47.278 41.279 66.636 49.906 32.47 123.97-1.824 123.97-1.824 44.384-18.55 73.871-47.27 86.436-61.26a11.517 11.517 0 00-.297-15.715l-14.456-15.018a11.526 11.526 0 00-15.634-.924c-19.309 15.813-70.063 53.235-118.335 53.235h-.004zm-41.895-68.502c1.705-67.368 45.857-96.811 61.149-82.076 15.291 14.707 9.618 46.407-19.25 66.221-28.865 19.824-41.899 15.855-41.899 15.855z"/></svg>