<svg xmlns="http://www.w3.org/2000/svg" class="vicon" viewBox="0 0 512 512"><path d="M477.312 267.201L375.648 438.673a20.1 20.1 0 01-17.888 9.328H154.351a20.19 20.19 0 01-17.888-9.44l-101.696-171.2a20.1 20.1 0 010-20.352L136.43 74.816A21.504 21.504 0 01154.351 64h203.345a21.501 21.501 0 0117.888 10.848l101.664 172.577a19.194 19.194 0 010 19.808l.064-.032zm-84.192 67.2V180.576L256 103.456l-136.961 77.12v153.825L256 411.505l137.12-77.104z"/><path d="M348.825 307.016l-91.952 51.76L165 307.016V203.495l91.873-51.776 91.952 51.776v103.521z"/></svg>