<svg xmlns="http://www.w3.org/2000/svg" class="vicon" viewBox="0 0 512 512"><path d="M480 378.959a28.541 28.541 0 01-35.373-13.44l-64.4-89.058-9.334-12.451-74.722 101.621a27.363 27.363 0 01-33.638 13.216l96.283-129.173-89.563-116.685a29.769 29.769 0 0135.467 12.432l66.752 90.16 67.125-89.787a26.79 26.79 0 0133.376-12.469l-34.757 46.125-47.077 61.283a12.438 12.438 0 00-3.07 14.36 12.415 12.415 0 003.07 4.194l89.674 119.691.187-.019zM32.038 248.069l7.84-38.734c21.54-76.589 109.349-108.453 169.754-61.04 35.373 27.795 44.203 67.144 42.467 111.496H52.832c-3.23 79.203 53.928 127.027 127.008 102.592a76.115 76.115 0 0048.197-53.685c3.864-12.432 10.23-14.56 21.915-10.976a101.11 101.11 0 01-48.328 73.864A117.077 117.077 0 0165.246 354.17a122.732 122.732 0 01-30.614-72.016c0-4.387-1.493-8.493-2.501-12.432a1649.31 1649.31 0 01-.13-21.635l.037-.018zm21.037-5.339h180.208c-1.12-57.419-37.352-98.149-85.68-98.523-53.798-.746-92.288 39.088-94.659 98.262l.13.261z"/></svg>