<svg xmlns="http://www.w3.org/2000/svg" class="vicon" viewBox="0 0 512 512"><path d="M165.854 411.87c-17.064-13.495-35.291-26.318-47.68-44.474-26.178-31.932-46.378-68.903-60.153-107.834-8.316-25.226-11.157-52.356-21.88-76.7-11.228-17.568 1.89-36.887 21.222-42.5 8.61-1.68 23.77-9.772 5.473-3.934-16.406 11.955-17.932-10.933-1.162-12.389 11.452-1.526 15.68-10.933 11.745-19.319-12.249-8.02 29.888-16.84 8.68-28.88C60.009 52 113.008 47.41 99.96 74.456c-3.135 20.858 37.041-3.794 27.704 20.27 9.477 11.521 35.431 2.632 34.773 18.815 13.859.952 18.591 12.543 31.498 13.411 13.495 6.131 37.769 10.863 42.361 25.954-13.341 10.569-44.181-21.727-45.637 7.433 4.004 43.089 2.996 87.493 18.745 128.538 7.503 24.862 25.59 44.474 41.926 63.793 15.609 19.024 36.748 32.295 58.334 43.606 18.954 8.89 39.379 14.797 59.999 18.521 8.315-6.412 23.112-30.182 36.159-20.13.588 11.227-25.884 23.546-1.246 22.314 14.433-4.382 24.498 11.157 36.453-2.842 10.934 12.977 45.637-8.315 37.84 18.297-10.57 6.775-26.024 2.701-36.608 12.025-17.428-8.68-31.357 7.797-50.676 5.753a373.82 373.82 0 01-65.038 5.39c-35.656-2.842-72.109-4.004-106.084-16.407-19.109-5.614-37.769-16.477-54.61-27.34v.014zm30.112 13.047c18.66 8.022 36.971 16.547 57.451 19.179 32.45 4.451 65.991 11.451 98.581 5.109-14.727-6.705-30.042 2.632-44.699-4.815-17.639 3.793-36.523-.952-54.47-3.276-20.34-9.043-42.36-15.315-61.469-27.13-23.77-8.679 12.319 11.157 18.815 12.837 14.881 8.455-16.407-4.382-20.775-7.881-12.473-7-14.069-5.544-1.246 1.526 2.548 1.525 5.11 3.135 7.798 4.451h.014zm-35.515-25.156c18.086 6.706-.07-12.683-8.386-11.591-3.639-6.341-13.999-10.429-6.705-13.775-13.201 4.522-13.775-17.358-19.977-14.293-13.929-4.381-5.389-19.906-21.95-29.453-1.526-10.066-16.477-18.815-21.292-34.046-2.114-7.727-16.84-30.111-7.798-9.337 7.728 20.046 21.363 37.181 32.66 54.316 8.819 16.252 19.178 33.317 35.221 43.452 5.39 5.18 10.569 13.131 18.227 14.727zm-52.132-57.227c.588-2.702 3.275 5.907 0 0zm73.788 65.249c4.004-1.75-5.754-2.184 0 0zm9.841 3.639c-1.022-4.955-4.522 2.702 0 0zm12.319 5.11c5.838-5.614-9.043-3.5 0 0zm21.082 11.745c3.57-5.25-11.451-1.974 0 0zm-40.47-28.222c9.043-5.907-11.815-.07 0 0zm9.183 4.592c-.224-3.136-3.276 1.386 0 0zm46.084 28.796c7.434 4.661 43.313 10.205 20.859 1.889-3.724.798-41.633-10.723-20.859-1.889zm-73.13-57.018c-.728-3.136-11.521-3.5 0 0zm21.432 12.473c5.614-3.864-11.591-2.996 0 0zm18.087 11.087c8.021-2.996-13.047-3.066 0 0zm-48.268-33.107c8.679 6.705 35.067.882 13.341-3.934-9.911-5.32-32.226-8.889-17.065 3.136l3.724.798zm60.447 36.971c3.64-6.202-15.161-3.57 0 0zm-18.381-14.657c21.293 6.048-17.862-13.411-5.249-2.184l2.842 1.246 2.407.938zm36.888 21.292c20.116.224-18.227-2.771 0 0zm-86.682-55.267c-.798-3.724-4.955.364 0 0zm120.741 74.362c.504-6.776-6.566 5.109 0 0zm-86.401-53.294c-1.246-3.57-6.272-.14 0 0zm-32.45-23.406c11.521-.658-15.819-5.11 0 0zm-38.497-24.862c-1.386-5.544-12.543-9.911 0 0zm100.988 64.157c-2.114-2.478-1.022.504 0 0zm62.771 38.497c-.14-3.64-3.359 1.386 0 0zm-68.314-44.251c1.092-4.815-9.911-1.456 0 0zm-46.813-29.747c8.526-.882-13.774-5.754 0 0zm79.178 49.22c13.341-5.32-13.131-2.632 0 0zm-41.185-27.928c15.455 1.974-18.38-10.499-3.429-1.092l3.429 1.092zm53.658 33.023c14.433-8.679 9.701 20.201 24.498 2.408 14.587-10.639-12.613 13.201 5.39 1.89 12.977-8.679 32.225 4.158 44.334 8.315 8.75-.434 17.275 7.588 26.178 2.702 17.275-4.662-33.681-6.859-20.34-15.091-15.749 4.592-27.41-5.473-35.137-15.609-17.723-4.087-38.133-13.13-46.953-28.795-3.639-5.838 5.18.882-3.135-8.75-10.64-9.477-15.973-20.27-23.113-31.791-8.525-4.522-9.547-17.933-10.429-.434.07-11.087-10.359-18.521-12.837-15.385-.07-10.639 11.087-5.319 3.276-13.201-1.68-11.087-7.223-22.608-8.889-35.067-2.548-5.978-.364-18.815-8.82-5.25-3.065 14.363-1.021-17.638 3.794-7.069 6.272-10.793-2.254-9.547-2.632-8.021 4.088-9.114 2.632-22.021-1.092-17.135 2.184-9.631 3.5-35.501-3.275-30.91 4.087-10.065 7.727-46.154-9.912-32.379-7.223.07-19.612 2.632-25.45 5.544 18.381 10.135-1.889 3.639-9.337 2.043-.952 9.338-8.385 5.32-17.638 5.39 14.796 1.82-7.224 15.091-15.749 9.995-11.003 5.25 9.547 18.381.224 22.454 1.162 6.132-16.84-2.183-15.455 11.955-10.723-4.521-1.456 16.841 3.864 9.632 18.226 4.885 12.837 16.112 13.271 26.836-2.912 6.201-14.587-14.657-2.548-13.705-9.477-15.385-10.5-5.544-18.45 1.61-1.82.503 20.2 10.205 6.41 15.02 12.11 1.82 12.474 12.473 14.882 19.179 7.293 7.657 5.837-8.386 14.587.798-5.544-8.162-29.244-22.972-10.206-18.227-.07-8.161-3.429-14.797 2.408-14.587 5.838-10.499-6.047 25.884 7 12.543 3.639-1.61 4.521-10.499 11.087.798 9.407 9.338 3.359 16.043-9.912 7.504 2.338 8.091 17.793 11.003 14.881 23.63 3.066 11.157 7.364 6.999 11.157 6.411 2.912 10.793 4.592 2.842 4.746-2.337 13.495 2.911 10.275 10.863 14.503 16.476 9.253 4.158-13.271-28.432 2.702-9.841 16.7 15.161 6.271 21.432-8.82 19.024 9.548-.727 12.613 12.907 24.498 12.39 10.864 5.179 18.227 25.002-.503 16.77-6.496-5.837-29.454-13.131-10.64-1.974 17.359 8.022 31.064 12.837 47.835 22.889 11.885 8.525 17.134 18.38 21.656 20.27-10.065 4.816-30.336-3.864-15.315-6.496-9.337-1.679-19.906-6.411-10.933 5.25 7.657 6.412 27.046 5.684 30.546 6.412-2.996 6.495-8.022 6.999.14 7.503-9.114 4.886 2.911 5.613 3.723 8.385l-.07.028zm-18.52-52.426c-5.544-5.837-7-16.63-1.022-7.223 3.066 1.246 9.841 17.723 1.022 7.223zm60.447 38.357c3.43-.14.07 2.632 0 0zm-69.197-52.565c-.224-8.68 1.974 6.775 0 0zm-6.047-8.022c-6.93-13.411 8.819 3.794 0 0zm-72.766-50.312c4.087-1.092 1.973 7 0 0zm57.969 31.428c2.478-9.408 2.912 7.951 0 0zm-40.989-28.432c-2.842-5.18 6.048 4.886 0 0zm35.151 11.227c-6.565-14.727 4.662-8.021 1.456 2.478l-1.456-2.478zm-60.587-40.401c-2.912-4.815-7.797-19.024-6.201-23.336 1.386 6.999 14.951 30.336 6.635 9.631-9.183-17.358 11.003 5.614 13.131 9.995.952 4.298-5.683-1.161-1.246 8.89-8.161-11.521-4.815 6.341-12.319-5.18zm-18.744-12.907c.798-11.227 4.297 7.728 0 0zm8.455 2.926c4.004-8.525 6.776 11.815 0 0zm-20.27-15.679c-7-6.929-12.025-13.341.294-4.297 4.815.14-10.5-14.503 1.162-4.662 12.319 2.254 6.047 20.2-1.456 8.973v-.014zm10.653-.294c4.088-4.003 2.114 3.934 0 0zm6.565 2.114c-6.131-11.521 7.434 4.816 0 0zm-13.061-12.459c-20.27-18.003 25.52 9.477 3.276 3.36l-3.276-3.36zm58.11 33.751c-8.82-5.249-2.338-37.041.658-15.314 8.525-2.772-.504 11.227 5.837 11.087-.952 8.819-3.793 12.025-6.495 4.227zm21.446 12.683c.882-9.547 1.82 6.566 0 0zm-3.724-3.709c.952-4.088.07 4.815 0 0zm-71.814-48.632c-13.047-18.003 37.839 18.156 8.315 4.521-3.065-.798-6.775-1.092-8.315-4.521zm41.339 21.936c-1.246-15.161 2.772 2.478 0 0zm31.427 20.13c2.408-8.609.14 5.684 0 0zm-70.806-48.926c7.727-1.68 32.085 13.565 9.701 4.382-2.478-2.772-7.727-1.526-9.701-4.382zm66.425 33.107c.882-15.454 4.661-9.253.07 2.184l-.07-2.184zm-60.658-38.497c3.136-4.591-8.385-20.928 1.68-5.837 4.298 3.43 12.543 5.753 5.25 7.223 11.451 10.066-2.772 2.702-6.93-1.386zm57.382 33.682c2.184-17.639 1.974 10.275 0 0zm-63.947-49.948c2.408-1.022 1.246 3.206 0 0zm14.951 8.903c3.863-8.091 7.069 9.043 0 0zm42.206 23.546c0-3.136.798 4.452 0 0zm-2.393-5.473c-5.838-14.433 5.473 7.657 0 0zm-3.654-9.478c-.952-5.977 3.43 7.504 0 0zm5.907-9.547c-4.003-7.069 5.11-31.203 6.048-16.253-4.228 11.661-1.162 18.227 1.75 2.548 5.473-12.319-1.162 24.358-7.798 13.705zm5.978-35.879c1.75-2.184.434 2.548 0 0zm-9.981 198.098c-2.408-2.113.294 1.316 0 0zm20.704 10.43c11.451 2.995 11.451-1.75 1.022-3.136-5.614-5.25-23.252-10.793-7.433-.658 1.022 2.632 4.381 2.548 6.341 3.794h.07zm-40.905-27.116c6.342 4.745 23.84 13.411 8.974 1.75 5.025-5.754-9.548-8.89-4.746-12.753-12.249-7.588-9.701-6.86-1.022-6.636-14.881-6.635 2.114-6.131 1.316-9.547-5.754-1.092-28.362-10.065-15.021.728-13.565-6.86-3.276 2.632-7.363 1.61-13.859-3.794 12.319 10.569-2.184 6.999 7.951 6.272 21.432 16.113 3.36 6.636-2.408 3.429 12.907 8.609 16.7 11.227l-.014-.014zm21.657 12.459c26.318 8.455-12.907-10.43 0 0zm110.815 67.152c.364-5.249-3.57 4.452 0 0zm11.451 4.816c6.048-5.908.224 9.337 10.065-1.456.07-7.727-.294-12.319-11.297-2.912-3.066 1.68-4.382 8.82 1.246 4.382l-.014-.014zM114.226 313.36c-1.82-7.293-13.047-7.293 0 0zm12.179 8.021c-4.521-7.503-16.112-6.775 0 0zm69.267 41.787c6.775 5.978 31.063 4.382 8.245.728-3.43-5.026-21.502-3.794-8.245-.728zm95.15 58.753c10.429-8.749-10.065 3.864 0 0zm21.643 14.811c.07-2.772-4.452 1.246 0 0zm0-3.863c11.521-12.249-11.158.727 0 0zM84.339 288.358c-9.842-13.999-6.132-20.34-15.61-31.722-1.749-8.819-16.182-28.655-7.433-7.587 8.022 12.249 10.43 31.274 23.043 39.295v.014zm224.556 140.563c21.222-13.635-8.679-5.908 0 0zm16.197 6.355c10.639-9.043-6.706-1.889 0 0zM110.657 297.905c3.065-4.521-7.798-.588 0 0zm211.005 133.06c10.275-6.636-2.338-5.614-1.82.588l1.82-.588zm-139.415-87.927c-.364-4.452-5.474.364 0 0zm8.609 4.955c-2.772-5.543-4.227.882 0 0zm147.353 87.493c13.131-9.547-8.022-1.89-2.772 1.75l2.772-1.75zm-5.026-2.477c10.723-8.974-11.381 4.003 0 0zm25.73 17.134c7.223-4.815-8.749-1.526 0 0zM117.292 294.629c9.631 2.184 38.567 23.771 21.502 1.526-8.749-2.631-3.499-23.994-12.473-20.2 5.978 9.995 4.956 14.293-7.587 7.951-15.819-7.657-8.889 3.864-5.838 7-4.157.952 5.614 3.639 4.382 3.723h.014zm-43.97-34.703c1.68-7.139-15.973-39.295-8.386-16.113 2.772 4.816 2.478 14.069 8.385 16.113zm80.647 49.794c-4.955-4.157-.224-.658 0 0zm12.249 2.842c0-7.587-13.495-3.066 0 0zm106.084 66.859c-2.044-5.18-8.022-.14 0 0zm5.095 3.723c-.728-2.911-2.911.504 0 0zm42.067 26.458c4.004-2.995-5.026-.364 0 0zM95.272 265.54c11.591-4.522-12.39-3.206 0 0zm167.693 105.635c-.14-7.503-7.364 1.89 0 0zM90.68 254.887c7.433-2.548-6.86-1.68 0 0zm21.572 10.429c-.14-2.478-2.253.952 0 0zM375.25 426.597c9.547-1.89 31.357 4.886 34.857-2.548-11.591-.224-40.177-8.161-41.493 1.89l2.548.434 4.088.224zM119.112 267.066c.14-7.588-5.908-.294 0 0zm-56.724-39.379c-2.547-14.433-9.77-2.184 0 0zm13.565 3.429c.14-4.661-12.389-4.227 0 0zm7.728 3.794c-2.254-1.82-1.75 2.254 0 0zm48.548 31.134c2.338-2.044-5.39-1.526 0 0zm-53.728-39.659c-1.316-10.933-15.679-1.68 0 0zm-27.704-18.017c-.364-5.025-2.701 1.89 0 0zm4.074-3.136c-.658-5.977-3.5.728 0 0zm22.832 13.635c9.631-3.793-17.569-7.881-1.974-.728l1.974.728zm304.84 188.258c6.202-5.614-7.797-1.75 0 0zm36.887 19.108c2.408-7.293-6.271.952 0 0zM80.027 206.912c1.022-7.069-7.657 1.386 0 0zm-32.435-21.726c-1.75-9.995-1.456-27.494 15.16-21.586-22.244 4.451 15.385 27.634 10.64 9.337 9.337.434 18.296-5.544 13.34 3.57 18.451-2.044 31.204-18.003 48.997-15.819 13.858-1.82 29.019-3.206 43.97-8.749 12.249-.952 24.064-14.139 17.359-21.951-16.771-1.455-34.27.658-52.79 4.298-20.494 4.298-39.085 12.389-59.79 15.889-20.2 2.702 4.004 7.433-1.75 8.525-10.498 3.64 12.544 6.132-1.385 9.911-8.526-1.609-17.499-4.591-13.86-13.635-19.318 2.478-36.312 10.57-20.997 30.182l1.106.028zm46.588-23.7c4.521-16.701 24.274 13.705 7.433 2.184-2.044-1.456-5.32-2.702-7.433-2.184zm.868-8.091c6.495-4.816 3.43 2.701 0 0zm8.315.154c.588-7.658 18.955 4.087 2.996 2.771l-2.996-2.771zm11.297-4.606c4.158-4.816 1.246 4.382 0 0zm2.926-1.89c6.929-8.315 39.155-5.319 15.525-.798-6.272-4.745-11.157 2.772-15.525.798zm42.067-6.495c-1.092-22.679 20.858 8.091 0 0zm11.885-.07c4.381-11.451 16.91-4.592 2.044-2.338.294 1.246-.434 5.907-2.044 2.338zm-96.243 60.587c13.047-8.022-13.775-6.93 0 0zm9.618 2.702c4.591-4.886-9.912-2.044 0 0zM56.55 183.576c7.433-5.683-8.75-2.184 0 0zm384.605 240.613c.224-6.635-5.683 2.996 0 0zm-39.07-26.682c1.091-7.657-5.026.658 0 0zm49.794 29.23c10.429 0 31.497-3.206 8.889-3.206-3.57.588-20.704.434-8.889 3.206zM93.368 199.045c8.455-.588 13.201-9.253-1.61-8.749-22.972-2.408 20.2 7.797-2.912 4.885-3.136 2.044 4.382 4.452 4.522 3.864zm7.447 3.78c-.882-5.474-2.632 2.841 0 0zm8.75-23.476c3.723-4.522-5.026-1.246 0 0zM81.567 132.55c15.09-5.109 35.655-10.863 42.724 2.478-7.223-8.679-2.911-17.205 3.934-4.522 9.631 12.907 14.433-5.837 8.162-10.135 7.139 8.889 15.244 13.047 4.815.504 11.381-13.635-22.818 1.82-30.629 1.68-3.724 1.68-38.637 8.889-28.95 9.995h-.056zm8.82-16.854c8.609-6.496 29.677 3.793 16.112-6.496-1.246-1.092-29.608 7.797-16.113 6.496zm31.273 1.245c10.065.294-4.298-13.41 7.657-7.223-1.974-6.411-13.929-7.657-19.836-10.205-3.276 5.907 6.775 17.498 12.179 17.428zM95.93 88.58c3.43-4.662-6.132 2.407 0 0zm12.753 3.066c16.112-2.114-4.158-6.93-3.276-.14l3.276.14zM84.843 72.97c-11.382-14.88 21.362 2.548 9.84-13.047-9.77-7.727-19.108 8.75-9.84 13.047zm146.036 78.674c5.25-9.254-21.586-12.473-3.5-3.276 1.68.588 1.246 3.934 3.5 3.276z"/></svg>