<svg xmlns="http://www.w3.org/2000/svg" class="vicon" viewBox="0 0 512 512"><path d="M256 32C131.363 32 32 131.251 32 256s99.251 224 224 224 224-99.363 224-224S380.749 32 256 32zM80.683 257.885l173.413 173.339c-95.461.093-173.413-77.859-173.413-173.339zm214.237 169.55L84.659 216.968C102.187 139.016 172.28 80.589 256 80.589a177.198 177.198 0 01142.165 72.072l-25.293 21.411a143.101 143.101 0 00-118.739-62.421 141.299 141.299 0 00-82.636 26.055 141.299 141.299 0 00-51.894 69.387l183.194 183.288c44.8-15.624 79.838-54.562 89.6-101.36h-75.973V256h114.893c0 83.72-58.426 153.907-136.397 171.435z"/></svg>