<svg xmlns="http://www.w3.org/2000/svg" class="vicon" viewBox="0 0 512 512"><path d="M471.552 236.043L275.95 40.449a28.853 28.853 0 00-40.8 0l-40.617 40.618 51.525 51.526a34.256 34.256 0 0135.33 8.295 34.265 34.265 0 018.06 35.384l49.652 49.659a34.285 34.285 0 0140.493 14.713 34.29 34.29 0 01-5.854 42.684 34.286 34.286 0 01-42.96 3.267 34.29 34.29 0 01-12.242-41.307l-46.309-46.309-.005 121.867a34.693 34.693 0 019.079 6.493 34.307 34.307 0 019.664 19.237 34.306 34.306 0 01-19.316 36.03 34.298 34.298 0 01-40.081-8.048 34.304 34.304 0 01-3.91-40.694A34.302 34.302 0 01244 319.849v-123a33.92 33.92 0 01-11.237-7.492 34.32 34.32 0 01-7.4-37.531l-50.792-50.8L40.452 235.138a28.86 28.86 0 000 40.814l195.601 195.6a28.856 28.856 0 0040.8 0L471.55 276.861a28.87 28.87 0 000-40.818"/></svg>