<svg xmlns="http://www.w3.org/2000/svg" class="vicon" viewBox="0 0 512 512"><path d="M465.741 149.256a8.992 8.992 0 00-11.9-5.137 8.907 8.907 0 00-4.892 11.353c8.475 22.562 13.137 47.052 13.137 72.563 0 104.694-78.017 191.1-179.042 204.323v-96.219a124.98 124.98 0 0017.886-4.82v80.895c82.995-20.145 144.594-94.967 144.594-184.179 0-71.398-39.512-133.616-97.845-165.904a8.942 8.942 0 00-12.955 10.26 8.945 8.945 0 004.25 5.366 171.606 171.606 0 0188.593 150.264c0 72.563-45.038 134.637-108.738 159.76v-71.714c11.051-3.497 19.368-13.77 19.368-26.059a27.2 27.2 0 00-13.454-23.727c6.461-61.829 34.606-45.584 34.606-65.254v-11.439c0-29.555-68.362-125.846-100.334-128.105a36.883 36.883 0 00-5.914 0c-32.045 2.331-100.406 98.55-100.406 128.105v11.511c0 19.684 28.231 3.338 34.605 65.254-8.245 4.748-13.454 13.54-13.454 23.727a27.482 27.482 0 0019.296 26.059v71.714a171.569 171.569 0 01-108.737-159.76c0-64.635 35.785-120.939 88.592-150.264a8.878 8.878 0 003.655-11.741 8.914 8.914 0 00-5.344-4.602 8.922 8.922 0 00-7.016.717 189.457 189.457 0 00-97.845 165.904c0 89.212 61.599 163.962 144.595 184.179v-80.895c5.914 1.943 11.741 3.583 17.885 4.82v96.205C127.974 419.192 49.886 332.787 49.886 228.093c0-25.512 4.662-50.016 13.137-72.564a8.863 8.863 0 00-4.893-11.353 8.917 8.917 0 00-7.055.007 8.926 8.926 0 00-4.844 5.13A224.035 224.035 0 0032 228.107c0 120.637 95.355 219.029 214.898 223.849V338.47c5.295.317 11.669.389 18.202 0v113.4C384.644 447.121 480 348.744 480 228.107c0-27.771-5.051-54.289-14.231-78.866l-.028.015zM310.34 271.677a18.418 18.418 0 11.014 36.835 18.418 18.418 0 01-.014-36.835zm-108.723 36.792a18.45 18.45 0 01-17.04-11.376 18.432 18.432 0 013.989-20.097 18.432 18.432 0 0113.037-5.405 18.44 18.44 0 11.014 36.878z"/></svg>