<svg xmlns="http://www.w3.org/2000/svg" class="vicon" viewBox="0 0 512 512"><path d="M129.391 243.233V116.488l-1.168-.867h-.098l-26.588-19.673C85.273 83.87 62.094 84.456 47.68 98.675 38.038 108.219 32 121.464 32 136.17v35.081l97.391 71.982zm253.218-.127v.127L480 171.251V136.17c0-14.511-5.844-27.756-15.388-37.3-14.219-14.19-36.668-15.856-52.825-3.925l-28.01 20.676-1.168.867v126.618zM148.87 257.501l101.345 74.913a9.745 9.745 0 0011.58 0l101.335-74.913V130.882L256 210.09l-107.13-79.208v126.619zm233.739 9.943v147.168c0 5.376 4.363 9.739 9.739 9.739h63.304c13.45 0 24.348-10.898 24.348-24.348v-204.55l-97.391 71.991zm-253.218 0L32 195.453v204.55c0 13.45 10.898 24.348 24.348 24.348h63.304c5.376 0 9.739-4.363 9.739-9.739V267.444z"/></svg>