<svg xmlns="http://www.w3.org/2000/svg" class="vicon" viewBox="0 0 512 512"><path d="M259.333 88.043A163.56 163.56 0 0097.724 208.701c.893-.341-.958.21 0 0-67.816 44.639-68.63 141.908-4.305 191.481l.066-.131-.131.551a117.807 117.807 0 0071.374 23.717h90.51l.551.472h90.851c117.036.959 164.063-150.53 67.135-216.09a163.375 163.375 0 00-49.35-79.642l-.749.748.066-.892A163.604 163.604 0 00259.359 88.03l-.026.013zm-6.287 72.595c21.735-.748 44.087 6.431 60.979 20.094a90.706 90.706 0 0132.602 71.374v9.095c61.793-1.233 61.793 92.085 0 90.852h-90.851l-.131.131v-.683h-90.917a45.18 45.18 0 01-18.664-4.029c-28.914-13.059-35.818-51.069-13.401-73.552 22.497-22.418 60.428-15.514 73.553 13.4l52.71-52.71a118.124 118.124 0 00-71.02-44.021c.342-.131.683-.407.959-.341a90.57 90.57 0 0164.26-29.597l-.079-.013z"/></svg>