<svg xmlns="http://www.w3.org/2000/svg" class="vicon" viewBox="0 0 512 512"><path d="M141.595 197.803c-.962 8.745 4.547 16.703 4.547 16.703.612-6.559 1.924-11.194 3.498-14.517.35 9.007 2.798 20.551 11.194 29.82 6.033 6.646 31.131 20.376 48.009 5.334.874 2.099 1.836 4.635 2.623 7.434 2.536 9.007-2.361 22.124-2.361 22.124s13.205-14.954 12.156-28.421c9.444-.437 18.714-7.345 18.451-17.052 0 0-16.528 9.094-31.044-7.696-8.483-9.794-35.767-36.728-72.67-27.808 3.76.874 7.783 2.098 11.806 3.585h-.088c-3.673 1.749-5.684 6.209-6.121 10.494zm24.748-1.574c17.052 9.619 32.706 22.474 39.264 32.356-4.984 2.886-18.976 9.094-33.23-1.487-9.007-6.646-8.57-22.911-6.034-30.869zm124.264 40.051c-1.049 13.555 12.156 28.421 12.156 28.421s-4.897-13.117-2.361-22.124c.787-2.799 1.749-5.247 2.623-7.434 16.878 15.129 41.976 1.312 47.922-5.334 8.395-9.269 10.756-20.813 11.194-29.82 1.574 3.323 2.973 7.958 3.498 14.517 0 0 5.596-7.958 4.547-16.703-.525-4.373-2.536-8.745-6.122-10.319h-.087c4.023-1.574 8.045-2.798 11.806-3.585-36.991-8.92-64.188 18.014-72.67 27.808-14.604 16.79-31.045 7.696-31.045 7.696-.175 9.532 9.095 16.528 18.539 16.877zm54.831-40.051c2.623 7.958 2.973 24.223-6.122 30.957-14.254 10.581-28.158 4.372-33.143 1.399 6.559-9.969 22.212-22.737 39.265-32.356zM227.907 398.235h-25.71c-4.81 0-7.171 1.4-8.308 2.536-1.661 1.749-1.924 4.111-.787 7.084 3.061 7.958 9.969 14.429 11.981 16.265 2.71 2.361 6.558 3.761 10.319 3.761 3.847 0 7.258-1.487 9.619-4.023 6.559-7.171 10.406-14.954 11.368-17.315.525-1.312 1.137-3.935-.787-5.946-1.574-1.575-4.11-2.362-7.695-2.362zm165.453-88.498c-2.099 15.654-11.369 29.558-21.513 38.215-2.711-19.85-3.235-48.534-3.235-54.568 0-12.855 8.307-21.425 10.669-22.824 2.186-1.312 4.722-2.623 7.258-4.022 15.741-8.396 35.329-18.889 35.329-38.216 0-14.166-8.133-20.288-13.467-24.31-.7-.525-1.312-.962-1.924-1.487-1.836-1.487-3.236-2.623-3.76-3.848-3.848-8.57-3.148-29.907-1.487-32.88.525-.525 14.604-18.277 10.319-34.28-1.749-6.472-6.034-11.631-12.33-14.867-4.635-2.361-10.407-3.672-17.053-3.935-.087-1.749-.437-3.41-.787-5.159-.524-2.274-.962-4.635-.787-7.084.35-4.11.7-7.87 1.924-9.881 7.346-11.631 25.185-15.391 25.36-15.391l10.756-2.1-7.083-8.307c-.087-.175-15.128-15.303-40.489-15.303-6.908 0-13.991 1.137-21.075 3.41-21.162 6.821-37.515 26.672-43.2 34.368a117.38 117.38 0 00-8.395-2.362c-3.672-13.816 7.871-33.667 7.871-33.667s-11.893-2.624-29.47 13.292c-2.274-5.684-7.084-17.927-1.575-32.531-25.797 9.095-32.268 22.999-34.192 35.592-6.646-4.723-5.859-20.201-6.296-24.136-6.559.787-25.535 19.151-24.661 42.237-1.749.438-3.41.963-5.159 1.487-5.684-7.695-21.95-27.546-43.2-34.367-6.908-1.924-13.992-3.06-20.9-3.06-25.36 0-40.314 15.128-40.489 15.303l-7.083 8.22 10.756 2.099c.175 0 18.014 3.76 25.36 15.39 1.224 1.924 1.574 5.772 1.924 9.882.175 2.449-.35 4.81-.787 7.084-.35 1.661-.7 3.41-.787 5.159-6.734.262-12.418 1.574-17.053 3.935-6.296 3.236-10.581 8.395-12.33 14.867-4.373 15.915 9.794 33.667 10.319 34.28 1.661 2.973 2.361 24.31-1.487 32.88-.524 1.225-1.924 2.361-3.76 3.848-.612.437-1.224.962-1.924 1.487C98.133 208.209 90 214.418 90 228.497c0 19.327 19.589 29.82 35.329 38.215 2.624 1.4 5.072 2.711 7.259 4.023 2.361 1.399 10.668 9.969 10.668 22.824 0 6.034-.524 34.717-3.235 54.568-10.144-8.657-19.414-22.649-21.513-38.302 0 0-25.535 19.763-18.014 61.913 4.547 25.798 20.288 40.314 41.101 47.835 7.695 16.703 25.71 39.964 58.853 43.374C213.04 473.266 230.53 480 256.065 480h.175c25.448 0 42.937-6.734 55.618-17.053 33.143-3.41 51.157-26.671 58.853-43.374 20.812-7.608 36.466-22.037 41.1-47.835 7.171-42.325-18.451-62.001-18.451-62.001zM355.32 65.23c4.897-1.574 10.144-2.36 15.478-2.36 9.619 0 17.402 2.623 21.6 4.372-2.711 1.224-5.597 2.798-8.483 4.635-2.098-.35-4.897-.7-8.045-.7-9.182 0-17.927 2.711-25.098 7.783-10.756 7.608-15.741 14.779-18.102 19.589a68.285 68.285 0 00-6.209-3.236 86.27 86.27 0 00-4.11-1.924c5.335-7.958 17.403-23.174 32.969-28.158zm18.364 15.916c-.7.875-1.399 1.837-2.012 2.799-2.885 4.547-3.41 10.144-3.847 15.565-.437 5.597-.962 10.932-3.848 14.867-3.673.699-7.083 1.486-10.057 2.361-2.011-2.711-4.897-6.122-9.182-9.794 1.225-4.198 4.81-14.08 11.806-19.676 4.897-3.76 10.669-5.86 17.14-6.122zm-245.819-9.27c-2.885-1.923-5.771-3.497-8.482-4.634 4.197-1.75 11.98-4.373 21.6-4.373 5.334 0 10.493.788 15.478 2.362 15.566 5.072 27.634 20.288 32.968 28.07-1.399.613-2.798 1.225-4.197 1.924-2.187 1.05-4.285 2.187-6.209 3.236-2.274-4.722-7.258-11.98-18.102-19.588-7.258-5.073-15.916-7.783-25.185-7.783a59.59 59.59 0 00-7.871.787zm39.09 35.068c-4.285 3.672-7.258 6.995-9.182 9.794-2.973-.787-6.384-1.662-10.057-2.361-2.886-3.848-3.323-9.182-3.76-14.78-.437-5.42-.962-11.018-3.848-15.565a32.543 32.543 0 00-2.011-2.798c6.471.262 12.243 2.273 17.052 6.121 6.996 5.51 10.582 15.391 11.806 19.589zm-28.159 152.598c-2.361-1.4-4.897-2.711-7.345-4.023-13.03-6.996-26.41-14.254-26.41-26.672 0-9.707 3.76-12.767 7.783-15.915l.437-.35c.613-.525 1.225-1.05 1.924-1.574-.787 6.296-1.661 11.63-2.361 13.029 0 0 10.581-13.117 13.73-38.739 1.224-10.057-.962-29.995-4.46-37.603.175 4.285 0 8.57-.263 12.592-.349-.699-.699-1.399-1.136-1.924-2.799-3.497-10.319-15.303-8.221-23.261.787-3.061 2.711-5.247 5.859-6.821 3.323-1.661 7.696-2.536 13.205-2.536 10.756 0 22.649 3.236 28.771 5.247 21.949 6.996 48.446 27.022 56.054 32.968.175.175.35.263.35.263l4.897 3.41-3.06-5.072c-.175-.262-16.703-27.459-46.523-40.664 1.749-2.536 6.471-7.083 18.889-13.204 18.714-9.183 40.664-13.817 64.974-13.817 24.399 0 46.261 4.634 64.975 13.817 12.417 6.034 17.14 10.668 18.889 13.204-29.733 13.205-46.261 40.402-46.436 40.664l-3.06 5.072 4.897-3.41s.175-.088.35-.263c7.608-5.946 34.105-26.06 56.054-32.968 6.122-1.924 18.015-5.247 28.771-5.247 5.509 0 9.882.875 13.205 2.536 3.06 1.574 4.984 3.848 5.859 6.821 2.186 7.958-5.335 19.764-8.22 23.261-.438.525-.787 1.137-1.137 1.924-.263-4.022-.437-8.307-.263-12.592-3.498 7.695-5.684 27.546-4.459 37.603 3.148 25.622 13.729 38.739 13.729 38.739-.7-1.399-1.574-6.733-2.361-13.029.612.524 1.312 1.049 1.924 1.574l.437.35c4.023 3.235 7.783 6.208 7.783 15.915 0 12.418-13.467 19.676-26.41 26.672-2.536 1.312-4.984 2.711-7.345 4.023-7.608 4.372-15.741 14.604-16.703 29.907-.787 12.768.787 43.637 2.973 66.374-10.843 4.197-23.349 5.596-34.717 5.946-1.749-3.585-3.41-7.433-4.81-11.455-.612-1.749-17.14-44.687-23.086-54.394 4.81 34.105 15.303 64.45 20.55 78.354-3.06-.437-6.383-.612-10.231-.612H204.733a87.17 87.17 0 00-10.232.612c5.247-13.904 15.829-44.249 20.551-78.354-5.947 9.795-22.475 52.732-23.087 54.394-1.399 4.022-3.06 7.87-4.809 11.455-11.369-.35-23.786-1.749-34.718-5.946 2.187-22.737 3.761-53.519 2.974-66.374-.787-15.216-9.008-25.535-16.616-29.907zM118.421 386.08c-10.581-17.49-7.608-47.31-3.236-51.682 9.532 30.082 41.276 38.74 65.062 39.702-2.361 3.672-4.547 6.646-6.121 8.744l-1.225 1.225c-6.296 6.821-7.52 16.178-3.585 27.808-19.851-.087-40.489-8.57-50.895-25.797zm39.964 38.04a158.658 158.658 0 0016.265 2.099c3.061 6.996 6.472 13.904 10.757 20.201-12.593-5.16-21.338-13.992-27.022-22.3zm97.505 43.812c-52.994-.087-68.472-40.051-74.244-56.579-3.235-9.182-2.973-15.916.787-20.201 2.536-2.886 8.308-6.296 21.513-6.296h103.889c13.205 0 19.064 3.41 21.512 6.296 3.673 4.198 3.935 11.019.787 20.201-5.771 16.44-21.25 56.492-74.244 56.579zm70.484-21.512c4.285-6.297 7.696-13.205 10.756-20.201a158.642 158.642 0 0016.266-2.099c-5.684 8.308-14.429 17.14-27.022 22.3zm66.986-60.34c-10.494 17.227-31.132 25.623-50.808 25.972 3.935-11.63 2.711-21.075-3.585-27.808-.35-.438-.787-.875-1.225-1.312-1.574-2.099-3.76-5.072-6.121-8.745 23.786-1.049 55.53-9.619 65.062-39.702 4.372 4.373 7.346 34.193-3.323 51.595zM255.803 196.404h.175c11.106-.088 23.786-15.566 23.786-15.566-8.658 5.247-16.441 7.083-23.874 7.258-7.433-.175-15.216-2.011-23.873-7.258 0 0 12.68 15.391 23.786 15.566zm53.956 201.744h-25.71c-3.673 0-6.296.787-7.783 2.361-1.924 2.011-1.312 4.547-.787 5.859.874 2.274 4.81 9.882 11.368 16.878 2.361 2.536 5.772 3.935 9.62 3.935 3.847 0 7.608-1.399 10.318-3.673 2.012-1.749 8.92-8.045 11.981-15.828 1.137-2.886.874-5.247-.787-6.909-1.137-1.136-3.498-2.536-8.22-2.623z"/></svg>