<svg xmlns="http://www.w3.org/2000/svg" class="vicon" viewBox="0 0 512 512"><path d="M312.86 337.983l-53.523-104.421c-4.716-9.2-16.018-12.847-25.242-8.127-9.203 4.726-12.849 16.024-8.134 25.228l22.35 43.572-40.003 39.889c-7.339 7.322-7.339 19.188-.04 26.526a18.725 18.725 0 0013.269 5.507c4.8 0 9.583-1.844 13.244-5.475l31.474-31.404 13.234 25.808a18.725 18.725 0 0010.931 9.301 18.727 18.727 0 0014.306-1.163c9.206-4.717 12.851-16.015 8.133-25.241"/><path d="M384.708 47.28c-10.674 6.78 7.352 68.609-35.421 105.079-26.993-17.508-59.165-27.769-93.754-27.769-34.483 0-66.567 10.224-93.52 27.613-42.518-36.474-24.578-98.144-35.205-104.923-17.428-11.116-50.192 52.729-47.67 93.285 1.357 21.685 7.125 53.458 22.882 78.072-11.747 23.094-18.51 49.066-18.51 76.633 0 94.139 77.165 170.73 172.024 170.73 94.881 0 172.028-76.588 172.028-170.73 0-27.406-6.703-53.246-18.32-76.223 15.946-24.687 21.76-56.686 23.119-78.482 2.535-40.556-30.248-104.403-47.654-93.285h.001zM255.533 428.34c-73.923 0-134.109-59.673-134.109-133.071 0-73.364 60.186-133.06 134.109-133.06 73.969 0 134.116 59.696 134.116 133.06 0 73.402-60.147 133.071-134.116 133.071z"/></svg>