<svg xmlns="http://www.w3.org/2000/svg" class="vicon" viewBox="0 0 512 512"><path d="M416.881 32c22.043 0 39.957 17.69 40.315 39.654l.005.666v367.36c0 22.044-17.696 39.958-39.654 40.315l-.666.005H94.321c-22.045 0-39.959-17.695-40.316-39.652L54 439.68V72.32c0-22.048 17.695-39.958 39.654-40.315L94.32 32h322.561zm0 22.4H94.321c-9.725 0-17.67 7.793-17.915 17.459l-.006.461v367.36c0 9.724 7.793 17.668 17.459 17.914l.461.006h322.561c9.728 0 17.668-7.791 17.914-17.457l.006-.463V72.32c0-9.878-8.036-17.92-17.92-17.92zM154.8 323.202l50.4 44.8-50.4 44.801v-89.602.001zm44.8-224.001v127.181c22.366-7.28 53.632-15.183 84.001-15.183 27.691 0 44.267 10.888 53.295 20.021 19.071 19.294 19.525 43.817 19.5 47.088v.092l.004 134.401h-44.799V279.017c-.22-10.456-5.26-23.017-28-23.017-45.096 0-95.625 22.455-97.124 23.126l-.032.014-31.645 14.336V99.199h44.8v.002zm156.8 0c-3.024 25.445-13.34 49.839-33.599 72.799H278c17.607-23.1 28.662-47.409 33.601-72.8H356.4z"/></svg>