<svg xmlns="http://www.w3.org/2000/svg" class="vicon" viewBox="0 0 512 512"><path d="M92.667 46C66.872 46 46 66.872 46 92.667v326.666C46 445.128 66.872 466 92.667 466h326.666C445.128 466 466 445.128 466 419.333V92.667C466 66.872 445.128 46 419.333 46H92.667zm216.562 101.354h38.646v210h-35l-1.458-14.583c-3.737 5.56-13.216 17.5-30.625 17.5-15.677 0-48.125-6.016-48.125-71.458v-9.48c0-24.244 3.372-72.187 48.125-72.187 15.95 0 24.882 9.935 28.437 14.583v-74.375zm-143.646 10.938h40.105v199.062h-40.105V158.292zm126.146 80.937c-22.148 0-20.416 28.985-20.416 40.104v9.48c0 35.091 9.57 39.375 20.416 39.375 10.573 0 15.677-7.019 17.5-10.209v-67.812c-1.823-3.464-7.291-10.938-17.5-10.938z"/></svg>