<svg xmlns="http://www.w3.org/2000/svg" class="vicon" viewBox="0 0 512 512"><path d="M238.638 217.498h34.697l8.618-11.865v-92.954h-51.931v92.96l8.616 11.858v.001zm-22.367 41.462l10.721-32.996-8.622-11.868-88.404-28.724-16.049 49.392 88.417 28.727 13.937-4.53v-.001zm32.52 34.079l-28.068-20.394-13.95 4.541-54.637 75.201 42.013 30.521 54.642-75.204v-14.665zm42.465-20.394l-28.072 20.394v14.665l54.638 75.204 42.018-30.52-54.647-75.21-13.937-4.533zm-6.282-46.69l10.726 33.003 13.949 4.524 88.404-28.719-16.046-49.391-88.41 28.729-8.624 11.853.001.001zm106.687 79.793l-67.204-21.84 4.447-13.689 67.199 21.839-4.442 13.69zm-85.709-107.89l-11.645-8.459 41.53-57.171 11.648 8.458-41.533 57.172zm-99.212-.525l-41.525-57.167 11.648-8.461 41.525 57.171-11.648 8.457zm-86.704 107.556l-4.445-13.688 67.198-21.826 4.443 13.687-67.196 21.827zm128.31 93.878h14.392v-70.662h-14.391v70.662h-.001zm-104.599 51.087c-148.996-85.899-148.996-301.81 0-387.708C292.743-23.75 480 84.204 480 256c0 171.796-187.256 279.752-336.253 193.854zM434.633 256c0-137.002-149.331-223.094-268.152-154.592-118.82 68.501-118.82 240.683 0 309.185C285.301 479.094 434.634 393.002 434.634 256h-.001z"/></svg>