<svg xmlns="http://www.w3.org/2000/svg" class="vicon" viewBox="0 0 512 512"><path d="M272.08 196.249L216.421 32h236.465l-55.851 164.727a56.377 56.377 0 00-7.073 2.191L334.789 86.366l-55.333 111.887a56.163 56.163 0 00-7.376-2.004zM90.231 465.119c74.376 52.241 156.874-48.846 269.246-61.581 64.532-3.824 108.394-43.328 83.402-104.483-46.467 28.62-89.894-8.884-89.59-46.518H317.98c-1.16 33.6-26.432 60.033-65.607 56.104-30.663 45.872-66.202 71.645-106.528 84.745-27.255-12.578-52.904-43.216-41.275-84.138a56.587 56.587 0 01-14.748-3.702c-37.487 69.999-42.12 125.32.41 159.573zm55.371-212.576c0-26.587-28.979-43.293-52.036-30-23.057 13.292-23.059 46.707 0 59.999 23.057 13.294 52.036-3.412 52.036-29.999zm149.982-.33c0-26.586-28.98-43.293-52.037-29.999-23.057 13.293-23.058 46.706 0 59.998 23.058 13.294 52.036-3.412 52.036-29.999h.001zm149.418 0c0-26.586-28.979-43.293-52.037-29.999-23.057 13.293-23.058 46.706 0 59.998 23.058 13.294 52.037-3.412 52.037-29.999z"/></svg>