<svg xmlns="http://www.w3.org/2000/svg" class="vicon" viewBox="0 0 512 512"><path d="M280.251 136.535c-11.721-28.518-10.079-60.6 6.849-86.413L299.754 32c-23.404 43.86-1.12 97.723 34.714 125.961a118.383 118.383 0 0031.691 17.73c3.061 1.12 6.533 2.315 9.705 3.117 40.053 10.079 72.695 3.117 92.124-25.924-.597.896-1.362 2.315-2.333 4.106-8.66 16.051-34.005 63.028-107.502 48.283-1.4-.28-2.744-.746-4.088-1.176l-1.194-.41-.859-.28a38.713 38.713 0 00-1.194-.392 110.326 110.326 0 01-3.248-1.176c-29.582-11.273-54.945-35.013-67.319-65.304z"/><path d="M183.564 87.338c-28.686 42.833-27.119 100.186-4.741 145.501a191.162 191.162 0 0014.222 24.282c3.9 5.842 8.193 12.318 13.214 16.834 2.071 2.371 4.236 4.666 6.439 6.925l1.269 1.306.429.429a190.92 190.92 0 006.849 6.589l.019.018.037.038a199.335 199.335 0 008.679 7.409l.747.597c2.613 2.091 5.281 4.144 8.025 6.103l.112.075.131.093a83.533 83.533 0 002.669 1.848l.989.672c.585.388 1.164.786 1.735 1.194a177.886 177.886 0 005.954 3.789l.56.317.28.187a210.959 210.959 0 006.551 3.751l.578.299.747.411c.971.522 1.941 1.064 2.949 1.567l.56.28a185.707 185.707 0 008.772 4.181l.597.243a193.77 193.77 0 008.417 3.471l.56.205c1.923.747 3.845 1.419 5.786 2.091l.97.336 1.643.541c.728.224 1.456.485 2.165.728 2.034.709 4.068 1.4 6.196 1.773 148.077 25.457 182.269-92.87 182.269-92.87-30.813 46.061-90.5 68.047-154.18 50.877a178.07 178.07 0 01-8.399-2.52 52.895 52.895 0 01-2.239-.746l-.28-.094a163.865 163.865 0 01-5.861-2.09l-.056-.037a187.925 187.925 0 01-9.555-3.92l-1.046-.466a173.188 173.188 0 01-10.825-5.357l-.783-.41-2.24-1.195a180.037 180.037 0 01-6.066-3.546 192.479 192.479 0 01-11.571-7.652 204.57 204.57 0 01-8.007-6.084l-.653-.542c-.382-.308-.761-.619-1.139-.933-27.883-22.844-49.981-54.068-60.47-89.455-11.011-36.73-8.641-77.94 10.433-111.384l-23.441 34.34z"/><path d="M60.437 137.282c-39.642 59.164-34.715 136.151-4.423 199.01.56 1.213 1.175 2.408 1.772 3.584l.448.896.56 1.101c.47.978.968 1.943 1.493 2.893l.243.466 1.306 2.427.28.503a236.381 236.381 0 002.893 5.152l.318.56a177.11 177.11 0 004.684 7.708l.336.559 1.101 1.736c1.568 2.426 3.173 4.871 4.853 7.279v.019c.04.059.083.115.13.168l.448.616.374.522a284.747 284.747 0 004.442 6.122l1.68 2.202a337.004 337.004 0 0011.347 13.923l.112.131.093.093.13.15c3.96 4.46 8.056 8.798 12.281 13.008l.56.56 1.326 1.306a242.434 242.434 0 006.457 6.085l.616.56.485.41c2.336 2.086 4.7 4.139 7.092 6.159l1.046.877a238.65 238.65 0 004.815 3.882l2.557 2.035a268.74 268.74 0 005.394 4.013l.298.224 1.68 1.231.523.374c1.642 1.194 3.303 2.314 4.983 3.434l.261.186c.753.507 1.5 1.023 2.24 1.549a290.5 290.5 0 009.462 5.954l1.008.597a270.283 270.283 0 008.567 4.853l.989.541 1.101.597c1.101.598 2.184 1.195 3.303 1.773l.467.224.56.28.634.318c.374.186.766.373 1.158.597a401.488 401.488 0 006.98 3.359l.877.392.597.28a247.205 247.205 0 0017.787 7.279l.186.056.784.299a259.96 259.96 0 0012.878 4.255c2.165.728 4.349 1.437 6.588 1.866 191.807 36.32 247.518-119.634 247.518-119.634-46.79 63.27-129.843 79.974-208.548 61.385a100.199 100.199 0 01-8.772-2.557l-2.202-.69c-2.837-.896-5.655-1.867-8.455-2.856l-1.157-.429a257.883 257.883 0 01-7.465-2.874l-2.091-.859c-2.706-1.12-5.394-2.258-8.044-3.471l-.858-.374a321.888 321.888 0 01-7.54-3.62l-.766-.411c-.399-.19-.797-.383-1.194-.579l-3.994-2.109-1.269-.671c-.416-.227-.833-.451-1.251-.672l-2.239-1.232c-2.128-1.176-4.218-2.426-6.309-3.677l-.802-.466-1.307-.747a301.88 301.88 0 01-9.63-6.196l-.803-.56a236.243 236.243 0 01-22.863-17.339 281.356 281.356 0 01-6.569-5.73l-.299-.279a304.485 304.485 0 01-8.361-7.989 207.326 207.326 0 01-4.666-4.759l-.635-.634a255.224 255.224 0 01-7.092-7.727l-.112-.112-.037-.056a259.136 259.136 0 01-5.823-6.868l-1.531-1.885a261.29 261.29 0 01-5.729-7.372c-1.643-2.24-3.266-4.442-4.853-6.701-43.673-61.851-59.369-147.181-24.45-217.244l-30.962 40.761z"/></svg>