<svg xmlns="http://www.w3.org/2000/svg" class="vicon" viewBox="0 0 512 512"><path d="M221.952 32v120.512l33.6 46.144 33.6-46.144V32h-67.2zm67.2 120.512v57.344l54.208-17.92 71.232-97.216-54.656-39.872-70.784 97.664zm54.208 39.424l-33.6 46.592L364.416 256l114.688-37.184-21.056-64.064-114.688 37.184zM364.416 256l-54.656 17.472 33.6 46.592 114.688 37.184 21.056-64.064L364.416 256zm-21.056 64.064l-54.208-17.92v57.344l70.784 97.664 54.656-39.872-71.232-97.216zm-54.208 39.424l-33.6-46.144-33.6 46.144V480h67.2V359.488zm-67.2 0v-57.344l-54.208 17.92-71.232 97.216 54.656 39.872 70.784-97.664zm-54.208-39.424l33.6-46.592L146.688 256 32 293.184l21.056 64.064 114.688-37.184zM146.688 256l54.656-17.472-33.6-46.592-114.688-37.184L32 218.816 146.688 256zm21.056-64.064l54.208 17.92v-57.344l-70.784-97.664L96.512 94.72l71.232 97.216z"/></svg>