<svg xmlns="http://www.w3.org/2000/svg" class="vicon" viewBox="0 0 512 512"><path d="M472.936 133.353a4.894 4.894 0 00-.245-.595 7.46 7.46 0 00-.463-1.094 5.27 5.27 0 00-.473-.621 8.222 8.222 0 00-.63-.823c-.201-.192-.455-.35-.674-.525a7.733 7.733 0 00-.787-.595l-84.228-48.492a6.999 6.999 0 00-7 0l-84.245 48.519c-.27.183-.527.385-.77.603a6.941 6.941 0 00-.682.525c-.229.256-.44.528-.63.814-.149.21-.341.394-.473.621a8.495 8.495 0 00-.455 1.094c-.07.201-.183.385-.245.595a7.083 7.083 0 00-.245 1.82v92.085L220.499 267.7V87.512a6.848 6.848 0 00-.245-1.83c-.053-.21-.175-.393-.245-.594a7.345 7.345 0 00-.455-1.085c-.123-.228-.324-.411-.473-.63a8.147 8.147 0 00-.63-.823 8.325 8.325 0 00-.682-.525 8.66 8.66 0 00-.77-.595l-84.254-48.492a6.999 6.999 0 00-7 0L41.509 81.43c-.274.18-.531.381-.77.604-.241.16-.472.336-.691.525a7.127 7.127 0 00-.622.814c-.157.219-.35.402-.481.63-.18.348-.329.711-.446 1.085-.096.19-.18.386-.254.586-.16.6-.243 1.217-.245 1.838v288.487a7.001 7.001 0 003.5 6.081l168.438 96.985c.374.189.763.347 1.163.473.184.07.359.175.552.227a6.926 6.926 0 003.587 0c.175-.043.324-.14.481-.192a7.494 7.494 0 001.225-.508l168.49-96.985a6.993 6.993 0 003.5-6.081v-92.102l80.71-46.472a6.991 6.991 0 003.5-6.125v-96.118a7.512 7.512 0 00-.21-1.829zm-343.7-86.231l70.167 40.38-70.175 40.408L59.07 87.512l70.166-40.39zm77.219 52.5v176.155l-40.714 23.441-29.478 16.975V140.064l40.713-23.441 29.479-17.001zm0 361.182l-154.42-88.865V99.657l29.479 16.957 40.705 23.45v188.283c.018.264.053.527.105.787.021.347.068.692.14 1.033.089.271.2.534.332.787.098.302.221.594.368.875.162.237.337.465.525.683.175.258.368.503.577.735.202.192.455.332.674.507.239.208.49.4.753.578l80.666 45.657.096 80.815zm7-92.899l-70.052-39.655 73.578-42.358 80.728-46.472 70.114 40.364-51.45 29.365-102.918 58.756zm161.455 3.999l-154.429 88.944v-80.771l114.38-65.275 40.049-22.882v79.984zm0-104.239l-29.479-16.913-40.713-23.442v-79.992l29.478 16.975 40.714 23.459v79.913zm7-92.12l-70.175-40.398 70.175-40.39 70.158 40.381-70.158 40.407zm7 92.12v-79.913l40.801-23.459 29.47-16.975v79.966l-70.271 40.381z"/></svg>