<svg xmlns="http://www.w3.org/2000/svg" class="vicon" viewBox="0 0 512 512"><path d="M460.862 229.875c0-14.343 2.196-22.814 2.196-38.254 0-23.912-8.807-31.621-28.304-31.621h-14.365v16.92h4.393c9.95 0 12.146 3.294 12.146 15.44 0 11.407-1.098 22.814-1.098 36.036 0 16.919 5.513 23.53 16.561 26.107v1.098c-11.048 2.6-16.561 9.211-16.561 26.131 0 13.244 1.098 23.911 1.098 36.035 0 12.505-2.555 15.799-12.146 15.799v.381h-4.393v17.659h14.365c19.497 0 28.304-7.709 28.304-31.62 0-15.822-2.196-23.912-2.196-38.254 0-7.732 4.773-15.822 19.138-16.561v-19.116c-14.387-.359-19.138-8.449-19.138-16.18zm-73.931 22.432c-11.048-4.392-21.334-6.992-21.334-14.342 0-5.513 4.414-8.852 12.504-8.852s15.441 3.316 23.531 9.21l14.723-19.497c-9.165-7.014-21.693-14.364-38.635-14.364-24.987 0-41.929 14.364-41.929 34.601 0 18.017 15.822 27.206 29.088 32.338 11.385 4.392 22.433 8.09 22.433 15.44 0 5.513-4.415 9.188-14.365 9.188-9.188 0-18.399-3.675-28.304-11.407l-14.723 21.335c11.025 9.188 27.945 15.44 41.929 15.44 29.424 0 45.246-15.44 45.246-35.676-.023-20.17-15.844-28.618-30.164-33.414zm-251.217 41.548c-2.555 0-5.872-2.196-5.872-9.188V160h-52.26c-19.855 0-28.662 7.709-28.662 31.621 0 15.821 2.218 24.673 2.218 38.254 0 7.731-4.773 15.821-19.138 16.561v19.116c14.365.38 19.138 8.471 19.138 16.202 0 13.581-2.218 21.693-2.218 37.514 0 23.912 8.83 31.621 28.326 31.621h14.342v-16.92h-4.414c-9.21 0-12.147-3.675-12.147-15.821 0-12.124 1.099-22.433 1.099-36.013 0-16.942-5.491-23.531-16.54-26.108v-1.143c11.049-2.554 16.54-9.165 16.54-26.107 0-13.222-1.099-23.89-1.099-36.013 0-12.147 2.555-15.441 12.147-15.441h9.905v105.574c0 22.432 7.731 37.133 30.164 37.133 7.014 0 12.527-1.12 16.561-2.577l-3.698-23.889c-2.196.291-3.272.291-4.392.291zm162.204-41.548c-11.407-4.392-21.715-6.992-21.715-14.342 0-5.513 4.414-8.852 12.505-8.852 8.09 0 15.44 3.316 23.552 9.21l14.702-19.497c-9.189-7.014-21.693-14.364-38.613-14.364-25.01 0-41.952 14.364-41.952 34.601 0 18.017 15.844 27.206 29.066 32.338 11.429 4.392 22.455 8.09 22.455 15.44 0 5.513-4.415 9.188-14.365 9.188-9.188 0-18.376-3.675-28.326-11.407l-14.343 21.335c11.026 9.188 27.946 15.44 41.93 15.44 29.424 0 45.246-15.44 45.246-35.676.022-20.17-15.8-28.618-30.142-33.414zm-108.51-48.182c-26.847 0-52.596 22.433-51.857 57.751 0 36.394 23.89 57.729 55.555 57.729 13.244 0 27.945-4.796 39.352-12.505l-11.026-19.497c-8.067 4.773-15.821 6.992-23.889 6.992-14.723 0-26.107-6.992-29.066-23.889h66.581c.381-2.577 1.098-7.732 1.098-13.603.358-29.806-15.844-52.978-46.748-52.978zm-20.953 46.345c2.219-14.679 11.026-21.716 21.312-21.716 13.267 0 18.399 9.211 18.399 21.716h-39.711z"/></svg>