<svg xmlns="http://www.w3.org/2000/svg" class="vicon" viewBox="0 0 512 512"><path d="M311.091 32.033c-4.928.288-9.723 2.48-13.184 6.423-16.732 18.847-31.927 39.24-44.812 60.588H93.831C66.906 99.044 45 120.95 45 147.875v229.242c0 26.925 21.906 48.868 48.83 48.868h179.248c5.962 15.771 13.832 31.149 23.063 45.188 3.654 5.769 9.843 8.827 16.189 8.827 3.462 0 7.098-1.152 10.368-3.268 8.846-5.77 11.328-17.672 5.559-26.519-5-7.693-9.606-15.766-13.26-24.228h103.297c26.732 0 48.643-21.943 48.643-48.868V147.875c0-26.925-21.911-48.831-48.643-48.831H298.846c8.654-12.309 17.875-23.854 27.683-35.008 7.116-7.885 6.345-20.197-1.54-27.12a19.023 19.023 0 00-13.898-4.883zm-35.722 105.475h142.925c5.577 0 10.179 4.597 10.179 10.367v229.242c0 4.327-2.584 8.01-6.235 9.578a9.976 9.976 0 01-3.944.827H301.55c-1.346-5.385-2.311-10.805-3.08-16.19-.192-1.346-.376-2.677-.376-3.831 35.387-3.462 70.565-12.513 103.259-26.744 9.616-4.424 14.227-15.739 9.804-25.355-4.231-9.808-15.396-14.26-25.205-10.029a295.505 295.505 0 01-65.846 20.359 301.826 301.826 0 01-22.8 3.305c1.538-18.462 5.581-34.024 9.428-45.563 2.308-6.923 1.155-14.622-3.268-20.584-4.231-5.962-11.168-9.616-18.669-9.616H234.99c5.577-31.732 15.202-62.715 28.472-92.14 3.654-8.077 7.676-15.934 11.907-23.626zm-116.33 39.215h.188c10.577 0 19.232 8.466 19.232 19.044l.187 37.674c0 10.578-8.466 19.458-19.044 19.458h-.187c-10.578 0-19.232-8.655-19.232-19.232l-.188-37.525c0-10.77 8.466-19.419 19.044-19.419zm192.319 0c-10.578 0-19.044 8.842-19.044 19.419l.187 36.36c.193 10.578 8.655 19.044 19.232 19.044h.188c10.578 0 19.236-8.649 19.044-19.419l-.188-36.36c0-10.578-8.457-18.852-19.419-19.044zM137.516 303.27c2.494.057 5.023.622 7.475 1.728 35.386 15.577 72.903 24.238 111.56 25.392h2.103a214.255 214.255 0 00-.376 18.593c.145 6.419.583 13.043 1.353 19.87-1.347.193-2.899 0-4.245 0-43.656-1.346-85.981-10.962-125.984-28.847-9.808-4.231-14.034-15.584-9.803-25.393 3.317-7.211 10.434-11.515 17.917-11.343z"/></svg>