<svg xmlns="http://www.w3.org/2000/svg" class="vicon" viewBox="0 0 512 512"><path d="M464.264 113.885c-12.619 5.301-14.747 5.786-31.229 6.944-12.134.84-14.131 1.064-22.624 3.901-14 4.592-26.04 14-37.707 29.68-5.525 7.429-23.315 35.709-23.315 37.109 0 1.064-12.133 18.63-17.08 24.64-10.714 13.31-20.16 20.142-39.946 29.68-14.374 6.72-22.848 9.782-76.571 27.571-20.029 6.589-39.816 13.776-44.184 16.128-15.904 8.381-28.28 19.339-41.123 36.176-18.722 24.64-18.144 24.509-56.784 17.677-4.188-.508-8.39-.9-12.6-1.176-12.021-.933-19.096.822-24.864 6.235L32 352.463l3.304 1.643c1.755.933 6.59 4.368 10.472 7.429 4.013 3.174 8.605 6.478 10.267 7.299 1.642.821 3.173 1.643 3.416 1.885.224.243-1.662 3.174-4.256 6.59-8.12 10.845-11.07 16.258-10.715 19.562.355 3.062.597 3.174 8.027 3.174 9.65-.112 15.418-1.046 23.538-3.883 12.134-4.349 38.416-17.547 51.968-26.133 14.486-9.334 32.051-18.63 36.512-19.451 1.531-.373 6.608-1.307 11.088-2.128 10.827-1.997 27.328-1.773 48.291.933 2.016.243 6.963.84 11.2 1.195 4.237.467 8.027 1.064 8.475 1.419.485.224 8.848.69 18.629 1.045 17.435.485 20.608.131 24.267-3.528 2.352-2.483 7.186-11.779 9.296-18.387 3.901-12.002 7.784-17.192 6.832-9.184-2.11 18.032-6.011 31.584-13.31 45.006-4.834 9.314-12.376 20.384-17.434 26.04-6.011 6.477-5.88 6.72 1.642 5.88 11.555-1.176 27.459-7.411 39.126-15.307 15.437-10.491 30.744-31.565 40.88-56.56 1.997-5.04 4.106-4.107 3.416 1.549-.243 1.755-.71 5.88-1.064 9.296l-.579 6.123 6.589-3.771c15.55-8.96 26.395-23.557 39.704-53.834 4.238-9.67 16.371-54.544 20.03-74.219a179.907 179.907 0 015.058-19.451c2.371-8.008 3.659-10.36 8.96-16.016 3.416-3.546 11.667-10.36 18.256-15.082 13.44-9.427 17.79-14 22.158-22.494 3.882-7.784 5.301-21.093 2.464-25.33-2.464-3.771-5.302-3.659-14.243.112z"/></svg>