<svg xmlns="http://www.w3.org/2000/svg" class="vicon" viewBox="0 0 512 512"><path d="M256 32C132.371 32 32 132.371 32 256s100.371 224 224 224 224-100.371 224-224S379.629 32 256 32zm0 14c53.592 0 102.331 20.197 139.421 53.2H116.56A209.01 209.01 0 01256 46zm-134.139 67.2h268.278L256 381.496 121.861 113.2zM99.2 116.56v278.88A209.01 209.01 0 0146 256c0-53.573 20.197-102.312 53.2-139.403v-.037zm313.6 0A209.01 209.01 0 01466 256c0 53.592-20.197 102.331-53.2 139.421V116.56zM113.2 127.2L249 398.8H113.2V127.2zm285.6 0v271.6H263l135.819-271.6h-.019zM116.616 412.8h278.805A209.009 209.009 0 01256 466a209.014 209.014 0 01-139.403-53.2h.019z"/></svg>