<svg xmlns="http://www.w3.org/2000/svg" class="vicon" viewBox="0 0 512 512"><path d="M239.723 166.271c-9.254 7.798 54.975-8.525 48.55 23.113-6.202 30.477-67.589-6.426-134.8-3.29-29.749 1.4-57.02 9.926-74.38 31.135 18.158-20.705 54.109-15.735 44.785-1.526-21.951 33.192-63.067 9.254-91.878 74.239 3.43-7.504 12.767-22.301 53.086-28.503 29.608-4.536 78.676-.294 94.341 24.191 17.206 26.991-70.206 23.925-21.797 29.399 67.085 7.573 117.539 61.751 183.168 61.751 84.949 0 138.538-43.3 139.196-114.683 1.162-129.2-169.896-155.239-240.243-95.812l-.028-.014zm126.344 141.016c-22.301-.672-44.91-9.562-62.773-18.311-44.182-21.573-62.339-29.021-62.339-30.029 0-1.246 26.543 9.03 71.173-14.727 25.814-13.72 26.752-25.661 53.939-28.069 32.311-2.856 55.27 21.069 55.27 46.212 0 25.241-22.735 45.792-55.27 44.924z"/></svg>