<svg xmlns="http://www.w3.org/2000/svg" class="vicon" viewBox="0 0 512 512"><path d="M256 32C132.254 32 32 132.254 32 256s100.254 224 224 224 224-100.254 224-224S379.746 32 256 32zm116.298 303.184a7.003 7.003 0 01-7 7h-29.246a7 7 0 01-6.93-7v-90.132c0-.728-.882-1.092-1.456-.588l-61.978 61.978a13.876 13.876 0 01-19.474 0l-61.978-61.978c-.504-.504-1.526-.14-1.526.588v90.132c0 3.864-3.066 7-6.93 7h-29.246a6.905 6.905 0 01-4.934-2.046 6.9 6.9 0 01-1.996-4.954V176.802a6.884 6.884 0 016.93-6.93h20.048c3.724 0 7.224 1.456 9.842 4.088l77.07 77.07c1.316 1.386 3.5 1.386 4.886 0l77.07-77.07a13.66 13.66 0 019.772-4.088h20.048c3.864 0 7 3.066 7 6.93l.028 158.382z"/></svg>