<svg xmlns="http://www.w3.org/2000/svg" class="vicon" viewBox="0 0 512 512"><path d="M256 46C139.975 46 46 134.935 46 244.66c0 59.115 30.24 111.405 73.5 147.84l1.47 47.46c-.42 19.425 20.685 31.815 37.485 22.05l40.215-26.355c18.27 4.935 37.38 7.665 57.33 7.665 116.025 0 210-88.935 210-198.66S372.025 46 256 46zm112.35 154.455l-.21.21-65.835 87.36c-8.19 10.815-23.625 13.02-34.44 4.83l-1.47-1.155-2.52-2.205-36.225-31.92-69.51 48.09c-4.83 3.36-11.445 2.1-14.7-2.625-2.73-3.885-2.52-8.925.21-12.495l.21-.21 65.835-87.36c8.19-10.815 23.625-13.02 34.44-4.83l1.47 1.155 2.52 2.205 36.225 31.92 69.51-48.09c4.83-3.36 11.445-2.1 14.7 2.625 2.73 3.885 2.52 8.925-.21 12.495z"/></svg>