<svg xmlns="http://www.w3.org/2000/svg" class="vicon" viewBox="0 0 512 512"><path d="M32 36L415.678 442.41s13.071 9.219 23.067-1.537c9.995-10.756 2.306-21.512 2.306-21.512L32 36zM153.493 74.502l292.179 314.985s13.071 9.219 23.067-1.537c9.995-10.756 2.306-21.511 2.306-21.511L153.492 74.501h.001zM68.15 156.536l292.179 314.985s13.071 9.219 23.066-1.537c9.996-10.756 2.307-21.512 2.307-21.512L68.149 156.535v.001zM256.173 107.533L460.3 327.594s9.133 6.442 16.116-1.073c6.983-7.515 1.611-15.029 1.611-15.029L256.171 107.533h.002zM96.26 251.913L300.39 471.974s9.133 6.441 16.116-1.074c6.982-7.515 1.611-15.028 1.611-15.028L96.26 251.913zM361.092 155.003l92.517 100.043s4.518 3.018 7.973-.503c3.454-3.521.797-7.042.797-7.042l-101.287-92.498zM147.339 353.197l92.519 100.043s4.517 3.018 7.972-.503c3.456-3.521.797-7.042.797-7.042L147.34 353.197h-.001z"/></svg>