<svg xmlns="http://www.w3.org/2000/svg" class="vicon" viewBox="0 0 512 512"><path d="M151.96 138.965c0-3.519 1.286-6.565 3.858-9.137s5.618-3.858 9.137-3.858c3.52 0 6.566 1.286 9.138 3.858s3.858 5.618 3.858 9.137c0 3.52-1.286 6.566-3.858 9.137-2.572 2.572-5.618 3.858-9.138 3.858-3.519 0-6.565-1.286-9.137-3.858-2.572-2.571-3.858-5.617-3.858-9.137zm311.882 324.877a246.455 246.455 0 00-5.889-2.234c-2.572-.948-7.445-3.046-14.619-6.294a333.546 333.546 0 01-20.914-10.356c-6.768-3.655-14.281-8.528-22.538-14.619-8.258-6.092-15.5-12.522-21.727-19.29-5.414-3.79-13.401-11.37-23.959-22.741 5.685-3.79 14.416-6.971 26.193-9.543 11.777-2.572 22.132-4.264 31.066-5.077l13.401-.812c0-4.331-3.857-8.866-11.573-13.604-7.716-4.738-16.718-9.069-27.006-12.995-10.287-3.926-21.455-9.408-33.502-16.447-12.048-7.039-21.456-14.484-28.224-22.335-5.144-5.956-9.882-12.521-14.213-19.696-4.332-7.174-9.341-16.514-15.026-28.02a9165.793 9165.793 0 00-9.746-19.696c-5.415-8.393-13.198-19.763-23.351-34.112-10.152-14.349-16.582-23.689-19.289-28.02-8.393-12.996-23.08-29.239-44.062-48.732-20.981-19.493-36.616-29.239-46.904-29.239-6.768 0-12.995 1.354-18.68 4.061-27.614-20.034-43.046-30.05-46.295-30.05-3.52 0-6.565 1.285-9.137 3.857s-3.858 5.618-3.858 9.137c0 2.166 4.196 9.746 12.59 22.741 8.392 12.996 17.326 25.991 26.801 38.986a243.211 243.211 0 002.031 13.807c.812 4.602 1.557 8.528 2.233 11.777.677 3.248 1.895 7.106 3.655 11.573a2346.25 2346.25 0 003.858 9.747c.812 2.03 2.504 5.347 5.076 9.949a1656.77 1656.77 0 004.67 8.325c.542.947 2.302 3.858 5.28 8.731 2.978 4.873 4.602 7.445 4.873 7.716-2.437-.271-4.467-.406-6.092-.406-3.79 0-6.903 6.023-9.34 18.071-2.436 12.047-3.655 27.682-3.655 46.904 0 4.332 3.52 12.724 10.559 25.178 8.392 14.619 13.401 17.056 15.025 7.31.271-1.625.406-3.791.406-6.498 0-22.2 6.769-34.924 20.305-38.173 15.973 31.676 29.645 57.53 41.016 77.564 11.37 20.034 22.606 36.955 33.706 50.762-22.471-17.327-46.431-45.889-71.879-85.686-2.437 9.205-5.753 17.259-9.95 24.163-4.196 6.903-8.595 10.355-13.198 10.355-8.122 0-16.379-4.738-24.771-14.213-8.393-9.476-15.026-20.237-19.899-32.285-4.873-12.047-7.31-22.538-7.31-31.472 0-8.393 1.083-18.477 3.249-30.254 2.166-11.777 5.008-21.862 8.528-30.254-6.498-9.205-11.574-18.342-15.229-27.412-3.654-9.069-6.294-21.184-7.919-36.345-1.353-2.437-3.248-5.956-5.685-10.559C59.641 104.583 48 80.217 48 73.99c0-7.039 2.572-13.13 7.716-18.274S66.95 48 73.99 48c5.685 0 16.244 2.978 31.676 8.934 15.431 5.956 27.479 11.912 36.142 17.868 3.79-.541 7.174-.812 10.152-.812 12.995 0 30.931 9.34 53.808 28.021 22.877 18.68 39.594 35.33 50.153 49.949.271.271 3.384 4.535 9.34 12.792 5.956 8.258 9.679 13.469 11.168 15.635 1.489 2.166 4.805 6.904 9.949 14.213 5.144 7.31 8.799 12.86 10.965 16.65 2.165 3.791 5.076 8.664 8.731 14.62 3.654 5.956 6.632 11.37 8.934 16.244 2.301 4.873 4.264 9.475 5.888 13.807 4.873 11.912 13.13 23.012 24.772 33.3 11.641 10.287 23.959 18.951 36.955 25.99a4445.737 4445.737 0 0138.172 20.914c12.454 6.903 22.742 14.551 30.864 22.944 8.122 8.393 12.183 17.327 12.183 26.802-3.791.271-8.731.677-14.823 1.219-6.091.541-15.567 2.098-28.427 4.67-12.859 2.572-22.132 5.753-27.817 9.543 5.415 6.768 14.146 14.822 26.193 24.163 12.048 9.34 22.538 17.394 31.472 24.162 8.935 6.769 13.402 11.506 13.402 14.214z"/></svg>