<svg xmlns="http://www.w3.org/2000/svg" class="vicon" viewBox="0 0 512 512"><path d="M65.046 64.886A105.921 105.921 0 01140.295 32h235.14c25.606 0 49.518 11.242 71.525 32.886A101.231 101.231 0 01480 138.37v238.374c0 25.018-10.43 48.202-31.36 69.621a107.578 107.578 0 01-75.977 33.614H141.597a117.431 117.431 0 01-76.551-29.302c-20.146-18.311-31.136-44.785-33.04-80.289V138.945a97.13 97.13 0 0133.04-74.073v.014zm116.66 154.879l148.006 187.822h39.591c9.128-1.162 16.408-3.71 21.798-8.022 5.614-4.298 9.338-10.486 11.97-18.662v-92.23c1.526-17.71 12.544-28.728 33.026-32.662-20.482-7.434-31.486-19.04-33.026-34.706v-88.086c-2.184-8.246-6.118-14.952-11.97-19.978a34.111 34.111 0 00-20.342-8.834h-40.095V294.79L181.706 104.267h-41.649c-10.43 1.834-18.088 5.614-23.338 11.158-5.166 5.614-8.61 14.574-10.066 26.67v90.564c-6.566 12.894-16.758 20.566-30.758 23.338 15.806 2.982 26.096 11.368 30.758 25.368v89.038c.378 10.29 3.71 18.662 10.066 25.592 6.202 6.706 13.048 9.912 20.566 9.338h44.029l.392-185.568z"/></svg>