<svg xmlns="http://www.w3.org/2000/svg" class="vicon" viewBox="0 0 512 512"><path d="M356.326 187.476l-.187-.074c-.074-.038-.186-.075-.261-.15a1.286 1.286 0 01-.317-1.101l9.016-55.215 42.372 42.373-44.052 18.74a.964.964 0 01-.374.075h-.186a1.192 1.192 0 01-.243-.187 20.044 20.044 0 00-5.787-4.479l.019.018zm61.412-3.36l45.303 45.266c9.408 9.426 14.112 14.13 15.829 19.562.261.803.467 1.624.635 2.445l-108.227-45.825a6.072 6.072 0 00-.187-.075c-.429-.187-.933-.373-.933-.821 0-.448.522-.653.952-.821l.149-.075 46.479-19.656zm59.919 81.814c-2.334 4.387-6.907 8.96-14.616 16.669l-51.052 51.053-66.041-13.757-.336-.075c-.598-.093-1.214-.187-1.214-.728a19.92 19.92 0 00-7.653-13.925c-.261-.28-.186-.691-.112-1.083l.019-.168 12.432-76.251.037-.243c.075-.597.187-1.269.709-1.269a20.216 20.216 0 0013.552-7.765c.093-.131.187-.243.317-.318.374-.186.803 0 1.195.168l112.744 47.692h.019zm-77.409 79.463l-83.961 83.961 14.373-88.329.019-.131c.012-.114.037-.227.074-.336.112-.28.43-.392.71-.504l.149-.056a21.617 21.617 0 008.12-6.048c.28-.336.616-.653 1.045-.709.111-.018.225-.018.336 0l59.135 12.152zM298.517 447.124l-9.464 9.464-104.624-151.216a7 7 0 00-.112-.168c-.168-.224-.336-.448-.299-.709 0-.187.112-.336.243-.485l.13-.15c.318-.466.56-.933.878-1.437l.224-.411.037-.037c.168-.28.317-.56.597-.691.243-.13.579-.074.859 0l115.917 23.893c.319.049.621.177.878.373.149.15.186.318.224.504a20.526 20.526 0 0012.002 13.739c.336.168.187.522.037.914a2.783 2.783 0 00-.186.523l-17.341 105.894zm-19.768 19.749c-6.962 6.906-11.088 10.565-15.735 12.039a23.357 23.357 0 01-14.093 0c-5.432-1.736-10.155-6.439-19.563-15.847L124.286 357.992l27.439-42.559c.12-.219.286-.41.486-.56.28-.186.709-.112 1.064 0a28.442 28.442 0 0019.133-.97c.317-.112.634-.187.877.037.119.112.225.238.317.373l105.147 152.578v-.018zm-164.58-119.016l-24.117-24.098 47.599-20.309a.977.977 0 01.392-.075c.392 0 .635.392.84.747.476.741.98 1.463 1.512 2.165l.168.187c.131.186.037.373-.093.56l-26.301 40.823zm-34.775-34.738l-30.501-30.52A176.388 176.388 0 0137.32 270.41l92.734 19.227c.118.02.236.039.354.056.56.093 1.195.205 1.195.746 0 .579-.691.859-1.269 1.064l-.262.131-50.678 21.485zM32 254.731c.103-1.965.455-3.91 1.045-5.787 1.736-5.432 6.44-10.136 15.867-19.562l39.012-39.013a25196.994 25196.994 0 0054.039 78.119c.317.429.672.896.317 1.25a32.516 32.516 0 00-4.629 6.16 1.864 1.864 0 01-.56.728c-.168.094-.336.056-.504.019h-.019L32 254.712v.019zm66.359-74.815l52.47-52.452c4.947 2.147 22.885 9.725 38.938 16.501 12.152 5.152 23.221 9.819 26.693 11.331.373.149.691.28.84.634.093.206.037.486 0 .71a23.416 23.416 0 006.104 21.354c.354.354 0 .858-.299 1.288l-.168.242-53.273 82.505a1.656 1.656 0 01-.504.598c-.28.186-.672.093-1.008 0a26.521 26.521 0 00-6.347-.859c-1.923 0-3.994.373-6.104.747-.242.037-.448.074-.634-.056a2.447 2.447 0 01-.523-.598l-56.186-81.945zm63.091-63.073l67.89-67.926c9.407-9.39 14.111-14.112 19.562-15.83a23.371 23.371 0 0114.093 0c5.45 1.718 10.154 6.44 19.562 15.83l14.728 14.746-48.327 74.814a1.802 1.802 0 01-.467.56c-.298.187-.709.112-1.064 0a24.503 24.503 0 00-22.418 4.312c-.317.336-.784.15-1.195-.037-6.309-2.744-55.382-23.482-62.401-26.45l.037-.019zm146.101-42.932l44.613 44.612-10.752 66.564v.187a1.584 1.584 0 01-.094.429c-.112.243-.354.28-.578.355a21.367 21.367 0 00-6.403 3.173 1.76 1.76 0 00-.242.205c-.131.149-.262.28-.467.299a1.331 1.331 0 01-.504-.075l-67.964-28.895-.131-.056c-.448-.187-.952-.374-.952-.822a25.666 25.666 0 00-3.621-10.695c-.336-.542-.69-1.102-.41-1.643l47.505-73.638zm-45.937 100.517l63.726 26.992c.355.168.747.317.877.691.059.213.059.439 0 .653a15.863 15.863 0 00-.336 3.08v1.792c0 .429-.466.616-.877.802l-.131.038c-10.098 4.312-141.732 60.441-141.919 60.441-.205 0-.411 0-.616-.187-.355-.373 0-.84.317-1.306.057-.074.113-.149.168-.224l52.359-81.086.093-.131c.299-.485.654-1.045 1.214-1.045l.522.074c1.195.187 2.24.318 3.304.318 7.952 0 15.307-3.864 19.749-10.472.11-.178.249-.335.411-.467.317-.243.784-.112 1.139.037zm-72.985 107.331l143.487-61.188s.205 0 .411.187a20.166 20.166 0 002.09 1.811l.318.186c.28.168.578.355.597.654l-.019.298-12.301 75.505-.037.299c-.075.579-.168 1.251-.709 1.251a20.186 20.186 0 00-16.053 9.893l-.056.093c-.168.261-.318.523-.579.672-.243.112-.56.056-.821 0l-114.425-23.594c-.112-.019-1.773-6.067-1.903-6.085v.018z"/></svg>