<svg xmlns="http://www.w3.org/2000/svg" class="vicon" viewBox="0 0 512 512"><path d="M256.04 32L62 144v224l194.04 112 194.04-112V144L256.04 32zm112 309.68c0 13.202-12.04 24.066-28.504 24.066-11.816 0-25.242-4.746-33.614-15.106l-112-133.28v124.32c0 13.426-10.64 24.066-23.842 24.066h-1.4a24.25 24.25 0 01-24.066-24.066V170.32c0-13.202 11.746-24.066 28-24.066 12.04 0 25.746 4.746 34.118 15.106l111.426 133.28V170.32c0-13.482 11.242-24.066 24.136-24.066h1.386a24.222 24.222 0 0124.066 24.066v171.36h.294z"/></svg>