<svg xmlns="http://www.w3.org/2000/svg" class="vicon" viewBox="0 0 512 512"><path d="M448.558 178.558l-13.342-7.434C455.781 141.81 468.03 97.852 452.645 32c0 0-34.634 93.837-104.336 90.771l-81.517-45.358a22.192 22.192 0 00-10.066-2.841h-1.89a21.9 21.9 0 00-9.995 2.841l-81.588 45.358C93.551 125.907 58.917 32 58.917 32c-15.385 65.838-3.136 109.81 17.43 139.124l-13.342 7.434C56.229 182.198 52 189.281 52 197.009l.364 272.327c0 3.794 2.044 7.293 5.544 9.183a10.704 10.704 0 0010.864 0l108.06-59.79a21.285 21.285 0 0011.003-18.451V273.039c0-7.588 4.158-14.658 11.003-18.381l46.002-25.591c3.36-1.89 7.139-2.912 11.003-2.912 3.724 0 7.588.952 10.934 2.912l46.001 25.591c6.776 3.723 10.933 10.793 10.933 18.381v127.239c0 7.587 4.228 14.503 11.004 18.451l108.06 59.79a10.959 10.959 0 0011.003 0 10.426 10.426 0 005.39-9.183l.364-272.327a20.941 20.941 0 00-11.003-18.451h.028z"/></svg>