<svg xmlns="http://www.w3.org/2000/svg" class="vicon" viewBox="0 0 512 512"><path fill-rule="evenodd" clip-rule="evenodd" d="M168.357 411.439a16.54 16.54 0 01-.886-1.821 23.324 23.324 0 01-1.586-13.159H59.997L217.356 119.54l51.661 90.813 14.98-26.506-45.033-79.334c-1.26-2.287-8.867-14.513-21.98-14.513-5.926 0-14.42 2.566-21.326 14.7L36.245 384.979c-1.353 2.426-7.934 15.167-1.4 26.46 2.986 5.133 9.334 11.246 23.333 11.246h133.513c-13.907 0-20.348-6.02-23.334-11.246z"/><path fill-rule="evenodd" clip-rule="evenodd" d="M475.25 384.976L344.259 154.21c-1.354-2.426-8.915-14.7-22.076-14.7-5.925 0-14.418 2.521-21.326 14.653l-16.939 29.682 15.073 26.504 23.334-41.297 129.593 227.405h-49.28c.63 3.758.277 7.617-1.028 11.2a14.238 14.238 0 01-1.025 2.286l-.421.841c-6.626 11.291-20.954 11.899-23.752 11.899h77.092c2.846 0 17.126-.606 23.754-11.899 2.941-5.135 5.04-13.767-2.008-25.808z"/><path fill-rule="evenodd" clip-rule="evenodd" d="M400.116 410.776l.42-.841c.408-.731.753-1.496 1.026-2.286a22.075 22.075 0 001.027-11.2 34.097 34.097 0 00-4.294-11.481l-99.26-174.625-15.165-26.506-15.073 26.504-99.215 174.627a35.368 35.368 0 00-3.825 11.481 23.34 23.34 0 001.446 13.159c.258.625.554 1.233.886 1.821 2.987 5.133 9.334 11.246 23.334 11.246h184.8c2.94 0 17.267-.606 23.893-11.899zM283.87 236.849l90.72 159.6H193.197l90.673-159.6z"/></svg>