<svg xmlns="http://www.w3.org/2000/svg" class="vicon" viewBox="0 0 512 512"><path d="M194.888 412.177c0 17.853.199 34.928.319 45.528a12.297 12.297 0 008.408 11.556 213.023 213.023 0 00127.797 1.814l5.818-1.734a13.351 13.351 0 009.524-12.712c.1-14.605.339-40.188.339-70.334 0-27.337-9.504-44.831-20.542-53.936 67.724-7.293 138.875-32.079 138.875-143.996 0-32.079-11.796-57.981-31.202-78.384 3.048-7.293 13.708-37.18-3.049-77.268 0 0-25.503-8.03-83.704 29.887a294.083 294.083 0 00-76.112-9.843c-25.862 0-51.744 3.288-76.092 9.843-58.201-37.578-83.704-29.887-83.704-29.887-16.737 40.088-6.097 69.975-3.049 77.268a110.882 110.882 0 00-31.202 78.384c0 111.538 70.773 136.683 138.497 143.996-8.747 7.292-16.737 20.044-19.387 38.992-17.514 7.651-61.268 20.045-88.665-24.049-5.698-8.767-22.834-30.265-46.803-29.887-25.504.359-10.281 13.848.398 19.327 12.912 6.914 27.756 32.796 31.183 41.185 6.097 16.398 25.882 47.739 102.353 34.27v-.02z"/></svg>