<svg xmlns="http://www.w3.org/2000/svg" class="vicon" viewBox="0 0 512 512"><path d="M260.667 111c-17.773 0-35.371 3.5-51.79 10.302a135.335 135.335 0 0051.79 260.365 135.34 135.34 0 0095.695-39.639A135.333 135.333 0 00260.667 111z"/><path d="M182.78 185.405c-12.32-4.713-25.695-7.289-39.667-7.289C81.747 178.116 32 227.863 32 289.229c0 23.11 7.065 44.558 19.133 62.328.57-.242 153.487-64.297 246.456-101.621-51.37-30.968-98.494-58.287-114.809-64.531zM480 310.481c0-49.625-40.227-89.852-89.852-89.852a89.935 89.935 0 00-26.721 4.042c-9.296 2.893-34.086 12.525-65.838 25.274 78.186 47.134 166.04 102.63 170.352 105.355C475.567 342.093 480 326.815 480 310.481z"/><path d="M467.951 355.3c-4.322-2.725-92.167-58.221-170.352-105.355C204.62 287.26 51.703 351.315 51.133 351.557c3.892 5.731 33.386 48.776 91.971 48.776h245.971c50.502 0 73.64-35.97 78.876-45.033z"/></svg>