<svg xmlns="http://www.w3.org/2000/svg" class="vicon" viewBox="0 0 512 512"><path d="M405.25 88.965a157.157 157.157 0 00-89.253-27.512h-.523.019-.336c-26.69 0-51.793 6.776-73.705 18.702l.802-.41a192.587 192.587 0 00-59.707 49.609l-.298.392a183.16 183.16 0 00-29.471 53.212l-.392 1.288a209.917 209.917 0 00-12.113 66.239v10.714c.56 23.965 4.964 46.716 12.598 67.938l-.467-1.494a184.82 184.82 0 0030.143 54.874l-.28-.374a192.275 192.275 0 0058.979 49.517l1.008.504a152.4 152.4 0 0072.81 18.253h.448-.019.485a157.9 157.9 0 0089.794-27.847l-.541.355a224.842 224.842 0 01-67.08 41.565l-1.53.541c-23.592 9.444-50.954 14.932-79.585 14.932h-1.101.056c-4.828 0-8.411-.087-10.75-.262a216.935 216.935 0 01-84.55-21.072l1.307.56c-51.625-23.853-91.623-65.549-112.714-117.006l-.541-1.474a218.81 218.81 0 01-16.742-84.662c0-31.449 6.533-61.368 18.291-88.487l-.56 1.437c22.808-54.182 65.064-96.42 117.791-118.705l1.437-.541a215.438 215.438 0 0186.359-17.75h1.363a223.095 223.095 0 01148.68 57.188l-.206-.187.094-.037zM480 255.935v1.139c0 32.42-7.092 63.197-19.803 90.839l.56-1.344a228.988 228.988 0 01-53.1 73.985l-.149.131a104.185 104.185 0 01-55.396 15.753h-.093a107.317 107.317 0 01-64.037-21.203l.28.205a121.876 121.876 0 0063.048-57.542l.317-.69a200.613 200.613 0 0024.88-101.459v.205l.037-3.714c0-35.668-9.183-69.17-25.309-98.305l.523 1.045a122.629 122.629 0 00-62.432-58.195l-.803-.299a108.14 108.14 0 0163.459-20.754H352a106.533 106.533 0 0156.926 16.499l-.448-.261a223.292 223.292 0 0152.055 72.342l.56 1.4a216.36 216.36 0 0118.87 89.122v1.176-.056l.037-.019z"/></svg>