<svg xmlns="http://www.w3.org/2000/svg" class="vicon" viewBox="0 0 512 512"><path d="M256 135c-125.608 0-224 53.293-224 121.333 0 68.04 98.392 121.334 224 121.334s224-53.294 224-121.334S381.608 135 256 135zm-23.259 37.333h24.454l-7.766 37.334h21.84c13.851 0 23.147 1.941 28.448 6.776 5.171 4.778 6.739 12.618 4.667 23.296l-9.707 44.594h-24.864l8.942-41.234c1.082-5.656.653-9.595-1.251-11.667-1.885-2.072-6.048-3.099-12.283-3.099H245.64l-11.816 56h-24.491l23.408-112zm-107.408 37.334h49.766c23.725 0 38.098 15.904 32.48 39.629-6.534 27.571-24.006 35.037-56.187 35.037h-15.381l-4.872 28h-24.734l18.928-102.666zm196 0h49.766c23.725 0 38.098 15.904 32.48 39.629-6.534 27.571-24.024 35.037-56.187 35.037h-15.381l-4.872 28h-24.734l18.928-102.666zM146.52 228.333l-7.037 37.334h15.96c13.813 0 26.656-1.568 28.802-22.176.803-7.971-2.52-15.158-18.48-15.158H146.52zm196 0l-7.037 37.334h15.96c13.813 0 26.656-1.568 28.802-22.176.803-7.971-2.501-15.158-18.48-15.158H342.52z"/></svg>