<svg xmlns="http://www.w3.org/2000/svg" class="vicon" viewBox="0 0 512 512"><path d="M249.03 32.058c-4.387.15-8.773.601-13.165 1.204-4.23.46-8.462 1.212-12.544 1.826-4.983.603-9.97.905-14.966 1.515-4.689.609-9.527 1.518-14.21 2.278-1.667.3-3.336.903-5.003 1.202-3.621.758-7.403 1.064-11.036 2.277-6.494 1.979-13.003 4.256-19.353 6.67-5.903 2.426-11.65 4.999-17.243 8.026-5.747 3.174-11.196 6.954-16.639 10.597-5.15 3.484-10.282 7.116-15.283 11.053-4.827 3.793-9.37 8.029-13.76 12.272-2.414 2.413-4.387 5.295-6.66 8.02-3.775 4.397-7.554 8.63-11.186 13.177-3.011 3.793-5.75 7.725-8.624 11.667-5.133 6.955-9.516 14.383-13.597 21.806-1.667 3.03-3.173 6.06-4.685 9.082-2.27 4.54-4.691 8.937-6.806 13.634-1.516 3.183-2.725 6.664-3.633 10.145-2.109 7.426-4.23 15.001-6.197 22.415-1.814 6.668-2.272 13.634-2.415 20.45-.155 6.057.45 11.965 1.052 18.022.155 1.518-.744 3.332 1.06 4.54-.604 1.667-.149 2.585.747 2.873-1.045 1.667.46 2.736-.14 4.254-.155.3.461.903.749 1.357 0 .459-.144 1.062 0 1.516.162 1.362.761 2.725.761 4.241 0 1.058.906 2.273 1.212 3.335.147.448 0 1.204-.304 1.509-.908 1.058-.758 1.965.603 2.576.765 1.963.46 2.871.31 3.789.298 1.359-.156 1.814 0 2.119 1.207 2.426 1.663 5.146 1.806 7.87 0 .608.305 1.219.609 1.973.15 0 0 2.878 0 2.878.747-.448 1.366-.603 2.119-.907.459 1.965.905 3.793 1.51 5.458.758 1.208.761 1.805.46 1.954.606 2.726.904 5.302 1.955 7.878 0-2.875-.29-5.75-.746-8.481 2.113.76 3.929 1.516 5.14 1.516.155-.459.306-1.058.463-1.362-.907-.902-1.665-2.263-2.574-3.172.303 1.208 0 1.665 0 2.124-.603-.31-1.364-.614-2.119-.918.605-.747 1.212-1.512 2.12-2.416 0-1.368-.748-2.583-2.874-2.426.91-.303 1.817-.751 2.873-1.06 1.667-.902-.151-2.567-.151-4.686.15-2.57-1.359-5.146-1.814-7.877-.758-4.236-.605-10.597-1.057-14.838-.91-.76-1.665 1.207-1.814 1.362.46 3.633.907 7.264 1.205 10.902-.901-3.03-1.512-6.362-2.264-10-.155 1.062-.302 1.512-.302 2.124-.747.747-.15 1.669.302 2.726-1.056-.46-2.27-.299-2.27-.299v4.241c-1.506-1.518-1.956-2.729-2.72-3.799-.298-1.207-.462-2.413-.748-3.621.286-.763 0-1.213 0-1.661a92.107 92.107 0 01-.457-3.646c.149-.149-.151-2.415-.151-2.415 1.207.149 1.973.285 2.725.285-1.512-1.954-.461-3.169.153-4.381.302-.608 1.363-.748 1.667-1.37 1.208-2.272 3.177-4.079 3.177-6.963 0-1.362.467-2.874.608-4.243.303-2.576.6-5.148.743-7.722.31-3.334.002-6.67.766-9.849 1.219-5.286 2.729-10.593 4.388-15.896 1.208-3.793 2.58-7.411 4.085-11.206 2.27-5.908 4.386-11.816 7.26-17.412 4.081-8.183 8.77-16.061 13.31-24.084 2.875-4.999 5.899-9.695 9.082-14.539 3.018-4.695 6.036-9.541 9.525-13.939 4.844-6.206 10.14-11.965 16.037-17.113 6.051-5.449 11.797-11.05 18.295-16.05a183.816 183.816 0 0126.908-17.278c7.718-4.08 15.73-7.276 23.748-10.304 5.144-1.965 10.739-2.874 16.038-4.541 6.046-1.971 12.096-2.87 18.446-3.024 4.081-.15 8.014-.61 12.095-1.066 3.739-.282 7.473-.633 11.199-1.053a6.457 6.457 0 00-.763 1.204c-1.654 2.427-3.47 4.853-5.135 7.273-1.363 1.97-2.875 4.09-4.237 6.055-2.425 3.192-4.996 6.37-7.262 9.701-3.476 5.003-6.658 10.15-10.291 15.144-3.621 4.844-7.556 9.394-11.338 14.083-4.99 6.518-9.68 13.178-14.668 19.689-4.54 6.207-9.363 12.124-13.756 18.331-3.931 5.443-7.416 11.207-11.198 16.8-5.592 8.333-11.187 16.509-16.779 24.843a1553.92 1553.92 0 01-13.31 18.928c-.304.46-.757.596-1.205.9-1.208 1.966-1.208 3.03-1.669 3.939-1.206 2.268-2.412 4.543-3.778 6.669-.76 1.208-1.82 2.263-2.728 3.476-.149-1.816 2.412-2.727 1.204-5.003-.746 1.217-1.512 2.274-2.262 3.487l-1.814 3.622c.593.451 1.611.761.634 1.631-.101-.355-.61-.593-.993-.883l-.005-.007a84.668 84.668 0 00-3.616 5.46c.907.752 1.355.455 1.96-.609.545-1.094 1.331-1.947 2.038-2.878-.251.467-.51.929-.778 1.387a5.512 5.512 0 001.667-1.522c0 1.667-.909 3.026-1.667 4.387-.605 1.21-2.115 2.124-3.173 3.026.149.149 1.209.61 1.364.762 1.363-.46 1.816-1.21 1.973-.762.459-.603.904-1.057 1.053-1.51.597-1.518 1.506-2.726 3.018-3.336.609-.302 1.061-.756 1.516-1.204 4.54-4.7 9.223-9.24 13.304-14.243 6.356-7.728 12.103-15.745 18.162-23.619 2.563-3.333 5.595-6.664 8.313-9.848.448 3.483.149 6.811 0 10-.459 5.6-.756 11.203-1.204 16.951-.155 2.27-.004 4.54-.159 6.817 0 .603-.457 1.058-.457 1.667 0 1.512.457 3.181.457 4.698-.459 5.604-1.068 11.049-1.521 16.651-.155 1.208.448 2.427.746 3.489-.746 8.172.919 16.813-.448 25.446 1.057-1.667 1.363-2.729 1.363-3.785.144-.91 0-1.817 0-2.875v-1.514c.144-2.731.743-5.602.444-8.333-.302-3.028-.306-5.902.303-8.782.304-1.208-.144-2.726.616-4.242v2.27c-.15 8.621.155 17.26-1.053 25.891-.155.76.455 2.128-1.211 1.971-1.369 2.726.298 4.697-1.206 6.209-.31.302.289 1.667.446 2.576-.611 1.82-.611 1.82.298 1.971.15 3.332.46 6.352.603 9.537 2.414-5.748 1.208-11.669 2.278-17.577.147 2.425.304 4.855.149 7.418 0 3.948-.155 7.725-.302 11.661 0 .76-.155 1.518-.303 2.278-.461 2.126-.599 4.241-1.357 6.206-.605 1.518-.298 3.795-.298 5.606v5.764c.602 2.576-.157 3.935.298 5.447-.461 1.523-.606 1.981-.463 2.434l.463 2.27c3.028-.302 1.665 1.971 2.873 3.177-.909 1.219-.603 1.667-.603 2.283 0 1.363-.146 2.576-.299 3.939 0 3.481-.153 6.963-.153 10.296 0 .46.152.904.152 1.357 0 .31-.15 4.249-.15 4.249.301.448-.004.903-.465 1.357-.143 0-.597-19.232-.597-19.232h-2.27c-.298 9.079.463 17.255-1.204 25.745-1.816.149-2.417.448-4.394.448-4.689 0-9.376-.002-14.065.149-5.598 0-11.036.15-16.64.15-2.712 0-5.583.311-8.306.311-3.635 0-7.415-.463-11.036-.463-5.604 0-11.049.46-16.645.609-4.08.149-8.16.149-12.24.302-2.73.15-5.462.293-8.176.603-1.206.15-2.266.598-3.778 1.053-.46 0-1.514-.149-2.416 0-1.523.302-2.87 1.211-4.394 1.521-2.27.46-2.874 1.053-2.576 3.329v1.515c-.147.299 3.33-.463 3.33-.463-.31 0-.459.909-.918 1.667 1.217-.459 1.973-.759 2.733-1.058 2.27 1.064 4.233.459 6.042.918 5.899 1.507 11.947 2.128 17.991 2.72 3.939.302 7.719.459 11.648.603 5.595.302 11.189.609 16.781.609 4.69 0 9.229-.458 13.907-.458 6.496 0 13.013.299 19.512.458 1.363 0 2.877-.15 4.389-.15h11.034c9.839-.298 19.667-.461 29.501-.746 5.603-.168 11.345-.462 16.938-.616l17.242-.463c6.655-.15 13.309-.15 19.817-.286 4.987 0 9.826-.168 14.827-.317 5.585-.15 11.332-.601 16.93-.902 3.03-.149 6.058-.461 9.082-.762 3.632-.298 7.412-.746 11.033-.901 5.449-.31 11.046-.456 16.494-.762 6.804-.448 13.612-1.056 20.565-1.211 6.356-.299 12.858-.15 19.214-.299 5.6-.149 11.193-.459 16.938-.608l9.544-.463s6.347-.15 9.524-.458c5.443-.298 10.883-.903 16.33-1.052 3.472-.15 6.955.003 10.433-.15 5.592-.149 11.34-.463 16.938-.463 2.109 0 4.377.314 7.102.463-1.207 1.064-1.965 1.663-2.874 2.423.605.149 1.206.461 1.814.762-.907.603-1.661.748-2.408.748-.312.766-.616 1.064-.92 2.582h2.72c-1.057 0-1.96 1.363-3.019 2.27-1.206-.31-2.275 0-2.878 1.667 1.058.597.911 1.052.761 1.667-1.816.597-3.175 1.205-2.411 3.169-.616.301-1.37.605-2.128 1.059-.749 1.207-2.115 1.512-1.817 3.177.611.149 1.208.466 1.669.603-.76.302-1.512.754-2.27 1.052-2.719 1.667-1.512 2.427-.907 3.185-.459.302-.903.605-1.357.762.299 1.362.747 1.666.9 1.666-.537.412-1.066.834-1.587 1.266.048-.169.111-.334.187-.493h-.607c0 .278.056.517.097.754-.138.112-.216.168-.36.286-.459 1.363-1.064 1.964-1.667 2.871-.603.909-.909 2.128-1.667 3.031-3.173 3.491-5.445 7.587-9.526 10.304-1.517 1.064-2.874 2.425-4.237 3.792-2.723 2.57-5.141 5.45-8.013 7.877-3.777 3.177-7.699 6.048-11.79 8.928-4.984 3.482-9.972 6.97-14.967 10.304-2.724 1.811-5.75 3.172-8.624 4.839-2.875 1.667-5.598 3.182-8.471 4.844-1.816 1.207-3.482 2.872-5.447 3.791-4.99 2.128-10.286 3.938-15.423 5.91-5 2.128-8.624 3.933-12.404 5.295-3.477 1.208-7.11 2.127-10.737 2.873-1.206.31-2.576.002-3.938.168-2.574.459-5.141 1.072-7.717 1.37-6.655.908-13.308 1.512-19.955 2.421-3.938.46-7.726 1.208-11.657 1.667-2.718.15-5.589-.149-8.312-.149-1.966 0-4.079.463-6.05.168-3.174-.459-6.354-1.204-9.531-1.814-.747-.15-1.813-.463-2.41-.15-1.208.609-2.281-.298-3.495 0-.746.15-1.504-.457-2.264-.457-.608-.149-1.365.168-2.124 0-1.665-.448-3.174-1.057-5.003-.907-1.798.149-3.621-.756-5.574-1.204-2.731-.609-5.286-1.204-8.023-1.82-1.051-.303-1.954-.76-3.018-1.363-3.937 0-6.509-.149-8.928-1.064-2.115-.747-4.079-1.809-6.347-1.504-.597.149-1.055-.15-1.669-.15-.459-.608-.903-1.82-1.351-1.82-3.024.15-4.839-2.412-7.413-3.177-1.357-.459-2.417-1.973-3.78-2.427-3.334-1.362-6.042-4.233-9.822-4.687-1.208-.149-2.419-.765-3.786-1.213.459.597.751 1.058 1.21 1.51-4.385-2.128-8.469-4.542-12.555-6.817-.598-.149-1.049-.747-1.503-1.058l-4.086-2.75c-2.27.459-3.175-.455-3.79-.754-4.082-2.873-8.765-4.697-12.702-7.876-1.667-1.368-3.622-2.277-4.827-3.942-2.128-2.576-4.699-4.387-7.572-5.899-2.264-1.207-4.379-2.576-6.494-3.938-1.064-.758-2.124-1.667-2.124-3.334 0-1.064-.446-2.124-1.807-1.516-.605-.907-1.208-1.966-1.966-2.27-1.816-.746-3.027-2.128-4.388-3.336-1.363-1.207-2.412-2.87-4.079-3.475-3.027-1.208-4.847-3.782-6.658-5.903-4.241-5-8.021-10.459-11.952-15.745-.305-.459-.91-.765-1.363-1.217.603 1.667 1.363 3.028 2.117 4.54-1.507-.603-2.561-1.669-3.469-2.726-.154.15 10.426 17.569 10.426 17.569.918 1.363 1.667 2.729 2.574 4.09-2.27.15-3.782-1.064-4.54-2.426-1.357-2.416-2.869-3.926-5.893-3.616-.299-1.07-.605-2.283-.747-3.336-.714.01-1.427-.046-2.131-.168 2.128 3.334 3.938 6.211 5.904 9.543-.765-.46-1.206-.758-1.521-.908 2.718 2.875 4.685 6.511 8.16 8.333.76 3.478 4.692 5.145 5.6 8.479-.746-.15-1.371-.307-2.131-.463-1.206-1.512-2.569-3.021-3.926-4.686a7.599 7.599 0 001.357 2.72c1.817 2.27 3.486 4.54 5.6 6.511.758.771 1.815 1.073 1.815 2.436 1.206.603 1.669.747 2.117.747.31.922-.14 2.283 1.668 1.978 1.206 2.27 2.41 2.268 4.077 1.516 1.971 1.971 3.032 2.128 4.387.918 0 .747.153 1.509.153 2.119.603-.302.463-.756.463-1.516.747.603 1.204.906 1.503 1.204 1.512 2.126 2.876 4.09 4.991 5.757 2.875 2.427 5.443 5.003 8.155 7.273 5.3 4.398 11.212 8.03 17.103 11.358 7.265 4.092 14.224 8.484 21.631 12.414 8.919 4.704 18.448 7.89 28.276 10.16 3.633.76 7.112 1.508 10.748 2.408 3.161.922 6.341 2.287 9.52 3.039 4.839 1.062 9.828 1.971 14.667 2.873 1.053.149 2.128.313 3.335.463 1.35.302 3.013-.307 3.318.149.757 1.208 1.362.597 2.269.448 1.059-.301 2.268-.301 3.476-.301 4.236.15 8.314 1.053 12.55.755.918 0 2.277-.766 3.037.746 1.357-.601 2.117-.603 2.72-.746.162 1.357-.004 1.36-.293 1.508-.31.149-.76.298-1.363.754 5.443 1.058 10.584 1.208 15.112 0 7.874.603 14.68-.302 21.187-2.576.603.76 1.058 1.818 1.966.304.298-.459 1.052-.612 1.661-.761 1.357-.303 3.024-.911 4.23-.463 1.368.459 1.827-.749 2.878-.749 1.822 0 3.483-.149 5.15-.457.908-.15 1.815-.603 2.871-.907a7.34 7.34 0 00-3.334-.768c1.7-.839 3.416-1.643 5.149-2.411-.303.448-.607 1.047-1.204 1.047h2.105c-.461 0-1.062 1.363-1.814 2.272 5.438-1.363 10.425-2.575 15.269-3.793-1.665-3.174 1.813-2.11 3.026-3.932-1.512.46-3.024.906-4.54 1.204 5.143-2.568 10.435-4.838 15.574-7.108-.747.907-1.669 1.366-3.018 2.13.907.149 1.512.149 1.965.286 2.414.763 1.816-1.505 2.569-2.873 2.874 0 4.078-.448 5.441-.907 1.512-.46 3.024-.911 4.54-1.516 2.413-1.059 4.683-2.414 7.102-3.622.462-.168 1.212 0 1.82 0 1.667-1.069 2.261-1.974 2.715-1.825 2.128.302 3.621-.456 4.229-2.41.18-.131.269-.189.434-.31.606 1.335 1.819 1.482 3.785.131-1.213 0-2.425-.15-3.481-.301-.112 0-.151.075-.215.112.756-.56 1.452-1.094 2.053-1.461 3.321-1.817 6.489-3.631 9.823-5.447 1.206 0 1.818.002 2.117-.15 1.978-.92 3.789-1.967 5.6-3.031-.46-.149-1.51-.747-1.51-.747a19.657 19.657 0 002.874-.763c3.62-4.252 8.62-7.129 12.395-10.463 1.669-.149 1.669-.601 1.669-.9.597-.759 1.207-1.667 1.954-2.277 3.334-3.028 6.953-5.602 9.981-8.781 4.387-4.401 8.618-8.95 12.55-13.645 3.621-4.241 7.269-8.475 10.293-13.171 4.235-6.511 7.86-13.179 11.642-20 2.725-4.838 5.146-9.682 7.877-14.526.284-.459.896-1.066 1.35-1.066 4.08-.459 8.176-.747 12.105-1.204.909-.149 1.966-.752 2.873-1.213-.459-.758-.756-1.662-1.206-2.421-.608-.921-1.514-1.667-2.122-2.588-.598-.746-1.057-1.665-1.51-2.568-.46-.747-.91-1.361-1.363-2.13-.92-1.667-1.822-3.332-2.587-5.137-.15-.459-.46-1.208-.299-1.667 2.723-5.902 3.784-12.258 6.352-18.166 2.571-6.058 3.334-12.875 4.542-19.386 1.056-6.206 1.661-12.417 2.408-18.623.461-4.391 1.069-8.634 1.213-13.024.919-6.967.605-13.483.456-20-.148-5.749-.461-11.655-.747-17.414l-.013-.018c-.301-5.907-.452-11.813-1.06-17.715-1.057-8.029-2.115-16.21-3.931-24.084-1.363-6.511-3.622-12.721-5.899-18.928-2.873-7.271-5.746-14.691-9.378-21.653-5.897-11.21-13.608-21.207-20.718-31.657-4.701-6.666-10.749-12.117-15.288-18.934-2.569-3.936-6.353-7.26-10.135-10.285-6.051-4.857-12.4-9.251-18.75-13.487-4.84-3.334-9.677-6.512-14.827-9.39-4.081-2.282-8.465-4.098-12.701-6.07-4.84-2.27-9.531-5.002-14.972-6.06-1.369-.286-2.576-.747-3.939-1.204-3.476-1.208-6.802-2.57-10.285-3.635-5.287-1.667-10.431-3.629-15.88-4.997-5.275-1.363-10.722-2.266-16.171-3.03-6.046-.89-12.244-1.203-18.301-1.795-3.931-.46-7.861-.91-11.642-1.059-5.748-.3-11.643-.3-17.388-.45-2.875-.149-5.899-.459-8.772-.302v.015zm12.957 17.547c1.971.31 3.795.612 5.605.765l7.262.46c5.443.442 10.886.75 16.324 1.496 4.539.614 9.083 1.523 13.772 2.278 9.988 1.665 19.813 4.392 29.342 7.569 5.598 1.816 11.034 4.243 16.494 6.515 12.242 4.999 23.891 11.054 35.384 17.41 3.622 1.971 5.75 5.148 8.46 8.027 3.939 4.093 7.874 8.181 11.648 12.417 4.381 5.001 8.462 10.151 12.705 15.301 3.774 4.54 7.703 9.081 11.496 13.634 1.206 1.363 2.125 3.028 3.17 4.54 2.414 3.638 5.141 7.121 7.256 11.052 1.506 2.884 2.417 6.22 3.476 9.397 1.504 4.697 3.024 9.236 4.539 13.931 1.051 3.483 1.949 7.129 2.707 10.748.61 2.433.467 5.001 1.213 7.415.919 3.195 0 6.669.919 9.859.143.303.289.755.45 1.059.604.597 1.054 1.209.143 2.117-.143.149-.143.746 0 1.204.31-.299.463-.605.768-1.059 0 .303.141.467.141.609 0 .597-.155 1.204 0 1.807 0 .3.299.748.45 1.058.305-.31.603-.459 1.206-.918 1.363 5.155 1.521 10.3 1.521 15.599 0 4.999.898 10-1.211 14.844.448-1.667-.607-3.186-.149-4.698l.059.037c-.155 0-1.054-.922-1.204-1.071-.155.459 0 .905-.304 1.515-.155-.448-1.209-.293-1.209-.743-.155 2.115.903 4.234.746 6.355.461-.303 2.274-.46 2.727-.908.155.15.46.301.609.301-3.028 2.277-2.268 4.541-.905 7.127.298.597 1.205 1.805.298 3.018-.298.303.155 1.208.303 1.973h.446v.293l-1.363.458c-.3-.46-2.113-1.354-2.113-2.125v7.736c1.512.459 1.514 2.57 2.117 3.632.265-.368.472-.773.616-1.204l.149.15c-.153.909-.302 1.812-.607 2.727-.298 1.357-.604 2.57-.748 3.931 0 .149.291.459.291.603-1.654 3.793-.746 8.023-1.351 11.954-.459 2.875 0 5.923-.303 8.947-.31 2.576-.924 5.294-1.521 7.87-.155.459-.457.609-1.206.913.301-1.816.151-3.034-.149-4.699-.164 0-2.128-1.058-2.283-1.058 0 2.126 1.208 5.005 1.667 7.418-.459-.149-2.272-1.211-2.416-1.211-.31 1.816-.313 4.243-.463 6.208-.155 1.518-1.506 2.875-1.661 4.54 0 .92 1.057 1.519.907 3.037h1.204c0-3.024 1.37-5.749 1.37-8.934h.445c.155.303.612.612.463.762-.303 1.667-.923 3.481-.762 5.148 0 .909.75 1.814.463 2.873-.31.92-.459 1.822-.614 3.182-.155-.757-.303-1.054-.303-1.508-.149 0-1.512-.149-1.668-.149-.148.909 1.064 1.816.907 2.576-.148.149-.299.149-.603.3l-4.99-7.272a1541.226 1541.226 0 01-11.801-17.412 36.459 36.459 0 01-2.733-4.54c-4.685-8.036-9.828-15.759-15.575-23.177-4.379-5.6-7.874-11.668-11.952-17.559-3.771-5.604-7.553-11.06-11.333-16.67-1.363-1.81-3.024-3.475-4.237-5.447-3.924-6.208-7.411-12.57-11.331-18.778-3.334-5.152-6.957-10.153-10.438-15.148-1.208-1.667-2.416-3.491-3.635-5.307-.147-.286-.298-.586-.298-1.042-.305-3.332-.607-6.668-.756-9.847 0-3.029.304-6.055.304-9.24v-2.74c0-.76.142-1.362.142-2.124.144-.149.298-.454.448-.603-4.383 0-8.923-.168-13.31 0-2.874.149-4.382-1.07-6.346-3.19-5.75-6.511-9.987-13.929-14.975-20.894-4.689-6.667-9.529-13.184-14.369-19.695-3.937-5.299-7.876-10.446-11.801-15.745-4.391-6.058-8.619-12.115-13.158-18.174-5.449-7.263-11.047-14.541-16.64-21.806-2.585-3.334-5.458-6.511-8.333-10h-.005zm-14.034 7.948c.323.056.629.327.932.706 4.08 5.15 8.157 10.45 12.237 15.6 3.036 3.792 6.062 7.414 8.936 11.356 3.478 4.85 6.802 9.696 10.285 14.541 3.932 5.6 7.863 11.208 11.643 16.955 5.749 8.488 11.191 16.968 16.938 25.447 4.237 6.206 8.469 12.269 12.55 18.478h-7.723c-7.104-.149-14.369-.749-21.472-.45-9.679.459-19.507 1.518-29.183 2.277-12.253 1.061-24.654 1.203-36.895 1.203-4.396 0-8.779.616-13.16.918-5.298.3-10.444.605-15.736.748-6.209.31-12.242.46-18.448.616-3.484.15-7.109 0-10.889 0v-.037c4.828-6.668 9.828-13.33 14.667-20.141 1.512-1.983 2.719-4.103 4.23-6.067.461-.61 1.067-.915 1.82-1.523l-.152-.286c.603-.765 1.204-1.379 1.511-1.978.769-1.206 1.228-2.574 1.829-3.937.149-.286.605-.59.605-.59 2.126 1.058 2.124-1.208 2.872-1.971a103.511 103.511 0 003.932-4.693c.907-1.208 1.816-2.272 2.576-3.633.145-.459-.308-1.205-.465-1.82h-.444c.459-.298.909-.748 1.362-1.058.15 0 .15-.004.301-.149a87.13 87.13 0 012.719-3.939c1.811-2.414 3.777-4.842 5.892-6.957-.299.747-.601 1.508-.906 2.113.155 0 .155.149.303.149 1.816-2.426 3.784-4.696 5.6-7.127-.155-.149-.306-.298-.463-.298-.747.758-1.354 1.517-2.113 2.277-.148-.149-.303-.304-.461-.304 1.521-1.971 3.033-3.939 4.539-6.209.303.46.607 1.059 1.204 2.272.616-1.512 1.221-2.57 1.669-3.634-.448.459-1.049.909-1.504 1.37l-.461-.461 2.725-4.077c2.875-4.094 5.746-8.337 8.618-12.428 1.064-1.512 2.416-2.72 3.336-4.238 2.875-5.745 7.416-10.3 10.888-15.597.758-1.059 1.811-1.966 2.72-2.875.373-.457.713-.616 1.034-.56l.002.011zm-42.646 59c-.903.603-1.667 1.058-2.568 1.667l-.008.007c-.155.149-.306.149-.158.149.154.747.155 1.363.304 2.416 1.064-1.523 1.812-2.731 2.733-3.939l-.303-.3zm127.639 62.378c1.357 0 2.115.461 2.875 1.667 1.355 2.27 2.718 4.54 4.228 6.817.155.299.463.745.463 1.204 0 3.332-.004 6.817.144 10.151.143 3.483.466 6.815.602 10.298 0 3.484-.306 7.116-.151 10.749.155 5.155.303 10.457.303 15.745l.024.011v1.37c-.148 0-.299.15-.601.15-.605-2.126-1.208-4.398-1.968-6.519-1.51-4.396-3.179-8.794-5.902-12.725-3.035-4.237-5.749-8.624-8.783-13.02-.746-1.062-1.818-1.969-2.725-2.871-3.179-3.49-6.352-7.127-10.435-9.695a123.456 123.456 0 00-18.909-9.703c-1.814-.747-3.478-1.669-5.288-2.725h3.621l25.861-.46c5.598-.149 11.047-.149 16.639-.449l.002.005zm-113.568 3.95a24.406 24.406 0 013.323.149c-2.414 1.219-4.842 2.433-6.957 3.945-2.726 1.816-5.285 4.237-8.016 6.206-2.729 1.966-5.148 4.394-7.412 6.97-2.875 3.476-6.052 6.502-9.082 9.836-2.126 2.425-4.536 4.698-6.346 7.272-2.571 3.334-4.842 6.95-7.262 10.743.758-14.392 1.669-28.618 1.059-43.157l.013.011c7.108-.302 13.908-.76 20.875-1.064 5.432-.304 11.032-.465 16.469-.764 1.135-.074 2.24-.149 3.336-.149v.002zm37.942 7.741c4.523.149 9.061.149 13.597.45 1.964.149 3.782.601 5.6 1.204 2.262.765 4.681 1.82 6.802 2.875 2.57 1.377 4.988 2.884 7.414 4.551 4.385 2.874 8.469 6.055 12.854 8.629 4.236 2.576 7.56 6.057 10.286 10 3.333 4.691 7.106 8.934 8.618 14.687l2.264 10c.459 1.816 1.52 3.63 1.064 5.745-.765 3.793-1.368 7.734-1.971 11.521-.299 1.523-.599 3.047-.444 4.54.285 4.713-1.525 8.79-3.336 13.029-.608 1.363-1.518 2.733-2.27 4.243.148.15 1.055.609 1.204.609l1.363-2.72c.157 0 .157-.004.304.149-.758 2.115-1.359 4.393-2.124 6.513-1.805 4.695-3.622 9.537-5.891 14.077-1.208 2.576-3.332 4.696-4.839 7.127-1.506 2.115-2.718 4.388-4.23 6.359-1.362 1.667-2.718 3.334-4.539 4.542-4.081 3.028-8.318 6.059-12.703 8.484-2.718 1.667-5.899 2.57-8.923 3.328l.041-.018c-4.844 1.207-9.826 2.579-14.825 3.184-4.23.609-8.622.457-13.007.457-3.942 0-7.724-.149-11.655-.457-4.387-.448-8.772-.907-13.007-2.878-3.636-1.667-7.413-3.176-11.032-4.997-3.646-1.817-7.271-3.935-10.002-7.267-1.954-2.433-4.683-4.393-7.102-6.513a7.143 7.143 0 003.177 4.387c-.758.91-1.818.461-3.336-1.972-.448.303-.9.46-1.204.609.459-1.064.909-2.123 1.363-3.024-.603-1.208-1.363-2.58-1.966-3.799a127.57 127.57 0 01-3.481-6.048c-.303-.461-.303-.911-.603-1.362-.758-.911-1.514-1.82-2.124-2.728-1.206-1.81-2.261-3.778-3.773-5.6 0 .46.151.906.151 1.516-.155 0-.302.149-.302.149l-3.183-7.722c-.149 0-.149-.004-.299.149l2.713 10c-.148 0-.295.149-.456.149-.442-.597-.896-1.205-1.206-1.954-.298-1.219-1.213-1.221-1.96-.765-.459.3-.763 1.364-.608 1.818 1.064 2.576 2.277 5.148 3.489 7.724.284.884.636 1.745 1.052 2.574.155.303.609.598.609 1.053.609 1.208 1.066 2.417 1.82 3.487 1.363 1.816 2.875 3.631 4.235 5.447 1.352 1.816 2.556 3.795 3.767 5.605.15.303.605.303.749.458.765 2.27 3.334 3.933 5.15 3.024.459 3.483 4.234 4.694 5.744 8.028a68.771 68.771 0 01-4.381-1.971c-.155.149-.155.299-.31.603 1.816.907 3.634 1.814 5.288 2.873 1.523.92 3.033 1.827 4.394 2.878 1.817 1.667 3.939 2.586 6.496 3.183-.14-.461-.287-.614-.287-.614 4.23 1.971 8.62 4.09 11.941 5.745-15.731.31-32.517.615-49.913.919 0-2.875-.151-5.606-.151-8.484 0-1.208.302-2.27.144-3.482-.46-6.955-.461-13.932-1.363-20.748-.902-7.265-.904-14.386-.747-21.668.144-3.924-.157-8.01-.311-11.952 0-5.3.003-10.457.166-15.745 0-.76.302-1.367.608-2.13h.463c.144.31-.002.763.286.918.459.459 1.217 1.208 1.521 1.059.902-.609 2.264-1.204 2.569-2.125.746-1.81 1.058-3.783 1.058-5.6 0-1.357.607-2.262 1.204-3.177.31-.459.463-.905.767-1.508-.603-.459-1.208-.76-1.965-1.363.61-1.667.457-3.638 2.725-4.539.301-.15.304-.923.465-1.371.144-1.224.28-2.585.444-3.791.299.459.461.601.747.902.162-.301.311-.463.311-.463 0-.597-.149-1.811 0-1.811 1.817-.3 1.057-2.268 1.966-3.175.144-.168-.151-.616-.151-.918 0-.301-.004-.749.144-.749 2.109-.459 1.81-2.729 3.171-3.791.459-.303.607-.751 1.211-1.516 1.206 2.115-.91 3.181-1.06 4.691 2.565-1.512 3.321-5.144 1.809-6.207a8.98 8.98 0 001.667-1.667c1.667-1.816 3.474-3.479 4.991-5.295 1.064-1.357 1.669-3.026 2.726-4.387.61-.76 1.814-1.363 2.721-1.822 2.726-1.506 5.29-3.169 6.957-5.745.303-.303.756-.609 1.204-.913.461-.303 1.367-.299 1.516-.754.155-.299-.299-1.062-.603-1.516.598-.302 1.21-.905 2.418-1.516-.462.909-.603 1.514-.908 2.124l.743.749c1.367-1.057 3.482-2.262 4.844-3.17 0-.149-.754-.748-.754-.748-.903.459-2.266 1.209-3.621 1.82.285-.459.285-.765.455-.915 2.11-1.362 4.225-2.721 6.496-3.789 5.287-2.416 10.584-4.84 15.878-7.11.907-.459 2.13-.15 3.183-.15.448 0 .747-.001 1.204-.149 2.413-.76 4.842-1.516 7.261-2.124a12.614 12.614 0 013.33-.448l.004-.004zm-5.886 2.253c-1.661.764-3.02 1.363-4.383 1.971h-.005c0 .15-.752 1.363-.609 1.363.758-.149 2.421-1.361 3.329-1.516.453 0 1.062.15 1.521.31 0-.608-.002-1.223.144-2.13l.003.002zm109.35 25.781c1.512 1.965 3.173 3.791 4.232 5.745 3.483 6.367 8.015 11.824 12.25 17.577 3.633 5.001 6.959 10.449 10.293 15.6 4.081 6.206 8.008 12.409 12.093 18.618 3.024 4.7 6.212 9.396 9.372 13.944 2.875 4.078 5.906 8.021 8.93 11.965 2.563 3.481 5.288 6.966 7.857 10.45 3.028 4.241 6.052 8.474 9.079 12.568 1.507 2.115 3.174 4.232 4.828 6.354.92 1.208 2.275 2.132 3.182 2.878a1.164 1.164 0 01-.597-.149c.461.603.75 1.058 1.06 1.363 1.667.909 1.815 1.816.907 3.182l.012-.037c-.148.302-.46.609-.603.918-.155-.309-.155-.761-.303-1.375-.907 2.43-2.874 1.217-4.237 1.217-8.159.149-16.483.149-24.653.149-7.862 0-15.874.002-23.737.149-2.576 0-5.301.605-7.877.762-6.194.301-12.397.459-18.598.603-.461 0-.903-.749-1.661-1.357-.149.302-.467.76-.915 1.363-.162-.299-.455-.6-.759-1.053a8.4 8.4 0 01-.463 1.204h-.439c-.302-2.115-.907-4.083-.907-6.209 0-4.539.459-9.074.603-13.626.155-2.115 0-4.085 0-6.061.61.459 1.064.769 1.669 1.211.267-.519.57-1.019.905-1.497 0 0-.302-.149-.609-.457.286-.15.603-.46.603-.609.148-.459.458-.915.458-1.213 0-1.064-.308-1.97-.458-2.871.148 0 .297.002.458-.15l.899 4.54h.463c-.608-1.051 1.357-1.969-.302-3.177-.149-.149.144-1.062.144-1.516-.461-.901-.747-1.81-1.206-3.024.149-.149.605-.302 1.058-.457-.603-.3-1.06-.599-1.514-.748 1.512-1.369 1.512-2.128.15-3.64.311-.15.61-.15.61-.286 0-1.368 0-2.727-.299-4.079-.304-1.529.462-3.334-1.814-4.254.136.43.339.837.601 1.204 0 0-.457.149-.905.463-1.966-1.822-.752-4.256-1.214-6.974 1.059.303 1.817.609 2.571.919-.304-1.07-1.057-2.278-1.51-3.64h-.616v-10c0 .149 1.06.149 1.669.31 0-.15.141-.306.141-.463-.459-.603-1.058-1.208-1.661-1.966l.302-.302c-1.205-1.507-.601-3.618-.601-4.079V258.04c1.518 1.52-.748 3.482 1.516 4.389v-1.508h-.159c-.149-2.27-.149-4.54-.298-6.815h-.301c-.155.309-.155.455-.31.761h-.298l.909-36.211zm-254.83 12.385c-1.803 2.121-3.47 4.245-5.135 6.354h-.019c.299.149.749 1.217 1.06 1.521 1.662-2.269 3.932-5.146 5.6-7.272-.157-.149-1.36-.454-1.504-.603h-.002zm-10.132 7.426c-.91 1.357-3.17 3.787-4.079 5.148.15.149 1.81-.605 1.96-.444.907-1.363 1.814-2.883 2.722-4.249-.297-.149-.448-.31-.603-.457v.002zm.603.457l.005.006v-.012l-.005.006zm2.56 1.807c-.901.621-1.804 1.381-2.713 1.984.302.299.302.461.302.762-1.206-.15-1.667.457-2.27 2.111-.15.459-.909.607-1.667 1.204-.15.31-.297 1.073-.603 1.826l.151.149c-.219.201-.475.358-.754.463-.909.901-1.971 1.667-2.878 2.568-.15.46-.299.909-.299 1.363 1.062-1.058 2.873-3.03 4.236-4.243l.156.149c.605-.909 1.059-1.81 1.67-2.719.143.149.143.296.298.457-.46 1.208-.91 2.567-1.363 3.78-.317.149-.773.459-.773.302-.602.46-1.058 1.055-1.668 1.509l-2.715 1.81c-1.511 1.363-3.023 2.573-4.692 3.939-1.057 1.667-2.11 3.179-3.329 5.15 1.822-.459 2.274.31 2.125 1.826 2.115.298 2.268-1.363 2.873-2.576.149-.308.302-.921.602-1.07 1.363-1.208 2.875-2.264 4.387-3.476.304-.302.304-.922.304-1.37 0-.149-.765-.149-1.219-.302 1.363-1.518 3.33-4.079 4.688-5.746.76-.459 1.515-1.073 1.515-1.527-.123-1.39.598-1.934 1.546-2.428-.706 3.272-2.688 6.07-4.704 6.645.603.303 1.208.612 1.667.463.448-.149.748-.922 1.053-1.37l4.078-5.902 1.369-2.278-.603-.608-.006.018c-.603 1.059-1.21 1.968-1.812 3.032l-.517-.262c.016-.009.033-.018.05-.037-.609-.459-.765-.903-.765-1.053l.005-.018c.16-.46.461-.909.766-1.363.3 0 .75-.149.75-.149.616-1.059.614-1.818 1.217-2.726-.15-.149-.306-.149-.463-.304l.006.017zm262.428 18.629l-.013.008c-.011.037 0 .074-.011.112.011-.038.009-.075.024-.112v-.008zm-.024.112a4.263 4.263 0 00-.135 1.247c0-.416.019-.834.135-1.247zm-.135 2.752v.149c.155.149.168.149.299.011-.148 0-.148.004-.299-.149v-.011zm0 .302c-.442.149-.901.149-1.51.302.741.282 1.477.445 1.51.73v-1.032zm0 1.034v.038l.011-.012c0-.007-.011-.013-.011-.018v-.008zm-22.239 26.542c-.303 17.265 1.667 34.222 3.931 51.337-17.086.603-34.485 1.204-52.024 1.815l.005-.006c6.799-2.874 12.395-6.955 17.528-11.655.766-.758 1.52-1.509 2.429-2.125 6.356-3.931 11.036-9.383 15.277-15.441 4.838-6.964 8.015-14.843 11.952-22.263.267-.572.568-1.126.902-1.662zm21.173 1.37c.243.489.447.995.609 1.516.746-.149 1.058-.149 1.357-.302 0-.15-.002-.297.151-.458l-.006-.005c-.447-.149-1.049-.444-2.113-.749l.002-.002zm.439 1.376c-.019 0-.058.038-.134.112l.005.019c.144 0 .299.149.299.149l-.149-.168c0-.074 0-.112-.019-.112h-.002zm-308.653.59c-.3 0-1.214.459-1.363.609.605 1.512 1.363 3.18 1.967 4.698.148-.149 1.055-.603 1.204-.603-.606-1.512-1.205-3.179-1.806-4.704h-.002zm-4.247 6.214c-.448.76-.903 1.508-.747 2.106 0 .453.75.903 1.21 1.362.004-.149.146-.296.299-.438-.3-1.062-.45-1.973-.76-3.032l-.002.002zm404.266.15c0 .3.149.742 0 1.052v-1.052zm-396.402 3.33c-.15 0-1.208.453-1.357.608 1.206 2.569 2.414 5.302 3.621 7.876l.006-.008c.155 0 1.363-.603 1.363-.603-1.217-2.585-1.966-5.462-3.633-7.875v.002zm-3.018 6.055c0 .597-.762.448-.762 1.053-.896 0-1.654-.149-2.41-.149-.149.149.454 1.062.609 1.217h3.171c0-.766-.145-1.365-.145-2.125l-.463.004zm139.123 5.903c1.668 2.576 3.341 5 5.152 7.414h.005l-.151.149c-.317-.149-.773-.3-1.072-.603l-3.627-5.46c-.298-.448-.466-.905-.304-1.51l-.003.01zm168.802 8.181l-.005.006c-.148 1.816-.303 3.179-.303 4.539 0 .303.306.902.463.902.299.168.9-.149 1.204-.286.149-.149.299-.453.299-.608-.454-.31-.896-.457-1.355-.773 2.872-1.512 0-2.268-.299-3.78h-.004zM97.044 408.983c1.65 1.822 3.317 3.64 4.979 5.611-.909-.459-1.968-.76-2.416-1.37-1.058-1.208-1.962-2.572-3.02-3.78l.457-.461zm6.347 5.307c.461.758.758 1.667 1.206 2.576-2.115-.15-3.173-1.064-2.569-2.272.46-.149.917-.149 1.363-.302v-.002zm288.118 23.188c-1.219.285-2.128.449-2.875.748-.308.609-.614 1.058-.918 1.661.155 0 .306.15.463.303.909-.909 1.96-1.662 3.33-2.714v.002zm-7.737 4.218c-1.665 1.064-3.476 2.121-5.143 3.177.149.15.149.314.31.463 2.115-.453 3.782-1.519 5.447-2.725l-.006-.013c-.147-.303-.453-.616-.608-.902zm-74.081 28.794c-6.955 1.965-9.229 2.262-9.986 1.204 3.479-.46 6.665-.758 9.986-1.204zm-10.298 1.357c.155.3.155.601.302.899-.907 0-1.512.314-2.27.458l-.005-.006c-2.11.459-4.379.767-6.494 1.072-.76.149-1.667.91-1.966-.458-.302.15-.608.15-.907.31.746 2.264 2.572.442 4.084 1.352-3.334.459-6.494.763-9.677 1.211v-.301c.919-.149 1.97-.306 2.873-.462v-.45c-1.506-.15-3.018-.303-4.541-.303-.443 0-1.055.613-1.509.762-.605.149-1.207.302-1.965.302-2.571.15-5.134.15-7.56.301-.155 0-.46-.15-.609-.15v-.462c10.132-1.358 20.11-2.716 30.242-4.079l.002.004zm-31.607 3.925v.444c-2.804.45-5.629.753-8.465.908v-.445c2.875-.298 5.593-.608 8.465-.907z"/></svg>