<svg xmlns="http://www.w3.org/2000/svg" class="vicon" viewBox="0 0 512 512"><path d="M191.988 469.36c0 5.908-4.746 10.64-10.64 10.64H74.668c-14.224 0-14.224-21.364 0-21.364h106.68c5.908 0 10.64 4.816 10.64 10.724zm-10.64-53.382h-21.364c-14.224 0-14.224 21.364 0 21.364h21.364c14.224 0 14.224-21.364 0-21.364zm-106.68 21.364h42.658c14.224 0 14.224-21.364 0-21.364H74.668c-14.224 0-14.224 21.364 0 21.364zm106.68-64.022H74.668c-14.224 0-14.224 21.364 0 21.364h106.68c14.224 0 14.224-21.364 0-21.364zm149.324-42.658H138.676c-14.224 0-14.224 21.364 0 21.364h191.996c14.224 0 14.224-21.364 0-21.364zM74.668 352.026h21.364c14.224 0 14.224-21.364 0-21.364H74.668c-14.224 0-14.224 21.364 0 21.364zm320.026-64.022h-64.022c-14.224 0-14.224 21.294 0 21.294h64.022c14.224 0 14.224-21.294 0-21.294zm-191.982 21.294h85.316c14.224 0 14.224-21.294 0-21.294h-85.316c-14.224 0-14.224 21.294 0 21.294zm-128.044 0h85.316c14.224 0 14.224-21.294 0-21.294H74.668c-14.224 0-14.224 21.294 0 21.294zm341.32-63.938H245.356c-14.224 0-14.224 21.294 0 21.294h170.632c14.224 0 14.224-21.294 0-21.294zM213.352 256c0-2.822-1.121-5.528-3.116-7.524a10.643 10.643 0 00-7.524-3.116H138.69c-14.224 0-14.224 21.294 0 21.294h64.022c2.822 0 5.528-1.121 7.524-3.116a10.643 10.643 0 003.116-7.524V256zM74.668 266.64h21.364c14.224 0 14.224-21.294 0-21.294H74.668c-14.224 0-14.224 21.294 0 21.294zm362.684-63.938h-106.68c-14.224 0-14.224 21.294 0 21.294h106.68c14.224 0 14.224-21.294 0-21.294zM74.668 223.996h106.68c14.224 0 14.224-21.294 0-21.294H74.668c-14.224 0-14.224 21.294 0 21.294zm245.364-53.312c0 5.838 4.746 10.64 10.64 10.64h106.68c14.224 0 14.224-21.364 0-21.364h-106.68a10.675 10.675 0 00-10.64 10.724zm-160.048-10.71c-14.224 0-14.224 21.364 0 21.364h21.364c14.224 0 14.224-21.364 0-21.364h-21.364zm-85.316 21.364h42.658c14.224 0 14.224-21.364 0-21.364H74.668c-14.224 0-14.224 21.364 0 21.364zm309.316-53.312c0 5.838 4.816 10.64 10.724 10.64h21.294c14.224 0 14.224-21.364 0-21.364h-21.294a10.675 10.675 0 00-10.64 10.724h-.084zm-21.294 0a10.721 10.721 0 00-10.64-10.724h-85.386c-14.224 0-14.224 21.364 0 21.364h85.316a10.721 10.721 0 0010.724-10.64h-.014zM74.668 138.68h149.338c14.224 0 14.224-21.364 0-21.364H74.668c-14.224 0-14.224 21.364 0 21.364zm96.026-53.382c0 5.908 4.746 10.724 10.64 10.724h213.36c14.224 0 14.224-21.364 0-21.364h-213.36a10.642 10.642 0 00-10.64 10.64zM74.668 96.022h64.022c14.224 0 14.224-21.364 0-21.364H74.668c-14.224 0-14.224 21.364 0 21.364zm0-42.658h256.004c14.224 0 14.224-21.364 0-21.364H74.668c-14.224 0-14.224 21.364 0 21.364z"/></svg>