<svg xmlns="http://www.w3.org/2000/svg" class="vicon" viewBox="0 0 512 512"><path d="M365.587 365.38h7.41v3.248h.523a8.698 8.698 0 0111.555-2.894l-2.054 6.963a6.8 6.8 0 00-3.434-.803 5.378 5.378 0 00-4.536 2.054 8.79 8.79 0 00-1.531 5.413v11.853h-7.915l-.018-25.834zm-4.854 19.562a14.297 14.297 0 01-5.04 5.227 13.826 13.826 0 01-7.429 1.885 15.348 15.348 0 01-5.6-1.008 14.019 14.019 0 01-4.424-2.893 13.146 13.146 0 01-3.995-9.875c0-1.866.336-3.621 1.046-5.264a13.402 13.402 0 012.912-4.386 13.53 13.53 0 019.874-4.107 14.017 14.017 0 015.638 1.045 11.984 11.984 0 016.589 7.168 15.806 15.806 0 01.691 7.504h-19.04c.373 1.68 1.176 2.912 2.37 3.696a7.23 7.23 0 003.995 1.158 6.437 6.437 0 005.973-3.36l6.44 3.21zm-7.018-10.08a4.265 4.265 0 00-.56-1.381 3.93 3.93 0 00-1.083-1.307 4.94 4.94 0 00-1.736-1.008 6.081 6.081 0 00-2.418-.441 6.08 6.08 0 00-4.372 2.014 6.059 6.059 0 00-1.237 2.123h11.406zm-23.184 10.08a14.313 14.313 0 01-5.04 5.227 13.831 13.831 0 01-7.411 1.885 15.348 15.348 0 01-5.6-1.008 14.019 14.019 0 01-4.424-2.893 13.127 13.127 0 01-4.013-9.875c0-1.866.354-3.621 1.064-5.264a13.422 13.422 0 012.893-4.386 13.55 13.55 0 014.514-3.071 13.54 13.54 0 015.361-1.036c2.146 0 4.013.336 5.637 1.045a11.975 11.975 0 016.589 7.168 15.781 15.781 0 01.691 7.504h-19.04c.373 1.68 1.176 2.912 2.371 3.696a7.224 7.224 0 004.013 1.158 6.437 6.437 0 005.973-3.36l6.422 3.21zm-7.019-10.08a4.232 4.232 0 00-.523-1.381 3.916 3.916 0 00-1.12-1.307 4.94 4.94 0 00-1.736-1.008 6.08 6.08 0 00-2.417-.441 6.081 6.081 0 00-2.395.555 6.059 6.059 0 00-3.214 3.582h11.405zm-35.803-2.688l-4.536-.074.075-7.243 4.667.224-.131-7.653 7.691.074-.299 7.28 6.851.374-.224 6.626-6.814.15.243 8.773c-.224 1.717.411 2.707.504 3.621 1.493 1.867 2.557 1.27 2.557 1.27.374-.15 3.024-.504 3.304-.71l.747 7.243c-2.576 1.531-7.037.672-7.037.672-4.723-.691-7.15-4.051-7.168-5.469-.467-1.27-.336-3.92-.542-5.414l.112-9.744zm-7.69 13.384c-.691 2.352-3.211 4.07-5.283 5.32a14.41 14.41 0 01-7.579 2.054 17.636 17.636 0 01-5.973-1.438c-1.68-.709-3.08-2.109-4.349-3.36-1.27-1.213-1.736-2.65-2.446-4.293a15.362 15.362 0 01-.84-5.787c-.28-3.621 2.352-7.056 3.958-9.426 5.226-4.443 9.146-4.107 9.146-4.107 7.224-1.4 12.992 5.376 13.403 8.157.56 1.606.411 3.36.411 5.227-.094 1.008 0 .933-.579 2.333h-19.357c.373 1.68 1.176 3.584 1.941 4.48.896 1.12 2.389 1.12 3.864 1.12s3.043.038 3.995-.597c.989-.635 3.21-1.344 3.789-2.333l5.899 2.65zm-6.907-10.416a7.611 7.611 0 00-.747-1.81c-.261-.486-.933-.859-1.418-1.232-.448-.43-1.326-.691-2.035-.934a5.792 5.792 0 00-2.259-.429 5.112 5.112 0 00-3.136.989c-1.064.691-1.81 2.24-2.296 3.547l11.891-.131zm-43.68-6.944h.523a7.24 7.24 0 012.744-2.576 9.293 9.293 0 014.741-1.12 11.64 11.64 0 018.717 3.864 12.978 12.978 0 012.744 4.331c.672 1.68.99 3.547.99 5.6a14.921 14.921 0 01-.99 5.6 13.59 13.59 0 01-2.744 4.368 12.069 12.069 0 01-8.717 3.789 9.66 9.66 0 01-4.741-1.045 7.62 7.62 0 01-2.744-2.651h-.523l.523 3.696v10.547h-7.915V365.38h7.392v2.818zm6.272 3.696a6.35 6.35 0 00-5.787 3.752 6.915 6.915 0 00-.485 2.632c0 .99.149 1.886.467 2.707.336.744.804 1.42 1.381 1.997a8.228 8.228 0 001.997 1.27c1.55.56 3.248.56 4.798 0a6.514 6.514 0 002.016-1.27 5.67 5.67 0 001.362-1.997 6.67 6.67 0 00.523-2.707 6.317 6.317 0 00-1.808-4.496 6.305 6.305 0 00-4.464-1.888zm-37.819-3.696h.56a7.25 7.25 0 012.726-2.576 9.293 9.293 0 014.741-1.12 11.63 11.63 0 018.699 3.864 12.993 12.993 0 012.744 4.331c.672 1.68 1.008 3.547 1.008 5.6a14.95 14.95 0 01-1.008 5.6 13.624 13.624 0 01-2.744 4.368 12.068 12.068 0 01-8.699 3.789 9.66 9.66 0 01-4.741-1.045 7.62 7.62 0 01-2.744-2.651h-.542l.56 3.696v10.547h-7.952V365.38h7.374l.018 2.818zm6.291 3.696a6.35 6.35 0 00-5.787 3.752 6.919 6.919 0 00-.504 2.632c0 .99.187 1.886.486 2.707.33.742.792 1.419 1.362 1.997.598.523 1.27.934 2.016 1.27 1.55.56 3.248.56 4.798 0a6.5 6.5 0 001.997-1.27 5.644 5.644 0 001.381-1.997 6.67 6.67 0 00.523-2.707 6.308 6.308 0 00-3.92-5.898 5.963 5.963 0 00-2.352-.486zm-26.749 16.054h-.523a8.774 8.774 0 01-7.915 4.106c-3.248 0-5.656-1.026-7.224-3.117a13.125 13.125 0 01-2.389-8.176v-15.4h7.915v14.504c0 1.419.336 2.576 1.008 3.491.672.877 1.698 1.306 3.117 1.306a4.573 4.573 0 004.051-2.053 9.279 9.279 0 001.437-5.376v-11.872h7.915v25.853h-7.392v-3.266zm-48.422 3.266v-37.781h13.515a15.306 15.306 0 015.32.896 12.637 12.637 0 014.293 2.539 10.98 10.98 0 012.8 3.845 12.513 12.513 0 01.99 5.04 12.273 12.273 0 01-1.008 4.984 11.53 11.53 0 01-7.075 6.384 15.283 15.283 0 01-5.32.896h-5.283v13.197h-8.232zm13.776-21c1.718 0 2.987-.429 3.846-1.269a4.376 4.376 0 001.269-3.211 4.38 4.38 0 00-1.269-3.229c-.84-.84-2.128-1.269-3.846-1.269h-5.544v8.96l5.544.018zM368.387 83.476l-11.088.933 4.405 54.731 11.685 6.776-5.002-62.44zm-224.299.186l-5.525 60.518 11.648-5.6 4.965-53.947-11.088-.97zm-9.147 96.75l-.821 10.397-23.277 58.557c-4.032 4.182-5.75 9.595-5.731 15.4L105 458.34c0 12.488 9.147 21.653 21.616 21.653h256.331c12.506 0 23.333-8.288 23.333-20.72V265.046c0-5.712-1.867-10.453-5.339-14.448l-25.088-73.976-.112-1.269-10.733 4.797 4.984 62.16H140.765l4.424-48.813 4.219-10.976-3.099-1.195.038-.56-11.406-.354zm244.758 43.68l6.029 18.424c-1.643-.262-2.949-.112-4.573-.187l-1.456-18.237zm-248.566 4.33l-1.568 13.888c-1.082-.093-2.24.094-3.21.131l4.778-14.019zm-3.36 21.168l255.174.15c8.773 0 15.922 6.421 15.922 15.213v14.859h-286.72v-14.859c0-8.773 6.795-15.363 15.624-15.363zm2.52 10.323a5.04 5.04 0 00-5.077 5.04c0 6.72 10.117 6.72 10.117 0a5.04 5.04 0 00-5.04-5.04zm17.174 0c-6.72 0-6.72 10.08 0 10.08s6.757-10.08.037-10.08h-.037zm16.725 0c-7.28-.635-7.28 10.677 0 10.043 6.16-.523 6.16-9.52 0-10.043zm-52.043 26.581h286.72V457.35c0 11.107-7.093 15.792-15.922 15.774l-255.136-.075a15.456 15.456 0 01-15.68-15.699l.018-170.856zm35.15 82.507c1.306-2.184 1.306-2.053 1.269-3.472-.149-1.363-.075-1.419-.989-2.52-1.008-1.008-2.296-2.576-3.734-2.501h-7.224l-.373 10.266h7.597c2.278-.037 2.987-1.568 3.454-1.754v-.019zm-3.454-15.493a10.827 10.827 0 018.251 3.192c2.053 2.184 3.061 5.096 3.061 8.68a12.134 12.134 0 01-2.986 8.624c-2.184 2.24-4.91 3.92-8.027 3.789l-7.467.149-.074 14.448-7.691-.242-.093-38.976 15.026.336zm33.47 23.52l-.224-11.648 6.832-.075.074 26.787-6.72.074v-2.277a10.854 10.854 0 01-8.064 2.8 10.387 10.387 0 01-7.709-2.912c-1.923-2.053-2.427-5.787-2.296-8.587l-.075-15.81h6.944l-.149 14.373a6.122 6.122 0 001.4 4.293 4.663 4.663 0 003.696 1.68c4.2 0 6.272-2.912 6.272-8.736l.019.038zm33.693 1.437a6.72 6.72 0 00-2.053-5.077c-1.307-1.363-2.147-2.203-4.07-2.147-1.866 0-3.472.336-4.965 1.755a7.237 7.237 0 00-2.165 5.469c0 2.24.709 4.051 2.184 5.413a6.983 6.983 0 005.04 2.128c1.904.056 3.098-.989 4.442-2.352 1.624-1.754 1.12-3.92 1.587-5.189zm-4.891-14.187c3.286 0 6.216 2.054 8.699 4.574a13.259 13.259 0 013.677 9.613 13.066 13.066 0 01-3.677 9.557c-1.736 2.987-5.787 4.76-9.072 4.742-2.987.093-6.72-1.232-7.989-3.678l.074 14.187-7.466.112-.374-38.08 7.766-.373v2.93c2.352-1.922 5.32-3.733 8.362-3.602v.018zm37.371 14.262c-.261-2.987-.821-3.79-2.184-5.283-1.344-1.381-2.184-1.624-4.107-1.587-1.866 0-3.322-.093-4.797 1.307a7.246 7.246 0 00-2.165 5.488c0 2.24.709 4.051 2.165 5.413a6.984 6.984 0 005.04 2.128c1.904.056 2.875-1.213 4.219-2.557 1.362-1.493 1.605-3.267 1.829-4.909zm-5.936-14c3.304 0 7.261 1.792 9.744 4.293a13.296 13.296 0 013.696 9.632 13.062 13.062 0 01-3.696 9.557c-1.96 2.8-6.421 4.76-9.744 4.742a8.878 8.878 0 01-7.317-3.678v14l-7.56.187-.43-37.968h7.99v2.557c2.352-1.922 4.293-3.416 7.317-3.304v-.018zm23.669 10.752l11.891-.15c-.317-1.381-1.176-2.24-2.315-3.098a6.66 6.66 0 00-7.578.056c-1.587 1.269-1.008 1.045-1.998 3.173v.019zm5.843-10.734c3.341-.056 7.933 1.456 10.304 3.79 2.483 2.426 2.931 5.749 3.099 9.557l-.579 2.333h-19.227c.374 1.774.822 3.472 1.942 4.555 1.101 1.045 2.856 1.307 4.368 1.307a9.346 9.346 0 007.149-3.174l5.899 2.632c-.859 2.614-3.491 4.163-5.675 5.526a14.13 14.13 0 01-7.616 1.754c-3.435.056-7.056-2.165-9.464-4.61a13.396 13.396 0 01-3.733-9.763c0-3.92 1.754-7.131 4.293-9.669 2.427-2.464 5.787-4.331 9.24-4.238zm31.229 21.038c1.494-.056 2.054.037 3.323-.71l.747 7.243c-1.998 1.176-2.52.709-4.854.784a11.813 11.813 0 01-7.765-2.893c-1.755-1.68-1.811-4.854-1.811-8.27l-.224-9.576-4.536-.074.075-7.243 4.667.224-.131-7.653 7.691.074-.299 7.28 6.851.374-.224 6.626-6.814.15.056 9.464c.038 2.893.784 4.2 3.267 4.2h-.019zm14-10.08h12.208a5.973 5.973 0 00-2.24-3.472 6.66 6.66 0 00-7.597.056 5.6 5.6 0 00-2.371 3.434v-.018zm6.31-10.958c3.453 0 6.869 1.718 9.333 4.107 2.483 2.427 3.229 5.507 3.416 9.333v2.24h-19.227a7.472 7.472 0 002.24 4.256 5.787 5.787 0 004.07 1.606c2.893 0 5.544-1.12 6.85-3.36l5.6 2.8c-.933 2.426-2.24 3.546-4.442 4.89a17.885 17.885 0 01-8.438 2.334 13.293 13.293 0 01-9.37-4.182 14.372 14.372 0 01-3.883-10.117c0-3.92 1.979-7.131 4.48-9.669 2.464-2.464 5.899-4.331 9.333-4.238h.038zm23.706 10.958h12.208a5.973 5.973 0 00-2.24-3.472 6.66 6.66 0 00-7.597.056 5.6 5.6 0 00-2.371 3.434v-.018zm6.291-10.958a13.815 13.815 0 019.333 4.107c2.502 2.427 3.248 5.507 3.435 9.333v2.24h-19.227a7.472 7.472 0 002.24 4.256 5.786 5.786 0 004.051 1.606c2.875 0 5.544-1.12 6.869-3.36l5.6 2.8c-.933 2.426-2.24 3.546-4.442 4.89a17.865 17.865 0 01-8.475 2.334 13.313 13.313 0 01-9.333-4.182 14.372 14.372 0 01-3.883-10.117c0-3.92 1.979-7.131 4.48-9.669 2.427-2.464 5.88-4.331 9.333-4.238h.019zm36.176.747l-1.251 6.795-3.36-.43c-6.01 0-6.72 3.864-6.72 11.107v9.147l-7.336.093.15-26.693h6.813l-.075 4.106c2.707-3.173 4.014-5.338 11.76-4.106l.019-.019zM358.96 179.646l.373-6.832 24.584-12.824.131 7.392-25.088 12.264zm-233.24-19.973l25.2 12.693-.149 7.336-24.528-12.133-.523-7.896zm134.587-32.629l90.328 45.696v7.317l-90.552-45.92.224-7.093zM159.955 172.18l91.354-45.174-.13 6.982-91.336 45.621.112-7.429zm64.717-74.182l-91.896-45.49 22.811-11.294 99.904 51.222 99.736-51.744 23.464 12.133-91.952 46.256c-3.659 1.829-2.427 7.243 1.25 9.072l90.31 45.173-22.774 11.611-99.922-50.344-100.39 50.475-23.762-11.835 93.296-46.349a4.968 4.968 0 00-.075-8.904v.018zm-98.597-30.762l.13-7.038 85.998 42.486-6.496 3.733-79.632-39.181zm180.096 38.77l-7.654-3.434 85.792-42.99-.522 7.69-77.616 38.734zm7.877 5.712l76.981-38.64a2.31 2.31 0 001.307-2.053V52.732c0-.86-.149-2.54-.933-2.931l-36.214-17.547a2.313 2.313 0 00-2.109 0l-96.451 48.963a2.291 2.291 0 01-2.053 0l-98.261-48.944a2.319 2.319 0 00-2.054 0l-36.456 17.23c-.746.373-.373 2.053-.373 2.93v18.573c0 .878.485 1.68 1.307 2.054l77.28 38.21-76.832 37.184c-.747.374-2.016 1.158-2.054 2.016l.318 19.302a2.292 2.292 0 001.269 2.109l36.083 18.405c.634.336 2.277.56 2.93.262l96.806-48.571a2.311 2.311 0 012.053 0l95.573 48.589a2.315 2.315 0 002.054 0l36.81-17.808c.784-.373 1.923-.933 1.942-1.792l-.131-19.282c0-.878-.877-2.8-1.68-3.174l-77.112-36.792z"/></svg>