<svg xmlns="http://www.w3.org/2000/svg" class="vicon" viewBox="0 0 512 512"><path d="M479.846 299.661c-.14 4.298-5.838 9.044-17.429 15.091-23.91 12.474-147.719 63.431-174.121 77.136-26.388 13.775-40.975 13.635-61.834 3.639-20.859-9.911-152.605-63.22-176.375-74.517-11.815-5.684-17.863-10.429-18.087-14.951v45.273c0 4.522 6.272 9.254 18.087 14.951 23.77 11.382 155.6 64.606 176.375 74.518 20.859 9.995 35.432 10.135 61.834-3.64 26.388-13.705 150.197-64.676 174.121-77.135 12.179-6.272 17.569-11.228 17.569-15.679v-44.63c0-.07-.07-.07-.14-.07v.014zm0-73.789c-.224 4.228-5.838 8.973-17.429 15.091-23.91 12.389-147.719 63.36-174.121 77.065-26.388 13.775-40.975 13.635-61.834 3.724-20.859-9.995-152.605-63.22-176.375-74.587-11.815-5.614-17.863-10.43-18.087-14.951v45.273c0 4.522 6.272 9.337 18.087 14.951 23.77 11.381 155.516 64.606 176.375 74.587 20.859 9.912 35.432 10.066 61.834-3.64 26.388-13.775 150.197-64.676 174.121-77.135 12.179-6.341 17.569-11.297 17.569-15.749v-44.629h-.14zm0-76.631c.224-4.522-5.684-8.526-17.723-12.907-23.252-8.526-146.403-57.523-169.963-66.202-23.547-8.61-33.178-8.246-60.882 1.68-27.705 9.995-158.736 61.386-182.06 70.499-11.66 4.592-17.358 8.82-17.134 13.341v45.274c0 4.521 6.202 9.253 18.087 14.951 23.7 11.381 155.516 64.606 176.375 74.587 20.775 9.911 35.432 10.065 61.834-3.724 26.318-13.705 150.197-64.676 174.121-77.065C474.61 203.333 480 198.378 480 193.926v-44.699l-.154.014zm-287.43 42.879l103.831-15.889-31.358 45.931-72.473-30.042zm229.6-41.423l-68.022 26.906-61.386-24.274 67.951-26.837 61.457 24.205zm-180.239-44.475l-10.065-18.521L263.07 99.95l29.524-9.632-8.022 19.109 30.112 11.298-38.791 4.003-8.75 20.929-13.999-23.336-44.839-4.004 33.472-12.095zM164.418 132.4c30.7 0 55.492 9.631 55.492 21.433 0 11.885-24.862 21.502-55.492 21.502s-55.493-9.631-55.493-21.502c0-11.816 24.863-21.433 55.493-21.433z"/></svg>