<svg xmlns="http://www.w3.org/2000/svg" class="vicon" viewBox="0 0 512 512"><path d="M246.664 42c-66.823 0-121.191 77.304-121.191 172.336 0 49.094 14.589 93.302 37.854 124.669a32.624 32.624 0 0018.208 35.506 32.63 32.63 0 0013.856 3.094 32.627 32.627 0 100-65.256 32.578 32.578 0 00-5.299.473c-16.669-24.831-27.33-60.03-27.33-98.486 0-73.208 38.427-135.047 83.902-135.047 38.398 0 71.681 44.165 81.133 101.964 13.257 3.803 26.463 8.949 39.402 15.167C360.878 109.778 309.235 42 246.664 42zM232.68 181.835a32.63 32.63 0 00-32.628 32.629 32.627 32.627 0 0032.628 32.628 32.627 32.627 0 0029.278-18.262c30.296-1.898 65.308 7.449 97.63 26.82 63.952 38.343 98.729 105.39 75.926 146.408-7.495 13.48-20.998 23.175-39.055 28.004-26 6.954-57.884 3.418-89.291-9.213-9.966 9.266-20.923 17.965-32.883 25.964 31.025 15.671 63.836 23.979 94.152 23.979 13.145 0 25.833-1.546 37.672-4.715 28.032-7.505 49.477-23.379 61.997-45.902 33.412-60.12-5.835-146.437-89.345-196.498-39.736-23.832-83.756-34.814-122.447-31.645a32.632 32.632 0 00-23.634-10.197zm-124.359 58.957C42.31 291.795 13.996 366.413 43.884 420.175c12.52 22.523 33.965 38.397 61.997 45.902 11.849 3.169 24.509 4.715 37.672 4.715 35.425 0 74.305-11.246 109.702-32.464 39.6-23.741 68.88-55.654 85.485-89.036 16.325-1.778 29.114-15.492 29.114-32.282 0-17.992-14.636-32.628-32.628-32.628s-32.628 14.636-32.628 32.628c0 5.036 1.231 9.757 3.277 14.02-13.461 27.732-38.577 55.388-71.793 75.307-40.049 24.014-84.374 32.889-118.569 23.725-18.048-4.829-31.542-14.524-39.037-28.004-18.03-32.442.02-81.1 39.948-119.024-3.832-13.424-6.574-27.559-8.103-42.242z"/></svg>