<svg xmlns="http://www.w3.org/2000/svg" class="vicon" viewBox="0 0 512 512"><path d="M95.888 32A6.907 6.907 0 0089 38.907v364.282c10.77-27.776 29.064-67.515 58.573-121.89C253.969 85.683 267.914 65.953 323.332 65.953c29.121 0 58.499 13.142 77.502 36.492A148.63 148.63 0 00276.611 32H95.888zM333.32 79.485c-22.214.187-42.131 8.699-50.362 27.963-18.051 42.109 30.316 88.98 51.463 85.265 26.916-4.76-4.76-66.506-4.76-66.506 41.159 77.576 31.676 53.831-42.745 125.061-74.422 71.229-150.408 221.62-161.496 227.929a8.833 8.833 0 01-1.493.803h291.877a6.958 6.958 0 005.851-3.322 6.963 6.963 0 00.309-6.721l-76.307-151.044a6.906 6.906 0 012.688-9.109 148.579 148.579 0 0074.758-129.038c0-26.598-6.963-51.535-19.227-73.17-17.303-17.77-45.357-28.298-70.537-28.11h-.019z"/></svg>