<svg xmlns="http://www.w3.org/2000/svg" class="vicon" viewBox="0 0 512 512"><path d="M430.72 367.52s40.32-4.48 40.32-53.76-47.04-56-47.04-56h-85.12v161.28h42.56v-38.08l38.08 38.08H480l-49.28-51.52zm-17.92-31.36h-33.6v-35.84h33.6s8.96 4.48 8.96 17.92c2.24 13.44-8.96 17.92-8.96 17.92zm51.52-159.04v4.48C282.88 130.08 211.2 289.12 224.64 412.32H83.52c15.68-120.96 168-360.64 380.8-235.2zM446.4 148c-15.68-6.72-31.36-13.44-47.04-17.92l2.24-29.12 47.04 17.92L446.4 148zm-44.8 40.32c15.68 0 31.36 2.24 47.04 6.72l-2.24 26.88-40.32-4.48-4.48-29.12zm-103.04-64.96l-8.96-26.88L336.64 92l8.96 29.12c-4.48 0-42.56 2.24-47.04 2.24zm29.12 82.88c8.96-4.48 24.64-11.2 44.8-15.68l8.96 26.88-40.32 15.68-13.44-26.88zm-76.16-67.2c-13.44 6.72-26.88 13.44-40.32 22.4l-17.92-29.12 40.32-22.4 17.92 29.12zm56 80.64l17.92 26.88-24.64 29.12-24.64-22.4c6.72-13.44 17.92-24.64 31.36-33.6zm-60.48 109.76c2.24-17.92 6.72-33.6 13.44-51.52l26.88 22.4-6.72 42.56-33.6-13.44zm-82.88-127.68c-11.2 11.2-22.4 24.64-31.36 35.84l-29.12-24.64 33.6-35.84 26.88 24.64zm-69.44 98.56c-8.96 17.92-15.68 35.84-22.4 51.52L32 336.16l20.16-51.52 42.56 15.68zm150.08 58.24L285.12 372l6.72 44.8-44.8-11.2c0-4.48-2.24-20.16-2.24-47.04z"/></svg>