<svg xmlns="http://www.w3.org/2000/svg" class="vicon" viewBox="0 0 512 512"><path d="M116 480l.438-.437c-25.667-1.167-45.792-9.042-60.376-23.625C41.48 441.646 33.605 421.667 32.439 396H32V256h.438c0-21 6.78-44.625 20.343-70.875 13.563-26.25 32.448-51.479 56.657-75.687 24.208-24.209 49.437-43.094 75.687-56.657C211.375 39.22 235 32.438 256 32.438V32h140v.438c25.667 1.166 45.646 9.041 59.938 23.624 14.583 14.584 22.458 34.709 23.625 60.376L480 116v364H116zm336-28l-98-98-126 98h224zM327.313 343.938L172 284l-23.625 164.5c27.708-5.542 57.24-17.354 88.594-35.437 31.354-18.084 61.469-41.125 90.344-69.125zM60 410c.583 1.458 1.823 4.302 3.719 8.531a501.027 501.027 0 005.468 11.813c1.75 3.646 3.355 6.198 4.813 7.656 8.458 8.458 16.188 13.344 23.188 14.656 7 1.313 18.229.802 33.687-1.531C84.792 356.917 61.167 308.5 60 305.875V410zM271.969 72.031c-13.854-13.854-35.438-15.896-64.75-6.125-29.313 9.771-57.75 28.438-85.313 56-27.562 27.563-46.229 56-56 85.313-9.77 29.312-7.729 50.896 6.125 64.75s35.438 15.896 64.75 6.125c29.313-9.771 57.75-28.438 85.313-56 27.562-27.563 46.229-56 56-85.313 9.771-29.312 7.729-50.896-6.125-64.75zm71.969 255.282c27.708-28.875 50.604-58.99 68.687-90.344 18.083-31.354 29.896-60.886 35.438-88.594L284 172l59.938 155.313zM437.125 74c-1.458-1.458-3.937-3.063-7.437-4.813-3.5-1.75-7.438-3.572-11.813-5.468-4.375-1.896-7.146-3.136-8.312-3.719H305.875l144.375 70c2.333-15.167 2.844-26.25 1.531-33.25-1.312-7-6.198-14.583-14.656-22.75z"/></svg>