<svg xmlns="http://www.w3.org/2000/svg" class="vicon" viewBox="0 0 512 512"><path d="M449.67 54.271a32.104 32.104 0 00-26.132-19.86A421.839 421.839 0 0038.137 204.64a32.106 32.106 0 00-3.286 32.105 422.145 422.145 0 00135.137 165.748 426.773 426.773 0 00193.373 77.2 31.504 31.504 0 0029.566-12.245 424.968 424.968 0 0082.725-195.762A422.593 422.593 0 00449.67 54.271zM230.016 118.48a166.8 166.8 0 0160.476-9.407c31.656 1.045 68.539 8.511 104.227 55.1a16.123 16.123 0 01.939 18.796 16.129 16.129 0 01-17.514 6.887 16.127 16.127 0 01-9.258-5.973c-22.398-29.267-43.602-41.362-79.44-42.407a137.37 137.37 0 00-47.484 7.167 16.267 16.267 0 01-18.667-3.024 16.27 16.27 0 01-4.813-12.154 16.276 16.276 0 0111.534-14.985zm128.866 251.609a162.763 162.763 0 01-60.327 9.407 152.651 152.651 0 01-29.118-3.733c-27.027-6.122-57.788-21.055-83.471-54.801a16.283 16.283 0 01-2.259-18.911 16.284 16.284 0 0110.502-7.952 16.264 16.264 0 0112.948 2.425 16.284 16.284 0 014.642 4.876c22.398 29.268 51.815 44.648 87.652 45.693a134.542 134.542 0 0047.634-7.167 16.192 16.192 0 0120.733 21.575 16.199 16.199 0 01-8.936 8.588zm39.57-51.666a17.172 17.172 0 01-18.665 11.349l-3.285-.747a17.32 17.32 0 01-11.561-15.404 17.324 17.324 0 01.959-6.696c5.375-15.38.298-22.398-1.344-24.638-13.29-18.815-58.684-20.457-77.499-20.308-46.14.299-77.05-11.05-91.982-33.747-14.933-22.697-9.109-46.887-3.883-58.534a17.321 17.321 0 0131.657 13.887c-.15.448-5.973 15.081 1.194 25.833 7.168 10.751 30.163 18.217 62.716 17.918 53.607-.298 89.145 11.349 106.019 34.792 11.199 15.679 13.14 35.091 5.674 56.295z"/></svg>