<svg xmlns="http://www.w3.org/2000/svg" class="vicon" viewBox="0 0 512 512"><path d="M403.955 118.817a4.209 4.209 0 00-3.974-3.613c-1.806 0-33.625-.722-33.625-.722s-19.518-18.805-26.753-26.039v390.834l113.522-28.179s-48.808-330.113-49.17-332.281zm-90.02-30.374a105.39 105.39 0 00-6.512-15.905c-9.429-18.073-23.501-27.872-40.137-27.872a13.547 13.547 0 00-3.613.361c-.361-.723-1.084-1.084-1.445-1.806-7.226-7.921-16.619-11.534-27.836-11.2-21.677.723-43.353 16.258-60.739 44.103-12.293 19.526-21.677 44.111-24.224 63.277-24.946 7.586-42.296 13.014-42.657 13.376-12.645 3.974-13.015 4.335-14.451 16.257C91.237 178.066 58 432.601 58 432.601L331.285 480V84.108c-1.33.05-2.657.17-3.974.361 0 0-5.058 1.445-13.376 3.974zm-49.892 15.553c-14.451 4.335-30.374 9.393-45.918 14.099 4.336-16.998 13.015-33.987 23.14-45.16 3.974-3.974 9.402-8.68 15.544-11.57 6.15 12.98 7.595 30.7 7.234 42.631zM234.392 46.87a24.83 24.83 0 0113.024 3.215c-5.781 2.89-11.57 7.596-16.989 13.015-13.738 14.83-24.224 37.933-28.559 60.016a21357.814 21357.814 0 01-37.934 11.57c7.912-34.673 37.193-87.094 70.458-87.817zm-41.935 198.853c1.445 23.131 62.545 28.198 66.158 82.786 2.529 43.028-22.778 72.309-59.294 74.486-44.102 2.89-68.326-23.14-68.326-23.14l9.393-39.74s24.224 18.443 43.751 16.998c12.644-.723 17.359-11.209 16.988-18.443-1.806-30.365-51.698-28.559-54.949-78.451-2.89-41.943 24.584-84.239 85.323-88.222 23.483-1.446 35.432 4.344 35.432 4.344l-13.737 52.023s-15.544-7.225-33.987-5.78c-26.752 1.815-27.113 18.795-26.752 23.139zm86.046-146.072c0-10.838-1.445-26.39-6.512-39.405 16.637 3.251 24.585 21.676 28.207 32.903-6.509 1.806-13.741 3.974-21.695 6.502z"/></svg>