<svg xmlns="http://www.w3.org/2000/svg" class="vicon" viewBox="0 0 512 512"><path d="M48.767 171.004L32 193.572h82.023l6.254-118.457-71.51 95.889zM383.022 65.417L266.468 53l122.989 133.412-6.435-120.995zM125.533 221.85l-10.15-19.94H32.816L236.65 439.098 125.533 221.85zm1.813-28.278h257.399l-73.867-80.21-54.742-59.456-128.79 139.666zm269.453 8.248L275.441 439.098 479.184 201.91h-82.385v-.09zm3.534-115.286l-8.519-11.42.816 15.68 5.528 102.778H480L400.333 86.534zM126.712 108.74l-4.169 77.582L245.622 53 129.068 65.417l-2.356 43.322zm260.752 93.081H124.627l38.429 75.135 93.08 182.082L387.464 201.82z"/></svg>