<svg xmlns="http://www.w3.org/2000/svg" class="vicon" viewBox="0 0 512 512"><path d="M467.158 303.599a205.697 205.697 0 004.9-45.15c0-116.319-95.69-210.699-213.789-210.699a221.823 221.823 0 00-36.52 3A123.577 123.577 0 00155.93 32C87.55 32 32 86.72 32 154.15a119.556 119.556 0 0017 61.849 211.159 211.159 0 00-4.32 42.35c0 116.439 95.69 210.699 213.669 210.699a214.055 214.055 0 0039.09-3.5 125.451 125.451 0 0058.63 14.45c68.499 0 123.929-54.72 123.929-122.149a118.01 118.01 0 00-12.84-54.25zm-99.159 55.4c-9.92 13.759-24.51 24.729-43.41 32.429-18.9 7.7-41.23 11.57-66.9 11.57-30.69 0-56.359-5.37-76.549-15.87a100.992 100.992 0 01-35.24-30.799c-9.11-12.83-13.66-25.66-13.66-38 0-7.7 3-14.35 8.87-19.95 5.84-5.37 13.42-8.17 22.29-8.17 7.35 0 13.65 2.1 18.79 6.42 4.9 4.08 9.1 10.15 12.48 18.08a108.088 108.088 0 0012.33 21.44c4.213 5.48 10.166 10.03 17.859 13.65 7.82 3.62 18.2 5.48 31 5.48 17.62 0 32.09-3.73 42.94-11.08 10.74-7.12 15.88-15.75 15.88-26.25 0-8.28-2.69-14.82-8.29-19.95-5.83-5.37-13.42-9.57-22.87-12.37-9.69-3-22.87-6.18-39.21-9.56-22.17-4.67-40.999-10.27-55.999-16.57-15.28-6.42-27.65-15.4-36.76-26.48-9.22-11.32-13.77-25.55-13.77-42.239a67.856 67.856 0 0114.47-42.58c9.57-12.25 23.46-21.82 41.55-28.35 17.74-6.53 38.859-9.8 62.659-9.8 19.14 0 35.83 2.22 49.83 6.42 14 4.2 25.91 10.15 35.36 17.38 9.45 7.23 16.34 14.93 20.77 23s6.66 16.22 6.66 24c0 7.46-2.92 14.35-8.76 20.3a29.664 29.664 0 01-21.94 9.099c-7.93 0-14.12-1.87-18.43-5.6-4-3.499-8.17-8.869-12.72-16.689-5.37-9.91-11.79-17.85-19.14-23.45-7.24-5.36-19.14-8.16-35.71-8.16-15.29 0-27.77 3-36.999 9-8.87 5.72-13.19 12.37-13.19 20.18a18.256 18.256 0 004.32 12.25 38.116 38.116 0 0012.719 9.569 90.07 90.07 0 0017.15 6.53c6 1.64 15.87 4.09 29.53 7.12 17.38 3.62 33.25 7.82 47.26 12.13 14.24 4.55 26.49 10 36.52 16.45a72.936 72.936 0 0124.16 25.09c5.719 10 8.639 22.63 8.639 37.1a75.092 75.092 0 01-14.489 47.23z"/></svg>