<svg xmlns="http://www.w3.org/2000/svg" class="vicon" viewBox="0 0 512 512"><path d="M439.316 55.268a204.323 204.323 0 01-23.912 42.434A224.771 224.771 0 00256.588 32C133.36 32 32 133.36 32 256.588a224.558 224.558 0 0069.776 162.68l8.246 7.364a224.95 224.95 0 00144.662 52.864c117.18 0 215.614-91.728 224-208.544 6.132-57.246-10.724-129.57-39.382-215.614l.014-.07zM133.64 420.584a18.94 18.94 0 01-14.882 7.07c-10.64 0-19.18-8.61-19.25-19.18 0-10.57 8.75-19.25 19.25-19.25 16.114.07 25.088 18.816 14.882 31.36zm304.794-67.228c-55.412 73.794-173.838 48.93-249.662 52.5 0 0-13.496.798-27.048 2.996 0 0 5.11-2.114 11.662-4.662 53.298-18.522 78.456-22.092 110.838-38.724 60.956-30.996 121.254-98.798 133.798-169.316-23.254 67.886-93.632 126.14-157.724 149.842-43.89 16.184-123.228 31.934-123.228 31.934l-3.206-1.68c-54.026-26.25-55.636-143.206 42.504-180.978 42.952-16.478 84.14-7.434 130.522-18.452 49.588-11.816 106.974-49 130.298-97.496 26.11 77.588 57.526 198.996 1.246 274.022v.014z"/></svg>