<svg xmlns="http://www.w3.org/2000/svg" class="vicon" viewBox="0 0 512 512"><path d="M119.846 78.762s-1.493 2.37-.075 5.88c.859 2.165 3.472 4.779 6.347 7.541 0 0 30.146 29.418 33.842 33.674 16.706 19.283 23.967 38.266 24.639 64.455.411 16.8-2.818 31.584-10.695 48.775-14.112 30.781-43.866 64.735-89.785 102.478l6.72-2.239c4.349-3.23 10.229-6.702 24.116-14.299 31.976-17.472 67.871-33.562 111.98-50.138 63.447-23.837 167.81-51.817 227.206-60.908l6.179-.952-.933-1.493c-5.451-8.437-9.147-13.645-13.627-19.171-13.01-16.109-28.783-29.25-48.103-40.057-26.543-14.878-60.983-26.432-104.531-35.093a1269.005 1269.005 0 00-40.898-7 3908.942 3908.942 0 01-73.247-11.947c-7.933-1.4-19.786-3.378-27.645-5.077a175.536 175.536 0 01-17.938-4.816c-5.003-1.96-12.04-3.864-13.552-9.613zm17.472 16.968c.056-.038 1.176.317 2.557.784 2.539.859 5.898 1.867 9.818 2.968 2.726.746 5.731 1.568 8.942 2.37 4.069 1.046 7.447 1.942 7.485 1.998.448.504 7.298 22.362 9.632 30.743.896 3.211 1.568 5.88 1.512 5.936a14.665 14.665 0 01-1.68-2.613c-7.915-13.925-20.477-28.093-34.981-39.498a57.84 57.84 0 01-3.285-2.688zm33.412 9.221c1.228.117 2.445.329 3.64.635 11.555 2.538 32.2 6.533 45.453 8.773 2.221.373 4.032.746 4.032.877a6.46 6.46 0 01-1.83 1.157c-2.221 1.12-11.237 6.515-14.242 8.531a133.915 133.915 0 00-19.226 15.325 100.264 100.264 0 01-3.678 3.584 17.362 17.362 0 01-.765-2.557 225.638 225.638 0 00-12.133-33.208 33.478 33.478 0 01-1.325-3.08c0-.018 0-.037.074-.037zm58.743 11.162c.374.131 1.12 2.427 2.408 7.542a112.934 112.934 0 012.856 36.903l-.224.709-3.49-1.12a884.775 884.775 0 00-29.157-8.586 123.584 123.584 0 01-10.453-3.173c0-.411 8.381-8.792 11.983-11.984 6.888-6.085 25.424-20.496 26.077-20.291zm4.667.672c.205-.186 28.074 4.63 40.73 7.056 9.445 1.811 23.09 4.667 23.911 5.022.411.149-1.008.933-5.543 2.986-17.92 8.064-31.211 15.307-44.426 24.136-3.472 2.314-6.366 4.218-6.422 4.218-.074 0-.112-1.941-.112-4.293 0-12.88-2.594-25.89-7.298-36.885a12.822 12.822 0 01-.84-2.24zm72.052 14.262c.205.205-.709 5.711-1.493 8.959-2.464 10.08-8.998 25.088-17.061 39.181a42.214 42.214 0 01-2.838 4.592 28.072 28.072 0 01-4.088-2.147c-7.877-4.61-16.799-8.96-26.599-13.01a85.56 85.56 0 01-5.189-2.24c-.448-.411 21.335-14.84 32.89-21.765 9.24-5.544 24.117-13.832 24.378-13.57zm5.152.802c.616 0 12.973 3.36 19.357 5.283 15.922 4.76 34.29 11.461 46.199 16.874l4.947 2.24-3.491.803c-29.138 6.72-54.132 14.429-78.175 24.191-1.997.822-3.733 1.494-3.864 1.494a17.082 17.082 0 011.4-3.454c7.243-15.362 11.91-31.49 13.123-45.172.112-1.251.336-2.259.504-2.259zm-122.825 28.224c.187-.187 9.595 2.016 14.728 3.453 7.709 2.165 24.117 7.653 24.117 8.082 0 .075-1.811 1.662-4.013 3.51a507.658 507.658 0 00-27.682 25.069 98.377 98.377 0 01-5.75 5.32c-.13 0-.186-.43-.112-.934 1.55-11.405 1.214-26.039-.933-40.935a23.986 23.986 0 01-.373-3.547l.018-.018zm198.05.186c.131.15-4.368 7.187-7.168 11.2-4.106 5.861-10.023 13.552-23.538 30.557l-17.808 22.437c-1.626 2.11-3.3 4.182-5.021 6.216-.056 0-.933-1.232-1.922-2.726a141.572 141.572 0 00-27.44-30.332 178.802 178.802 0 00-5.04-4.07 7.913 7.913 0 01-1.381-1.176c0-.186 11.517-5.114 20.309-8.698a691.09 691.09 0 0151.855-18.48c8.25-2.52 17.024-5.04 17.154-4.928zm5.189 1.363a17.31 17.31 0 013.864 1.867 229.083 229.083 0 0145.322 34.047c3.622 3.547 12.451 12.749 12.32 12.824l-6.776.541c-28.559 2.147-65.071 8.213-100.238 16.669-2.389.56-4.443 1.045-4.592 1.045-.131 0 2.483-2.613 5.805-5.823 20.664-19.843 30.072-32.368 41.16-54.767 1.642-3.323 3.042-6.216 3.098-6.384h.037v-.019zm-150.973 15.493c.952.187 9.763 4.293 16.408 7.616 6.066 3.043 15.269 7.952 15.736 8.381.056.056-3.174 1.736-7.206 3.752a459.006 459.006 0 00-35.055 19.357c-3.267 1.997-5.973 3.621-6.067 3.621-.28 0-.186-.242 1.643-3.565a143.758 143.758 0 0013.776-37.37c.261-1.157.56-1.867.765-1.811v.019zm-8.866 1.568c.186.187-2.091 8.587-3.547 13.066a169.73 169.73 0 01-15.586 33.749l-1.68 2.744-3.79-3.677a49.849 49.849 0 00-12.618-9.333 18.928 18.928 0 01-3.285-1.904c0-.56 11.573-11.069 20.495-18.629 6.403-5.414 19.861-16.184 20.011-16.016zm53.908 22.176l3.304 2.146c7.597 4.928 16.576 11.555 23.426 17.248 3.845 3.211 11.293 9.893 12.824 11.498l.821.878-5.488 1.53a1004.63 1004.63 0 00-83.065 26.581c-1.97.755-3.962 1.453-5.973 2.091-.392 0-.784.355 6.216-6.085 17.92-16.483 33.73-34.645 45.546-52.303l2.389-3.584zm-14.168 3.546c.168.168-9.184 13.253-14.728 20.645-6.645 8.829-18.479 23.613-26.618 33.226a163.55 163.55 0 01-6.458 7.411c-.187.056-.28-.934-.299-2.483 0-8.213-2.091-16.986-5.749-24.415-1.549-3.136-1.811-3.883-1.493-4.182 1.269-1.157 21.037-12.431 33.487-19.095 8.568-4.592 21.709-11.275 21.858-11.107zm-85.678 21a74.434 74.434 0 0115.157 9.669c.149.093-1.624 1.549-3.92 3.211-6.44 4.648-16.24 12.021-21.896 16.538-5.973 4.76-6.178 4.909-5.506 3.864 4.48-6.851 6.72-10.715 9.072-15.68 2.109-4.405 4.181-9.632 5.674-14.186a12.619 12.619 0 011.437-3.416h-.018zm22.829 17.92c.317-.056.746.522 2.594 3.266 3.864 5.787 6.832 13.477 7.598 19.749l.149 1.363-9.277 3.584a871.213 871.213 0 00-42.298 17.546c-2.894 1.344-7.989 3.771-11.331 5.451-3.341 1.68-6.066 2.986-6.066 2.912 0-.075 2.09-1.662 4.666-3.51 20.291-14.746 37.8-30.874 50.997-47.02 1.4-1.717 2.688-3.211 2.856-3.323a.29.29 0 01.112-.037v.019zm-10.528 2.613c.28.261-7.485 9.034-12.712 14.373a226.193 226.193 0 01-42.111 33.991c-2.016 1.288-3.845 2.427-4.107 2.576-.429.262.15-.41 7.205-8.101 4.443-4.835 7.84-8.848 11.723-13.869a23.154 23.154 0 016.757-6.459c10.024-7.242 32.984-22.791 33.245-22.53v.019zM216.93 32.003c-1.494-.187-25.592 8.493-41.066 14.765-20.963 8.53-37.258 16.688-47.301 23.744-3.733 2.613-8.437 7.335-9.109 9.146a6.63 6.63 0 00-.392 2.296l9.109 8.587 21.616 6.906 51.5 9.221 58.855 10.117.597-5.039-.522-.094-7.747-1.232-1.586-2.762a517.055 517.055 0 01-21.971-43.4 228.94 228.94 0 01-9.893-27.346c-1.269-4.536-1.4-4.816-2.09-4.909zm-1.139 3.472h.093c.056.056.318 1.96.598 4.2 1.157 9.482 3.285 18.666 6.607 28.56 2.502 7.466 2.539 7.037-.448 6.197-6.906-1.923-37.93-7.243-60.366-10.36-2.228-.284-4.45-.614-6.664-.99-.28-.28 16.183-8.903 23.482-12.32 9.352-4.33 34.85-14.932 36.698-15.287zm-65.37 30.389l2.632.896c14.411 4.89 50.511 11.797 70.466 13.44 2.24.186 4.144.391 4.2.447.056.056-1.867 1.083-4.256 2.278-9.613 4.816-20.216 10.696-27.552 15.288-2.146 1.343-4.106 2.426-4.386 2.407a89.498 89.498 0 01-3.174-.504l-2.688-.429-6.813-6.626c-11.965-11.574-21.298-20.533-24.919-23.893l-3.51-3.304zm-2.669 2.128l9.539 11.909c5.264 6.533 10.527 13.047 11.685 14.448 1.176 1.4 2.072 2.575 2.016 2.613-.262.205-13.813-2.427-21-4.088a159.23 159.23 0 01-14.989-3.957l-3.733-1.195.018-.915c.056-4.573 5.824-11.33 15.605-18.218l.859-.597zm81.236 16.22c.28.02.597.598 1.437 2.446 2.315 5.077 9.52 18.816 11.256 21.466.56.878 1.493.934-8.082-.616-22.96-3.696-30.408-4.946-30.408-5.096a6.76 6.76 0 011.549-1.008 133.033 133.033 0 0020.664-14.317l3.267-2.744c.112-.093.224-.149.317-.13zm80.433 156.947l-89.748 29.269-78.025 34.458-21.839 5.787a597.07 597.07 0 01-35.99 31.396 139.314 139.314 0 00-17.788 17.64c-6.197 7.728-11.05 15.941-13.141 22.269-3.733 11.387-1.923 22.922 5.32 33.562 9.24 13.589 27.626 27.402 48.999 36.81 10.92 4.779 29.306 10.976 43.119 14.448 23.016 5.824 67.46 12.133 91.95 13.066 4.966.187 11.574.187 11.891-.037.523-.355 4.349-7.56 8.773-16.613 15.045-30.725 25.928-59.546 31.789-84.148 3.546-14.914 6.309-34.775 8.101-58.332.551-12.026.651-24.068.299-36.101a253.42 253.42 0 00-3.416-31.845 8.102 8.102 0 01-.224-2.8c.261-.186 1.101-.466 12.133-3.677l-2.203-5.152zm-20.533 12.04c.84 0 2.987 20.794 3.566 33.973.112 2.818.093 4.61-.075 4.61-.523 0-11.48-6.44-19.264-11.311a535.92 535.92 0 01-21.69-14.411c-.653-.523-.579-.541 4.965-2.445 9.427-3.248 31.808-10.416 32.517-10.416h-.019zm-45.695 14.989c.56 0 2.147.877 5.88 3.211 14 8.773 32.965 19.319 41.066 22.866 2.539 1.12 2.819.672-2.987 4.611-12.357 8.399-27.738 16.65-46.61 25.05a141.3 141.3 0 01-6.178 2.65c.138-1.268.407-2.52.803-3.733 4.573-16.893 7.149-33.973 7.223-47.674.038-6.757.038-6.794.691-6.962h.112v-.019zm-9.408 3.603c.392.41.112 15.567-.373 19.711a171.785 171.785 0 01-7.803 34.29c-.261.318-9.538-8.735-12.618-12.319a91.802 91.802 0 01-12.488-18.163c-1.53-3.024-3.994-9.034-3.77-9.202 1.045-.747 36.791-14.56 37.052-14.317zm-44.332 17.471c.074 0 .149.019.186.075.414.786.764 1.603 1.046 2.445a91.422 91.422 0 0011.237 20.16 116.621 116.621 0 0018.983 19.786c.43.374.56.299-10.49 4.48a905.609 905.609 0 01-42.821 14.933c-6.103 1.979-11.274 3.64-11.479 3.734-.616.205-.43-.168 1.362-2.95 7.971-12.431 20.029-36.772 26.786-53.983 1.158-2.986 2.278-5.973 2.483-6.645.28-.971.579-1.307 1.493-1.717.375-.197.79-.306 1.214-.318zm-13.589 5.6c.186.168-3.248 7.43-6.646 14.019a540.659 540.659 0 01-23.389 40.786l-3.397 5.376c-.336.504-.485.336-1.53-1.755a61.703 61.703 0 01-5.227-15.717 63.282 63.282 0 01.373-20.216c.878-4.237.84-4.144 2.838-5.152 8.623-4.424 36.698-17.583 36.978-17.341zm117 4.76v2.875a375.218 375.218 0 01-4.76 55.85 174.747 174.747 0 01-35.428-14.598c-6.608-3.621-16.147-9.463-15.867-9.743.056-.075 2.875-1.55 6.235-3.304 13.328-6.907 26.039-14.373 37.108-21.765 4.144-2.763 10.36-7.261 11.742-8.475l.97-.84zm-168.221 20.029c.28 0 .206.523-.224 3.005a77.316 77.316 0 00-.765 7.28c-.56 9.931 1.064 17.248 5.973 27.253 1.381 2.8 2.464 5.115 2.408 5.152-.504.429-45.36 13.552-59.47 17.416l-8.12 2.24c-.505.149-.542.037-.374-1.12 1.55-9.949 9.146-22.997 19.749-33.973 7.056-7.28 12.693-11.61 22.306-17.08a575.283 575.283 0 0118.517-10.173zm105.82 18.947c.037-.038 1.698.84 3.677 1.997 14.504 8.381 34.719 16.24 51.948 20.178l1.568.373-2.146 1.176c-8.998 5.003-38.658 17.341-68.954 28.691a1270.325 1270.325 0 00-9.576 3.621 5.848 5.848 0 01-1.53.504c0-.075 1.25-2.464 2.781-5.339 8.512-15.903 16.986-35.223 21.354-48.626.43-1.362.822-2.519.878-2.575zm-10.79 3.546a26.04 26.04 0 01-1.175 3.155 439.245 439.245 0 01-23.539 47.412 167.327 167.327 0 01-4.704 8.083c-.093 0-2.128-1.232-4.554-2.707-14.373-8.81-27.104-19.637-35.466-30.183l-1.195-1.494 6.197-1.698a440.855 440.855 0 0059.546-20.589c2.651-1.12 4.853-2.035 4.89-1.979zm67.013 23.389c.018 0 .037.019.037.056 0 1.493-3.416 15.456-6.272 25.573-2.389 8.456-4.405 15.082-8.12 26.823a158.547 158.547 0 01-3.136 9.408 280.056 280.056 0 01-55.999-15.698 148.785 148.785 0 01-11.928-5.283c-.112-.13 3.976-2.053 9.072-4.293 30.893-13.458 62.887-28.802 73.826-35.391a8.056 8.056 0 012.52-1.195zm-154.688 5.283c.168.168-8.475 12.525-20.533 29.418l-10.957 15.362c-1.811 2.595-4.574 6.683-6.142 9.109l-2.856 4.406-3.023-2.558a120.856 120.856 0 01-12.638-12.879c-5.824-7.262-9.762-14.896-11.33-21.915-.71-3.248-.747-4.89-.056-5.096a3279.928 3279.928 0 0136.101-8.493l24.266-5.693c3.901-.933 7.13-1.68 7.168-1.661zm8.68 3.322l2.184 2.446a126.228 126.228 0 0031.844 26.02 18.152 18.152 0 013.64 2.39 5261.35 5261.35 0 01-80.825 28.559 16.075 16.075 0 01-1.344-.896l-1.25-.896 1.96-2.837c6.346-9.203 14.335-19.32 31.825-40.357l11.966-14.429zm54.132 38.696c.056-.056 3.08 1.008 6.757 2.389 8.829 3.304 15.755 5.45 25.144 7.802 11.517 2.894 28.186 5.787 38.042 6.608 1.493.112 2.277.299 2.053.448-.467.299-10.453 3.621-17.789 5.936a4828.443 4828.443 0 01-86.537 25.442c-.653.131-2.931-.466-2.931-.746 0-.168 1.624-2.222 3.603-4.592a411.121 411.121 0 0027.551-37.034 1085.18 1085.18 0 014.107-6.253zm-11.984.336c.093.093-4.722 7.802-13.178 21.13-3.584 5.618-7.635 12.04-9.016 14.224-1.4 2.202-3.435 5.562-4.517 7.466l-1.998 3.453-1.008-.261c-2.426-.653-19.581-6.72-24.098-8.512a159.28 159.28 0 01-15.792-7.261c-5.394-2.912-12.226-7.243-11.703-7.411l20.626-5.637c29.717-8.101 46.162-12.749 56.932-16.127 2.035-.616 3.715-1.102 3.733-1.064h.019zm84.428 19.805h.112c.28.709-10.733 31.172-14.746 40.841-.915 2.166-1.232 2.707-1.718 2.67a1033.907 1033.907 0 01-26.749-3.734c-16.911-2.575-45.228-7.522-52.377-9.146l-1.662-.373 10.136-2.278c21.728-4.89 32.162-7.522 42.746-10.77a308.963 308.963 0 0039.909-15.381 42.807 42.807 0 014.349-1.829z"/></svg>