<svg xmlns="http://www.w3.org/2000/svg" class="vicon" viewBox="0 0 512 512"><path d="M287.172 197.027c-8.307-6.608-31.677 4.461-38.267 20.869-8.325 20.832-20.626 51.259-32.704 64.587-12.749 14-14.018 3.173-12.749-4.891 2.949-19.04 21.523-63.112 31.659-75.544-3.771-5.6-28.374-4.778-45.454 21.766-6.384 10.005-20.944 43.4-37.146 69.701-3.547 5.693-7.971 1.717-4.536-11.592 3.864-15.4 15.269-57.661 29.941-90.925 38.528-7.635 79.408-12.992 110.749-13.104 4.219-1.12 7.038-4.91 0-5.134-27.01-.914-67.573 2.278-105.504 7.094 7.299-14.598 15.158-26.208 23.128-31.118-8.661-5.469-26.208-3.304-36.213 11.518a196.743 196.743 0 00-13.104 23.221c-27.813 4.331-51.613 9.221-63.69 13.795-12.526 4.778-11.163 19.936-3.547 17.08 15.866-5.918 37.258-12.078 61.077-17.547-15.157 34.179-27.011 74.517-29.848 90.907-7.075 39.89 17.659 39.648 29.736 23.93 13.104-17.21 40.432-77.709 44.651-84.074 1.25-2.166 2.986-1.027 2.053.896-30.52 60.946-27.925 84.541-3.173 79.296 11.144-2.39 30.408-21.523 35.41-31.435 1.027-2.389 3.192-2.165 2.726-1.139-19.358 50.251-43.96 90.907-60.48 103.675-15.027 11.499-26.208-13.44 26.992-49.224 7.877-5.339 4.218-12.637-4.667-10.136-27.44 4.331-106.045 29.269-140.56 53.2-2.65 1.829-5.04 3.304-4.928 7.075.112 2.165 3.883 1.362 5.712.224 44.67-26.787 81.219-37.24 123.144-46.032.56.242 1.251.354 1.811.13 1.941-.466 1.829.56.578 1.363a74.528 74.528 0 01-6.384 3.304c-28.242 11.032-45.341 35.411-39.293 47.843 5.133 10.714 32.816 6.832 45.92-.224 32.107-17.435 55.459-51.614 71.419-98.784 13.906-41.814 31.453-89.19 35.541-90.571zM101.047 332.043c11.629-13.907 12.992-28.261 3.994-54.917-5.693-16.856-15.157-29.848-8.213-40.32 7.411-11.163 23.147-.355 10.043 14.56l2.613 1.829c15.717 1.829 23.464-19.712 11.723-25.872-30.987-16.165-58.11 14.933-46.144 50.941 5.133 15.251 12.32 31.435 6.496 44.315-5.003 11.051-14.69 17.547-21.187 17.771-13.552.69-4.555-30.427 11.05-38.174 1.363-.672 3.305-1.586 1.494-3.864-19.264-2.165-30.539 6.72-37.035 19.134-18.909 36.101 35.878 49.448 65.147 14.597h.019zm372.848-38.528c-52.267-6.832-165.051 2.277-214.835 15.512-14.821 3.864-10.715 11.723-3.192 10.248.112 0 3.304-.803 3.416-.803 40.899-7.97 140.131-14.933 197.997-3.864 6.944 1.251 27.814-19.6 16.614-21.093zm-172.107-6.141c14.56-7.28 36.213-52.416 50.437-77.112 1.027-1.83 2.856-.374 1.83.896-35.99 61.973-20.72 69.16-6.496 68.245 19.04-1.139 36.586-28.485 40.45-34.645 1.606-2.39 2.52-.448 1.606 1.269-.934 2.837-4.219 7.859-7.299 14.691-4.331 9.688.224 13.44 3.995 15.157 5.917 2.856 22.082 1.027 24.584-8.885-16.147-.336 22.568-76.683 26.562-81.35-10.826-6.272-27.57.579-35.205 15.606-16.277 32.237-29.96 58.221-38.509 58.669-16.614.915 19.152-71.867 24.957-74.163-3.547-5.133-26.208-2.968-38.864 16.614-4.555 7.093-32.331 56.298-39.181 64.4-12.078 14.354-12.992 2.053-9.576-12.32 1.138-4.891 3.08-11.163 5.6-18.107 7.97-17.995 16.52-23.707 21.765-29.512 35.187-39.069 55.365-70.747 47.376-83.16-7.056-11.051-30.651-6.16-45.789 16.613-27.926 41.832-53.648 99.12-56.952 125.347-3.192 26.189 15.81 28.112 28.69 21.747h.019zm137.611-61.526c4.442 10.939 11.162 21.766 7.168 31.342-3.304 8.194-7.654 11.629-12.414 12.413-6.72 1.12-4.909-19.936 6.608-26.208 1.027-.56 2.502-3.304 1.12-4.891-14.56-.802-22.773 6.16-27.216 15.382-12.88 27.01 29.176 34.384 49.784 7.84 8.214-10.584 8.55-21.056.672-40.078-4.984-12.077-12.618-21.093-7.84-29.064 5.134-8.4 17.416-1.138 8.214 10.155l2.053 1.12c11.947.691 16.837-15.251 7.728-19.227-24.024-10.266-46.48 15.587-35.877 41.216zM316.591 210.71c1.25-2.856 2.053-3.64 4.218-8.438 12.507-27.57 28.262-56.616 39.07-70.168 6.72-7.074 16.165 2.502-.915 28.71a264.391 264.391 0 01-33.824 42.261v.112c-3.192 3.528-6.048 6.496-7.299 8.213-.914 1.12-1.941.915-1.25-.69z"/></svg>