<svg xmlns="http://www.w3.org/2000/svg" class="vicon" viewBox="0 0 512 512"><path d="M360.194 136.726l-9.07-6.31c45.351-51.662-9.071-89.125-34.704-50.478-24.056 36.281 8.676 81.238 28.394 139.603 31.154 92.281 26.422 141.971-13.802 190.083-101.352 120.675-291.04 74.534-225.575-50.479 22.478-42.985 61.52-73.745 128.167-66.253 6.31 7.888-.394 11.043-5.127 13.409-54.027 26.817-85.181 134.477-38.253 132.111 22.479-.788 56-23.267 73.351-61.52 20.113-44.563-4.732-100.562-22.478-153.407C199.689 98.867 293.548-8.793 400.814 47.205c40.619 21.296 13.803 95.831-40.619 89.521h-.001z"/></svg>