<svg xmlns="http://www.w3.org/2000/svg" class="vicon" viewBox="0 0 512 512"><path d="M334.661 158l-1.4 7.299c-2.165 13.832-1.381 17.789 4.555 22.922l5.731 4.742-5.936 26.469c-3.547 15.792-7.896 29.027-10.659 33.376-2.371 3.752-5.133 9.277-5.731 12.245-.989 3.547-4.349 7.112-9.482 10.267-4.536 2.576-13.44 9.483-19.75 15.027-5.04 4.536-8.512 7.317-10.397 8.512l-6.16 4.872c-1.979 3.173-3.099 5.73-3.528 7.672-.429 1.997-.187 3.322.448 4.293.616.933 1.68 1.587 3.136 1.997a17.82 17.82 0 005.264.43 55.977 55.977 0 0011.797-2.091 57.316 57.316 0 003.23-.989c1.381-1.699 4.573-4.91 10.229-10.491 15.008-14.803 20.739-22.904 14.821-20.72-2.184.784-1.194-1.195 2.558-5.152 7.914-7.709 12.45-19.357 21.933-55.888 7.504-28.84 7.504-29.251 13.029-29.251 2.595 0 9.931.448 9.931.448V158h-33.619zm71.662 59.08c-1.195 0-3.174 1.792-4.35 3.771-2.165 3.546.392 5.712 32.984 26.058 19.358 12.264 34.963 22.718 34.571 23.52-.392.579-16.203 10.864-35.149 22.718-34.384 21.317-34.571 21.522-31.416 25.872 3.957 5.133 0 6.906 44.632-20.944L480 277.336v-15.605l-36.157-22.326c-19.544-12.245-36.531-22.12-37.52-22.325zm-300.254 2.184c-.989 0-17.976 10.08-37.52 22.12L32 263.709v15.606l36.344 22.717c20.16 12.432 37.147 22.717 37.931 22.717.784 0 2.37-1.792 3.957-3.957 2.371-3.752.373-5.339-33.003-26.469-31.789-19.955-35.149-22.718-31.976-24.883 1.979-1.381 16.987-10.677 33.19-20.739 36.941-22.717 34.962-21.149 31.994-25.89-1.176-1.96-3.173-3.734-4.349-3.547h-.019zm162.102.429c-5.451-.037-17.174 8.27-52.267 36.923-1.512 3.603-1.643 6.085-.952 7.691.448 1.101 1.269 1.866 2.408 2.426 1.12.56 2.576.896 4.181 1.027 3.192.28 6.963-.224 10.006-.821l2.053-.467a7.206 7.206 0 012.688-2.203c2.165-1.194 11.256-9.482 20.347-18.368 15.997-16.202 19.749-23.52 13.234-25.89a4.474 4.474 0 00-1.68-.318h-.018zm40.992 11.256c-4.798.131-13.44 5.694-28.243 17.51-7.429 6.029-12.133 9.277-14.653 9.949l-9.782 7.728c-3.677 6.72-4.218 10.883-3.248 13.179a4.67 4.67 0 002.576 2.501 12.03 12.03 0 004.48.84 40.689 40.689 0 0010.827-1.587 64.568 64.568 0 005.432-1.717l.541-.224.99-.523c1.866-2.408 6.16-6.944 11.536-12.17 16.986-16.39 25.666-28.038 23.893-32.387-.803-2.109-2.184-3.173-4.349-3.099zm-45.248 20.16c-1.382.15-4.48 2.539-10.062 7.43-8.064 7.13-16.856 11.237-19.898 9.408-.707.159-1.417.309-2.128.448-3.099.616-6.963 1.12-10.416.84a13.242 13.242 0 01-4.704-1.176 6.287 6.287 0 01-3.136-3.174c-.691-1.68-.691-3.77.093-6.44l-12.133 9.968-27.459 22.718v36.829l89.973-70.877a7.679 7.679 0 01.299-2.296c.691-2.502.653-3.771-.429-3.659v-.019zm38.714 11.928c-1.362 0-3.64 1.923-7.28 5.787-4.946 5.283-12.73 10.397-16.856 11.443l-.634.336a41.72 41.72 0 01-2.054.784c-1.12.373-2.576.821-4.256 1.269-3.36.915-7.541 1.755-11.274 1.661a13.655 13.655 0 01-5.134-1.008 6.419 6.419 0 01-3.434-3.36c-1.083-2.594-.654-6.234 1.717-11.405l-79.371 62.515v22.493h34.87l73.957-58.091c1.923-2.128 4.816-5.04 8.717-8.68 10.454-9.688 12.824-13.029 12.824-17.976 0-3.845-.429-5.786-1.792-5.786v.018zm17.603 36.4l-6.328 6.31c-3.547 3.36-9.875 7.504-14.205 9.277l-.859.373-.056.094-.187.186c-.168.131-.242.15-.373.206a64.414 64.414 0 01-5.264 1.736 57.051 57.051 0 01-12.133 2.146 19.294 19.294 0 01-5.787-.504 6.791 6.791 0 01-4.069-2.688c-.896-1.381-1.158-3.229-.654-5.506a20.713 20.713 0 011.774-4.667l-59.678 47.152h79.371l9.483-10.864c13.029-15.195 18.965-26.059 18.965-35.355v-7.896z"/></svg>