<svg xmlns="http://www.w3.org/2000/svg" class="vicon" viewBox="0 0 512 512"><path d="M423.572 32.068a7.411 7.411 0 00-3.36.317L92.642 136.25c-3.266 1.027-6.029 3.995-7.503 7.429a7.842 7.842 0 00-1.12 4.107v106.888a7.836 7.836 0 001.12 4.106c1.474 3.416 4.237 6.366 7.504 7.411l139.144 44.129-139.144 44.11c-4.76 1.494-8.643 6.982-8.643 12.227v106.178c0 5.265 3.883 8.289 8.643 6.777L420.25 375.728c4.424-1.4 7.952-6.272 8.437-11.2.056-.41.243-.746.243-1.213V257.118c0-5.245-3.883-10.734-8.643-12.246L282.58 201.21l137.67-43.662c4.76-1.493 8.624-7 8.624-12.246V39.162c0-3.94-2.184-6.627-5.283-7.094h-.019z"/></svg>