<svg xmlns="http://www.w3.org/2000/svg" class="vicon" viewBox="0 0 512 512"><path d="M442.373 337.512c1.022-2.128 1.022-4.158 2.128-6.272C469.574 232.794 409.936 117.661 307.346 57c44.981 60.661 62.775 132.927 47.095 197.83a97.237 97.237 0 01-5.25 16.757 103.39 103.39 0 01-8.386-5.25S239.293 203.563 130.432 93.595c-3.136-3.136 58.631 87.932 127.677 160.199-32.437-18.872-124.541-84.796-182.15-138.163 6.272 11.437 15.75 22.959 25.157 34.495 48.117 61.753 110.976 137.141 186.308 194.666-53.38 32.521-127.677 34.565-203.065 0C65.543 336.49 49.794 325.976 32 313.446c31.43 49.209 80.638 94.19 139.269 118.27 70.152 30.393 141.299 28.279 192.566 0h1.106c2.03-1.022 4.158-2.128 6.272-4.158 25.087-12.614 74.296-26.166 101.483 26.165 7.378 14.658 20.93-53.367-30.337-116.211h.014z"/></svg>