<svg xmlns="http://www.w3.org/2000/svg" class="vicon" viewBox="0 0 512 512"><path d="M480 256c0 123.746-100.254 224-224 224S32 379.746 32 256 132.254 32 256 32s224 100.254 224 224zM353.93 114.838c-22.75.784-42.574 13.328-57.386 30.688-16.408 19.04-27.272 41.622-35.154 64.61-14-11.438-24.794-26.39-47.32-32.886a58.115 58.115 0 00-52.57 9.632 47.123 47.123 0 00-16.058 23.408c-6.706 21.952 7.154 41.552 13.426 48.552l13.776 14.728c2.786 2.856 9.702 10.43 6.272 21.224-3.57 11.816-17.71 19.39-32.298 14.952-6.496-1.974-15.834-6.846-13.72-13.65.882-2.842 2.856-4.872 3.934-7.28.952-2.058 1.456-3.654 1.75-4.522 2.632-8.68-.952-19.992-10.29-22.834-8.68-2.702-17.486-.574-21 10.57-3.864 12.698 2.184 35.672 34.72 45.738 38.136 11.662 70.28-9.058 74.872-36.106 2.856-16.912-4.816-29.526-18.816-45.64l-11.438-12.698c-6.93-6.846-9.254-18.662-2.114-27.706 6.048-7.672 14.658-10.864 28.728-7.07 20.622 5.614 29.75 19.824 45.066 31.346-6.342 20.72-10.514 41.496-14.224 60.158l-2.254 13.93c-10.934 57.302-19.25 88.816-40.978 106.904-4.382 3.066-10.64 7.728-19.978 8.078-4.97.07-6.65-3.262-6.65-4.802-.154-3.43 2.786-5.04 4.746-6.566 2.842-1.526 7.294-4.242 6.93-12.614-.294-9.912-8.526-18.522-20.426-18.144-8.89.28-22.456 8.666-21.938 23.982.504 15.89 15.302 27.776 37.534 26.978 11.97-.378 38.514-5.25 64.68-36.386 30.478-35.658 39.018-76.566 45.43-106.526l7.154-39.466c3.99.448 8.232.742 12.894.882 37.912.798 56.882-18.872 57.162-33.166.224-8.68-5.67-17.206-13.846-16.982a15.907 15.907 0 00-15.078 12.25c-1.75 7.952 12.096 15.176 1.302 22.176-7.658 4.942-21.434 8.456-40.768 5.6l3.514-19.474c7.224-36.89 16.03-82.25 49.658-83.328 2.478-.154 11.438.056 11.592 5.978.07 1.96-.35 2.562-2.688 7a15.64 15.64 0 00-3.136 10.066c.28 9.408 7.434 15.61 17.864 15.232 13.846-.434 17.794-14 17.64-20.93-.574-16.338-17.794-26.544-40.544-25.872l.028-.014z"/></svg>