<svg xmlns="http://www.w3.org/2000/svg" class="vicon" viewBox="0 0 512 512"><path d="M401.6 199.888a94.516 94.516 0 01-42.784-30.016A129.255 129.255 0 00256 121.264a105.73 105.73 0 00-112 89.6 72.352 72.352 0 0178.4-33.376 96.766 96.766 0 0142.784 30.24A129.238 129.238 0 00368 255.664a105.73 105.73 0 00112-89.6 71.68 71.68 0 01-78.4 33.824zM110.4 311.44a94.53 94.53 0 0142.784 30.016A129.242 129.242 0 00256 390.064a105.73 105.73 0 00112-89.6 72.349 72.349 0 01-78.4 33.376 96.758 96.758 0 01-42.784-30.24A129.918 129.918 0 00144 255.664a105.73 105.73 0 00-112 89.6 71.685 71.685 0 0178.4-33.824z"/></svg>