<svg xmlns="http://www.w3.org/2000/svg" class="vicon" viewBox="0 0 512 512"><path d="M255.765 32c-3.658 0-7.317.933-10.602 2.856L69.603 136.16A21.185 21.185 0 0059 154.509V357.36a21.188 21.188 0 0010.603 18.368l108.024 62.421V301.061h-57.214v-36.269h155.718v36.269h-57.214v160.944l26.246 15.158a21.2 21.2 0 0021.205 0l43.251-24.976a73.881 73.881 0 01-22.307-26.376l33.619-19.451c6.738 11.013 15.045 19.787 27.626 23.333l40.582-23.445c-2.371-10.603-13.03-15.363-29.568-22.587l-10.323-4.442c-29.792-12.694-49.56-28.598-49.56-62.235 0-30.949 23.613-54.544 60.48-54.544 26.245 0 45.117 9.147 58.688 33.04l-32.163 20.627c-7.074-12.694-14.746-17.696-26.525-17.696-12.096 0-19.787 7.653-19.787 17.696 0 12.376 7.691 17.397 25.387 25.069l10.323 4.424c24.938 10.696 42.093 21.56 49.952 39.331l15.922-9.203a21.188 21.188 0 0010.603-18.368V154.547c0-7.579-4.032-14.598-10.603-18.368L266.368 34.856A21.168 21.168 0 00255.765 32z"/></svg>