<svg xmlns="http://www.w3.org/2000/svg" class="vicon" viewBox="0 0 512 512"><path d="M479.782 151.824c-1.993 43.694-32.454 103.525-91.366 179.462-60.91 79.322-112.444 118.981-154.6 118.981-26.106 0-48.214-24.148-66.26-72.461-12.061-44.285-24.106-88.567-36.162-132.85-13.41-48.286-27.786-72.461-43.156-72.461-3.351 0-15.08 7.067-35.16 21.142L32 166.43a5702.13 5702.13 0 0065.38-58.415c29.487-25.532 51.625-38.959 66.377-40.317 34.869-3.354 56.327 20.525 64.382 71.642 8.705 55.149 14.727 89.453 18.113 102.879 10.048 45.753 21.105 68.601 33.189 68.601 9.376 0 23.462-14.836 42.241-44.513 18.763-29.685 28.812-52.269 30.17-67.782 2.669-25.617-7.385-38.456-30.17-38.456-10.724 0-21.782 2.472-33.155 7.36 22.015-72.257 64.081-107.35 126.174-105.348 46.032 1.353 67.734 31.267 65.083 89.743"/></svg>