<svg xmlns="http://www.w3.org/2000/svg" class="vicon" viewBox="0 0 512 512"><path d="M186.405 229.451l9.557-161.597a5.71 5.71 0 014.611-5.264l155.531-30.483a5.71 5.71 0 016.589 7.187L333.61 140.15a5.71 5.71 0 006.571 7.186l44.576-8.586a5.715 5.715 0 015.648 2.155 5.71 5.71 0 01.549 6.021L264.208 399.859l-2.296 3.547a5.486 5.486 0 01-4.704 2.613c-3.304 0-6.534-2.837-5.694-6.888l20.44-98.952a5.716 5.716 0 00-1.737-5.372 5.72 5.72 0 00-5.505-1.255l-26.75 8.12a5.708 5.708 0 01-7.095-3.692 5.716 5.716 0 01-.166-2.916l12.88-63a5.716 5.716 0 00-1.61-5.255 5.71 5.71 0 00-5.297-1.465l-43.306 10.006a5.72 5.72 0 01-4.966-1.204 5.715 5.715 0 01-2.016-4.695h.019zM465.957 81.499l-111.589 20.309-10.155 35.224 38.771-7.466a14.935 14.935 0 0115.68 6.888 14.938 14.938 0 01.634 14.616L272.533 404.022l-.243.466-.28.43-2.277 3.546a14.95 14.95 0 01-12.544 6.907 15.414 15.414 0 01-11.835-5.637 14.94 14.94 0 01-2.986-12.507l19.208-92.979-20.907 6.347a15.12 15.12 0 01-16.053-4.891 14.968 14.968 0 01-3.08-12.506l11.76-57.494-37.838 8.736a15.077 15.077 0 01-14.336-4.349 15.115 15.115 0 01-4.05-11.2l7.261-122.64-138.88-24.827a11.423 11.423 0 00-11.947 16.912l214.387 375.891a11.419 11.419 0 009.971 5.773 11.423 11.423 0 009.928-5.848L477.978 98.299a11.42 11.42 0 00-.689-12.208 11.427 11.427 0 00-11.332-4.592z"/></svg>