<svg xmlns="http://www.w3.org/2000/svg" class="vicon" viewBox="0 0 512 512"><path d="M451.981 140.682L254.951 32 59 141.246l.322 229.124L254.969 480l197.335-110.15-.322-229.168h-.001zm-97.816 159.679l-.127-90.815-88.993 50.94.425 101.906 77.639-43.176 76.136 44.052-153.413 85.634-.362-86.51-10.51 5.845-11.352-6.384.363 86.927-151.696-85.002L168.31 319.5l75.299 42.353-.426-102.294-86.045-48.385.126 89.462-76.118 44.328-.247-176.663 76.239 42.873 11.048-18.866-77.605-43.641 153.469-85.56v86.747l-75.864 42.455 86.746 48.78 86.762-49.663-75.783-41.648V63.009l152.842 84.307-77.059 44.109 12.345 18.121 76.12-43.571.25 178.497-76.243-44.112v.001z"/></svg>