<svg xmlns="http://www.w3.org/2000/svg" class="vicon" viewBox="0 0 512 512"><path d="M161.266 56c-12.099.026-23.943 6.913-30.035 17.418L36.497 238.425c-5.996 10.533-5.996 24.303 0 34.836l94.734 165.007c6.092 10.505 17.936 17.394 30.035 17.418h189.468c12.1-.026 23.943-6.913 30.035-17.418l94.734-165.007c5.996-10.533 5.996-24.303 0-34.836L380.769 73.418C374.677 62.912 362.834 56.024 350.734 56H161.266zm35.194 96.531c1.447.03 2.85.868 3.572 2.127l55.965 99.927 55.834-99.927c.745-1.297 2.214-2.14 3.704-2.127h32.681c2.893.026 5.06 3.68 3.704 6.249l-54.114 97.063 54.114 96.93c1.485 2.584-.735 6.408-3.705 6.382h-32.68c-1.517-.013-2.994-.914-3.704-2.26l-55.834-99.957-55.965 99.957c-.689 1.308-2.1 2.201-3.572 2.26h-32.681c-2.969.026-5.189-3.798-3.704-6.382l54.115-96.93-54.115-97.063c-1.297-2.344.286-5.749 2.911-6.249h33.474z"/></svg>