<svg xmlns="http://www.w3.org/2000/svg" class="vicon" viewBox="0 0 512 512"><path fill-rule="evenodd" clip-rule="evenodd" d="M465.89 250.313C462.932 137.525 370.812 46.228 256.065 46c-118.895-.087-215.32 99.19-209.843 219.73 4.9 108.78 93.52 197.68 204.925 200.218 119.175 2.747 217.858-94.5 214.743-215.635zm-281.295-72.625a72.801 72.801 0 00-5.88 15.382c-.438.315-.35.875-.56 1.278 0 .875 0 1.75-.245 2.572v5.74c.297.875.21 1.75.297 2.625.508 1.138-.332 2.555.945 3.465 1.54 5.25 3.273 10.395 6.073 15.068.875 1.47.735 2.257-.543 3.395-6.667 6.107-12.652 12.845-17.272 20.702-8.26 14.035-11.34 29.383-11.34 45.5a5.65 5.65 0 01-.28 1.82 4.83 4.83 0 01-1.085 1.838c-10.658 11.672-16.38 24.972-13.755 41.09 1.33 8.172 3.71 15.925 8.575 22.715a6.909 6.909 0 011.557 4.777c-.315 7.07 2.52 12.81 8.54 16.433 10.15 6.142 21.123 8.347 32.813 5.74a12.867 12.867 0 002.327-.91c1.19-.56 2.398-1.103 3.465-.928 1.19.175 2.24 1.103 3.308 2.013.612.525 1.225 1.05 1.872 1.47 6.668 3.99 14.158 5.005 21.665 4.672 18.27-.77 36.488-1.872 54.618-4.41 5.985-.822 11.725-2.327 16.625-6.002a11.183 11.183 0 013.465-1.75c18.357-6.055 35.91-13.965 51.922-24.605 9.713-6.37 19.898-11.585 31.395-14.14 6.283-1.365 10.85-5.513 13.65-11.34 7.14-14.77-3.797-31.325-20.825-31.483-11.515-.087-22.102 3.5-32.252 8.575a152.065 152.065 0 00-10.763 6.16c-3.325 2.013-6.65 4.043-10.132 5.828l-.508.297c-.7.42-1.452.858-2.38.805v-1.75c.91-24.412-7.017-45.622-23.24-63.805-.98-1.085-.805-1.785-.087-2.835a118.177 118.177 0 0014.542-28c6.02-17.027 7.228-34.51 5.39-52.272-.875-8.558-2.625-16.905-6.23-24.798-3.15-6.737-9.012-9.922-16.275-8.295-1.942.403-2.607-.175-3.395-1.785a83.036 83.036 0 00-8.19-14.297 15.495 15.495 0 00-11.987-6.3c-7.77-.438-13.125 3.78-17.64 9.432-3.395 4.253-5.95 9.083-8.015 14.088-.63 1.522-1.4 2.38-2.625 2.835a6.713 6.713 0 01-1.645.35 57.392 57.392 0 00-35.245 16.975 23.459 23.459 0 01-9.503 6.107c-5.127 1.698-8.68 5.233-11.147 9.975v-.017z"/><path d="M307.509 322.78c0 4.235-.98 8.365-1.505 12.478-.455 3.622-.088 4.043 3.587 3.413 8.26-1.435 15.75-4.901 22.943-9.013 7.717-4.393 15.067-9.398 23.31-12.705a52.75 52.75 0 0119.845-4.253c6.002 0 10.185 3.255 10.92 8.4.7 4.76-1.925 9.328-6.72 10.325-13.668 2.905-25.48 9.643-36.978 17.151-15.435 9.957-32.235 17.15-49.717 22.662-.648.175-1.488.332-1.89.717-4.13 4.375-9.59 5.11-15.103 5.828-15.47 2.03-31.027 2.94-46.637 3.85a53.336 53.336 0 01-13.475-.455c-7.175-1.4-10.203-4.078-11.288-9.975-.98-5.268 1.505-10.273 6.79-13.72l2.03-1.278a22.862 22.862 0 01-6.965-6.37c-.875-1.207-1.33-.455-1.61.543l-2.625 9.975c-.595 2.205-1.33 4.375-2.257 6.475-2.66 6.09-7.525 9.03-13.948 9.625a34.578 34.578 0 01-18.637-3.762c-4.025-1.978-5.233-4.953-3.903-9.328.7-2.345 2.03-4.375 3.623-6.843-5.548 1.103-7.98-2.117-9.905-6.02a41.546 41.546 0 01-4.043-26.95c1.418-7.42 5.775-13.475 11.025-18.707 3.063-3.063 3.99-6.02 3.903-10.325-.7-24.938 8.715-45.413 28.087-61.233 1.698-1.417 3.413-2.887 5.198-4.182 1.102-.77 1.225-1.278.315-2.415-5.005-6.3-8.908-13.125-10.675-21.07-2.048-8.943.997-16.713 5.495-24.15.647-.998 1.645-1.505 2.765-1.925 5.652-2.03 10.412-5.093 14.735-9.415 9.712-9.713 21.752-14.175 35.525-13.58 1.75.087 2.52-.42 3.062-2.065 2.048-6.02 4.62-11.813 8.068-17.15a22.024 22.024 0 014.55-5.425c3.395-2.8 6.3-2.398 8.575 1.33 4.235 6.755 7.49 14 10.78 21.262.84 1.838 1.47 2.485 3.395 1.225a35.55 35.55 0 017.297-3.307c2.03-.7 3.22-.228 4.095 1.89 2.573 6.195 3.955 12.67 4.725 19.32.228 1.837.648 3.622.42 5.46-.14 3.99.053 7.997.088 12.04 0 1.785-.63 3.587-.088 5.407-.402 10.92-3.307 21.245-7.525 31.255-3.937 9.363-9.677 17.675-15.417 25.988-2.258 3.202-2.205 3.255.735 5.88 14.315 12.897 22.225 29.102 24.85 48.002.105.735.07 1.523.07 2.293-.595 1.75.052 3.447.087 5.145.158 2.59-.437 5.18 0 7.7l.018-.018z"/></svg>